<?xml version="1.0" encoding="utf-8"?>
<!DOCTYPE svg PUBLIC "-//W3C//DTD SVG 20010904//EN" "http://www.w3.org/TR/2001/REC-SVG-20010904/DTD/svg10.dtd">
<svg version="1.0" xmlns="http://www.w3.org/2000/svg" width="500px" height="458px" viewBox="0 0 500 458" preserveAspectRatio="xMidYMid meet">
 <g fill="#ffffff">
  <path d="M0 229 l0 -229 250 0 250 0 0 229 0 229 -250 0 -250 0 0 -229z m464 87.3 l-0.3 -124.8 9.6 -77 c5.3 -42.4 9.9 -78.7 10.3 -80.7 l0.6 -3.8 -44.9 0 c-34.6 0 -88 -1.5 -233.8 -6.5 -103.9 -3.5 -189.1 -6.2 -189.3 -6 -0.2 0.2 1.2 77.9 3.2 172.7 2.1 94.8 3.7 176.3 3.7 181.3 0 4.9 0.2 13.7 0.5 19.5 l0.6 10.5 3.7 -0.3 c3.3 -0.3 4.1 0.1 6.4 3.1 1.8 2.4 2.7 4.8 2.7 7.4 0 8.1 0.2 8.3 9.6 8.3 4.5 0 8.6 0.5 8.9 1 0.4 0.6 13.7 1 36.6 1 23.3 0 35.9 -0.4 35.9 -1 0 -0.6 12.5 -1 35.8 -0.9 l35.7 0 130.5 10.3 c71.8 5.7 131.3 10.4 132.4 10.5 1.8 0.1 1.8 -3.3 1.6 -124.6z"/>
  <path d="M421.3 388.7 c-2.4 -1.1 -4.3 -2.7 -4.3 -3.4 0 -0.8 -1.3 -1.3 -3.4 -1.3 -1.9 0 -4.1 -0.7 -5 -1.5 -0.8 -0.8 -2.4 -1.5 -3.5 -1.5 -1.7 0 -2.1 -0.6 -2.1 -3.5 0 -3.3 0.2 -3.5 3.5 -3.5 1.9 0 3.5 0.5 3.5 1 0 0.6 0.9 1 1.9 1 3 0 5.1 1.1 5.1 2.6 0 0.9 1.1 1.4 3 1.4 1.6 0 5 1 7.5 2.2 4 1.9 4.5 2.6 4.5 5.5 0 3.1 -0.2 3.3 -3.2 3.2 -1.8 0 -5.2 -1 -7.5 -2.2z"/>
  <path d="M189 380.5 c0 -3.3 0.2 -3.5 3.5 -3.5 2.4 0 3.5 -0.5 3.5 -1.5 0 -0.9 0.9 -1.5 2.5 -1.5 1.4 0 2.5 -0.4 2.5 -0.8 0 -1.1 12.9 -5.2 16.3 -5.2 2.4 0 2.7 0.4 2.7 3.3 0 3.2 -0.2 3.4 -6.8 5.5 -3.8 1.2 -7.6 2.2 -8.5 2.2 -0.9 0 -1.7 0.5 -1.7 1 0 0.6 -1.6 1 -3.5 1 -2.4 0 -3.5 0.5 -3.5 1.5 0 1 -1.1 1.5 -3.5 1.5 -3.3 0 -3.5 -0.2 -3.5 -3.5z"/>
  <path d="M383 356.5 c0 -3.3 0.2 -3.5 3.5 -3.5 3.3 0 3.5 0.2 3.5 3.5 0 3.3 -0.2 3.5 -3.5 3.5 -3.3 0 -3.5 -0.2 -3.5 -3.5z"/>
  <path d="M375 341.5 c0 -3.3 0.2 -3.5 3.5 -3.5 3.3 0 3.5 0.2 3.5 3.5 0 3.3 -0.2 3.5 -3.5 3.5 -3.3 0 -3.5 -0.2 -3.5 -3.5z"/>
  <path d="M393 340.5 c0 -3.3 0.2 -3.5 3.5 -3.5 3.3 0 3.5 0.2 3.5 3.5 0 3.3 -0.2 3.5 -3.5 3.5 -3.3 0 -3.5 -0.2 -3.5 -3.5z"/>
  <path d="M428 330.7 c0 -3.5 0 -3.5 5.5 -4.2 5.9 -0.7 6 -0.8 8.1 -11.3 0.4 -1.8 1 -3.2 1.5 -3.2 0.5 0 0.9 -1 0.9 -2.2 0 -1.3 1.4 -8.3 3.2 -15.5 l3.2 -13.3 3.3 0 c2.9 0 3.3 0.3 3.3 2.5 0 3.6 -6.2 27.9 -7.2 28.3 -0.4 0.2 -0.8 1.3 -0.8 2.5 0 1.2 -0.7 5.5 -1.7 9.5 -1.5 6.3 -1.9 7.2 -3.9 7.2 -1.2 0 -2.4 0.4 -2.6 0.9 -0.1 0.5 -3.1 1.3 -6.5 1.7 l-6.3 0.7 0 -3.6z"/>
  <path d="M199 305.5 c0 -3.3 0.2 -3.5 3.5 -3.5 3.3 0 3.5 0.2 3.5 3.5 0 3.3 -0.2 3.5 -3.5 3.5 -3.3 0 -3.5 -0.2 -3.5 -3.5z"/>
  <path d="M198 294 c0 -3.9 0.1 -4 3.5 -4 3.4 0 3.5 0.1 3.5 4 0 3.9 -0.1 4 -3.5 4 -3.4 0 -3.5 -0.1 -3.5 -4z"/>
  <path d="M453.6 268 c-0.3 -2.2 -1.1 -4 -1.6 -4 -0.6 0 -1 -0.7 -1 -1.5 0 -0.8 -0.4 -1.5 -1 -1.5 -0.5 0 -1 -0.7 -1 -1.5 0 -0.8 -0.4 -1.5 -1 -1.5 -0.5 0 -1 -0.7 -1 -1.5 0 -0.8 -0.4 -1.5 -1 -1.5 -0.5 0 -1 -0.7 -1 -1.5 0 -0.8 -0.4 -1.5 -1 -1.5 -0.5 0 -1 -0.7 -1 -1.5 0 -0.8 -0.4 -1.5 -1 -1.5 -0.5 0 -1 -0.7 -1 -1.5 0 -0.8 -0.4 -1.5 -1 -1.5 -0.5 0 -1 -0.7 -1 -1.5 0 -0.8 -0.4 -1.5 -1 -1.5 -0.5 0 -1 -0.7 -1 -1.5 0 -0.8 -0.4 -1.5 -1 -1.5 -0.5 0 -1 -0.7 -1 -1.5 0 -0.8 -0.4 -1.5 -1 -1.5 -0.5 0 -1 -0.7 -1 -1.5 0 -0.8 -0.4 -1.5 -1 -1.5 -0.5 0 -1 -0.7 -1 -1.5 0 -0.8 -0.4 -1.5 -1 -1.5 -0.5 0 -1 -1.6 -1 -3.5 0 -3.3 0.2 -3.5 3.5 -3.5 2.4 0 3.5 0.5 3.5 1.5 0 0.8 0.5 1.5 1 1.5 0.6 0 1 0.7 1 1.5 0 0.8 0.5 1.5 1 1.5 0.6 0 1 0.7 1 1.5 0 0.8 0.5 1.5 1 1.5 0.6 0 1 0.7 1 1.5 0 0.8 0.5 1.5 1 1.5 0.6 0 1 0.7 1 1.5 0 0.8 0.5 1.5 1 1.5 0.6 0 1 0.7 1 1.5 0 0.8 0.5 1.5 1 1.5 0.6 0 1 0.7 1 1.5 0 0.8 0.5 1.5 1 1.5 0.6 0 1 0.7 1 1.5 0 0.8 0.5 1.5 1 1.5 0.6 0 1 0.7 1 1.5 0 0.8 0.5 1.5 1 1.5 0.6 0 1 0.7 1 1.5 0 0.8 0.5 1.5 1 1.5 0.6 0 1 0.7 1 1.5 0 0.8 0.5 1.5 1 1.5 0.6 0 1 0.6 1 1.4 0 0.8 0.4 1.6 1 1.8 0.5 0.2 1.2 2.9 1.6 6.1 l0.7 5.7 -3.5 0 c-3.4 0 -3.6 -0.2 -4.2 -4z"/>
  <path d="M428 211 l0 -5 3.5 0 3.5 0 0 5 0 5 -3.5 0 -3.5 0 0 -5z"/>
  <path d="M429 191.5 c0 -3.3 -0.4 -4.5 -1.5 -4.5 -0.8 0 -1.5 -0.7 -1.5 -1.5 0 -0.8 -0.4 -1.5 -1 -1.5 -0.5 0 -1 -0.9 -1 -2 0 -1.1 -0.7 -2 -1.5 -2 -0.8 0 -1.5 -0.7 -1.5 -1.5 0 -0.8 -0.4 -1.5 -1 -1.5 -0.5 0 -1 -0.9 -1 -2 0 -1.1 -0.7 -2 -1.5 -2 -0.8 0 -1.5 -0.7 -1.5 -1.5 0 -0.8 -0.4 -1.5 -1 -1.5 -0.5 0 -1 -1.6 -1 -3.5 0 -3.1 -0.3 -3.5 -2.5 -3.5 -2.2 0 -2.5 -0.4 -2.5 -3.5 0 -3.1 -0.3 -3.5 -2.5 -3.5 -1.6 0 -2.5 -0.6 -2.5 -1.5 0 -0.8 -0.4 -1.5 -1 -1.5 -0.5 0 -1 -0.9 -1 -2 0 -1.1 -0.7 -2 -1.5 -2 -0.8 0 -1.5 -0.7 -1.5 -1.5 0 -0.8 -0.4 -1.5 -1 -1.5 -0.5 0 -1 -1.6 -1 -3.5 0 -3.1 -0.3 -3.5 -2.5 -3.5 -1.6 0 -2.5 -0.6 -2.5 -1.5 0 -0.8 -0.4 -1.5 -1 -1.5 -0.5 0 -1 -0.7 -1 -1.5 0 -0.8 -0.4 -1.5 -1 -1.5 -0.5 0 -1 -1.6 -1 -3.5 0 -3.3 0.2 -3.5 3.5 -3.5 2.4 0 3.5 0.5 3.5 1.5 0 0.8 0.5 1.5 1 1.5 0.6 0 1 0.7 1 1.5 0 0.8 0.5 1.5 1 1.5 0.6 0 1 1.6 1 3.5 0 3.1 0.3 3.5 2.5 3.5 1.6 0 2.5 0.6 2.5 1.5 0 0.8 0.5 1.5 1 1.5 0.6 0 1 0.9 1 2 0 1.1 0.7 2 1.5 2 0.8 0 1.5 0.7 1.5 1.5 0 0.8 0.5 1.5 1 1.5 0.6 0 1 1.6 1 3.5 0 3.1 0.3 3.5 2.5 3.5 2.2 0 2.5 0.4 2.5 3.5 0 3.1 0.3 3.5 2.5 3.5 1.6 0 2.5 0.6 2.5 1.5 0 0.8 0.5 1.5 1 1.5 0.6 0 1 0.9 1 2 0 1.1 0.7 2 1.5 2 0.8 0 1.5 0.7 1.5 1.5 0 0.8 0.5 1.5 1 1.5 0.6 0 1 0.9 1 2 0 1.1 0.7 2 1.5 2 0.8 0 1.5 0.7 1.5 1.5 0 0.8 0.5 1.5 1 1.5 0.6 0 1 0.9 1 2 0 1.1 0.7 2 1.5 2 1.2 0 1.5 1.3 1.5 6 l0 6 -3.5 0 c-3.5 0 -3.5 0 -3.5 -4.5z"/>
  <path d="M317 126.5 c0 -3.3 0.2 -3.5 3.5 -3.5 3.3 0 3.5 0.2 3.5 3.5 0 3.3 -0.2 3.5 -3.5 3.5 -3.3 0 -3.5 -0.2 -3.5 -3.5z"/>
  <path d="M378 126.5 c0 -3.3 0.2 -3.5 3.5 -3.5 3.3 0 3.5 0.2 3.5 3.5 0 3.3 -0.2 3.5 -3.5 3.5 -3.3 0 -3.5 -0.2 -3.5 -3.5z"/>
  <path d="M369 125.5 c0 -3.3 0.2 -3.5 3.5 -3.5 3.3 0 3.5 0.2 3.5 3.5 0 3.3 -0.2 3.5 -3.5 3.5 -3.3 0 -3.5 -0.2 -3.5 -3.5z"/>
 </g>
 <g fill="#fdecee">
  <path d="M348.6 413.5 c-1.8 -18 -9.3 -37.2 -17.2 -44.5 l-4.7 -4.3 -17.1 0.6 c-23.7 0.8 -62.8 6.9 -101.5 15.7 -17.4 3.9 -18.1 3.9 -18.1 -0.3 0 -3.7 -0.4 -3.5 16.5 -9.3 18 -6.3 31.8 -9.2 67.5 -14.4 13.1 -1.9 42 -3.2 61.5 -2.8 19.8 0.5 20.1 0.5 31.2 4.1 32.6 10.8 75.9 30.2 84.2 37.8 2.9 2.6 3.1 3.3 3.1 9.6 0 3.7 -0.3 8.5 -0.6 10.6 l-0.7 3.7 -51.7 0 -51.7 0 -0.7 -6.5z"/>
  <path d="M428 327 c-4.7 -2.7 -8.9 -5.1 -9.3 -5.2 -0.5 -0.2 -1.1 -2.3 -1.4 -4.6 -0.6 -4.2 -0.9 -4.5 -13.4 -13.3 -7.1 -4.9 -13 -9.3 -13.2 -9.7 -0.3 -0.4 -0.8 -37.6 -1.2 -82.8 l-0.7 -82.1 3.5 -0.1 c3.4 -0.1 3.8 0.3 12 12.1 4.7 6.7 13.6 19.2 19.7 27.7 l11.2 15.5 -0.7 19.1 -0.6 19.2 13.5 20.3 c8.1 12.1 13.6 21.4 13.6 22.8 0 2.8 -14.8 61.7 -16.2 64.4 -1.7 3.2 -7.5 2.1 -16.8 -3.3z m4.7 -138.7 c-0.3 -1 -0.5 -0.2 -0.5 1.7 0 1.9 0.2 2.7 0.5 1.8 0.2 -1 0.2 -2.6 0 -3.5z"/>
 </g>
 <g fill="#f9f0ed">
  <path d="M51.3 423.6 c-3.5 -1.7 -2.8 -3.6 1.2 -3.6 3.1 0 3.5 0.3 3.5 2.5 0 2.7 -1.1 2.9 -4.7 1.1z"/>
  <path d="M127 421.5 c0 -3.3 0.2 -3.5 3.5 -3.5 3.1 0 3.5 0.3 3.5 2.5 0 1.6 -0.6 2.5 -1.5 2.5 -0.8 0 -1.5 0.5 -1.5 1 0 0.6 -0.9 1 -2 1 -1.6 0 -2 -0.7 -2 -3.5z"/>
  <path d="M349 417.5 c0 -2.4 0.5 -3.5 1.5 -3.5 0.8 0 1.5 0.7 1.5 1.5 0 1.3 6.1 1.5 48.9 1.5 l48.8 0 0.7 -4 c0.8 -5.4 3.6 -5.6 3.6 -0.2 0 2 -0.3 4.7 -0.6 6 l-0.6 2.2 -51.9 0 -51.9 0 0 -3.5z"/>
  <path d="M121 412.5 c0 -3.3 0.2 -3.5 3.5 -3.5 3.3 0 3.5 0.2 3.5 3.5 0 3.3 -0.2 3.5 -3.5 3.5 -3.3 0 -3.5 -0.2 -3.5 -3.5z"/>
  <path d="M31.7 408 c-1.8 -2.5 -3.3 -3.7 -4.2 -3.3 -1 0.3 -1.5 -0.2 -1.5 -1.6 0 -1.7 0.6 -2.1 3.5 -2.1 2.3 0 3.5 0.5 3.5 1.4 0 0.8 0.7 1.6 1.5 2 1.5 0.5 2.2 7.6 0.8 7.6 -0.5 0 -2.1 -1.8 -3.6 -4z"/>
  <path d="M187 404.5 c0 -3.3 0.2 -3.5 3.5 -3.5 3.3 0 3.5 0.2 3.5 3.5 0 3.3 -0.2 3.5 -3.5 3.5 -3.3 0 -3.5 -0.2 -3.5 -3.5z"/>
  <path d="M106 402.5 c0 -3.3 0.2 -3.5 3.5 -3.5 3.3 0 3.5 0.2 3.5 3.5 0 3.3 -0.2 3.5 -3.5 3.5 -3.3 0 -3.5 -0.2 -3.5 -3.5z"/>
  <path d="M450.6 402.6 c-0.6 -2.6 -6.8 -7 -17.3 -12.6 -6.9 -3.6 -7.8 -5 -3.3 -5 3.1 0 12 3.8 12 5.2 0 0.4 0.6 0.8 1.4 0.8 0.8 0 2.1 0.6 2.8 1.3 0.7 0.7 2.1 1.6 3.1 2 0.9 0.3 1.7 1.3 1.7 2.2 0 0.8 0.7 1.5 1.5 1.5 1 0 1.5 1.1 1.5 3.5 0 4.1 -2.4 4.9 -3.4 1.1z"/>
  <path d="M19.4 382.5 c-0.9 -4.7 0.3 -10.5 2.1 -10.5 1.2 0 1.5 1.5 1.5 7 0 5.5 -0.3 7 -1.5 7 -0.8 0 -1.7 -1.4 -2.1 -3.5z"/>
  <path d="M192 382.1 c0 -0.5 0.6 -1.2 1.3 -1.4 1 -0.4 1 -0.6 0 -0.6 -0.7 -0.1 -1.3 -1 -1.3 -2 0 -2 1.8 -3.1 5 -3.1 1 0 2 -0.4 2.2 -0.9 0.4 -1.2 15.8 -6.1 19.1 -6.1 2.9 0 4 2.9 1.2 3.1 -1.6 0.2 -3.2 0.5 -4 0.9 -0.3 0.1 -0.9 0.4 -1.5 0.5 -0.5 0.1 -1.2 0.4 -1.5 0.5 -0.3 0.1 -0.9 0.4 -1.5 0.5 -0.5 0.1 -1.2 0.4 -1.5 0.5 -0.3 0.1 -0.9 0.4 -1.5 0.5 -0.5 0.1 -1.2 0.4 -1.5 0.5 -0.3 0.1 -0.8 0.3 -1.2 0.5 -3.2 0.9 -9.4 3.7 -9 4.1 0.1 0.2 4.1 -0.6 8.7 -1.6 4.7 -1.1 9 -1.9 9.5 -1.9 1.6 0.1 -8.8 3.7 -10.8 3.8 -1 0.1 -2.5 0.8 -3.3 1.6 -1.7 1.6 -8.4 2.1 -8.4 0.6z"/>
  <path d="M415.2 381.4 c-1.2 -0.8 -3 -1.7 -4 -1.9 -3 -0.6 -10.2 -4.5 -10.2 -5.5 0 -0.6 1.6 -1 3.5 -1 1.9 0 3.5 0.5 3.5 1 0 0.6 0.9 1 1.9 1 1.1 0 2.6 0.7 3.5 1.5 0.8 0.8 2.1 1.5 2.9 1.5 2.9 0 4.7 1.2 4.7 3.1 0 2.3 -2.7 2.5 -5.8 0.3z"/>
  <path d="M399 367.5 c0 -3.3 0.2 -3.5 3.5 -3.5 3.3 0 3.5 0.2 3.5 3.5 0 3.3 -0.2 3.5 -3.5 3.5 -3.3 0 -3.5 -0.2 -3.5 -3.5z"/>
  <path d="M391 365.6 c0 -0.8 -1 -1.6 -2.2 -1.8 -1.3 -0.2 -2.7 -1.3 -3.3 -2.5 -0.5 -1.2 -1.7 -2.4 -2.7 -2.6 -1 -0.3 -1.8 -1.4 -1.8 -2.6 0 -1.2 -0.6 -2.1 -1.4 -2.1 -2 0 -4.6 -7.2 -4.6 -12.5 l0 -4.5 8.5 0 8.5 0 0 3.5 c0 3.5 0 3.5 -4.4 3.5 l-4.3 0 1.1 3.4 c0.6 1.9 1.9 3.7 2.8 3.9 1 0.3 1.8 1.2 1.8 2 0 0.8 0.9 1.7 2.1 2 1.1 0.3 2.3 1.5 2.6 2.6 0.3 1.2 1.4 2.1 2.4 2.1 1.5 0 1.9 0.7 1.9 3.5 0 3.3 -0.2 3.5 -3.5 3.5 -2.4 0 -3.5 -0.5 -3.5 -1.4z"/>
  <path d="M229 356.6 c0 -3.6 1.5 -4.6 7.3 -4.6 2.4 0 2.7 0.4 2.7 3.4 0 3.6 -1.5 4.6 -7.2 4.6 -2.5 0 -2.8 -0.4 -2.8 -3.4z"/>
  <path d="M393 338.1 c0 -4.6 0.1 -4.9 3.1 -5.5 6.8 -1.3 7.9 -0.9 7.9 2.9 0 2.8 -0.4 3.5 -2 3.5 -1.3 0 -2 0.7 -2 2 0 1.6 -0.7 2 -3.5 2 l-3.5 0 0 -4.9z"/>
  <path d="M233 337.5 c0 -3.3 0.2 -3.5 3.5 -3.5 3.3 0 3.5 0.2 3.5 3.5 0 3.3 -0.2 3.5 -3.5 3.5 -3.3 0 -3.5 -0.2 -3.5 -3.5z"/>
  <path d="M422 331.6 c0 -3.3 0 -3.3 6.3 -4.3 4.9 -0.8 6.8 -0.8 8.9 0.3 2.9 1.5 5.4 1.1 5.6 -0.9 0 -0.7 0.3 -2.2 0.6 -3.4 1 -4 1.7 -6.7 2.2 -9.2 0.3 -1.4 0.7 -2.8 1 -3.3 0.3 -0.4 0.7 -1.7 1 -2.8 0.2 -1.1 0.6 -2.9 0.9 -4 0.3 -1.1 0.7 -2.9 1 -4 0.3 -1.1 0.7 -2.9 1 -4 0.3 -1.1 0.7 -2.9 1 -4 1.2 -4.8 1.6 -6.7 2.1 -9 0.3 -1.4 1.2 -5 2.1 -8 1.8 -6.5 2 -11.3 0.4 -11.8 -0.6 -0.2 -1.1 -1 -1.1 -1.8 0 -0.8 -0.4 -1.4 -1 -1.4 -0.5 0 -1 -0.7 -1 -1.5 0 -0.8 -0.4 -1.5 -1 -1.5 -0.5 0 -1 -0.7 -1 -1.5 0 -0.8 -0.4 -1.5 -1 -1.5 -0.5 0 -1 -0.7 -1 -1.5 0 -0.8 -0.4 -1.5 -1 -1.5 -0.5 0 -1 -0.7 -1 -1.5 0 -0.8 -0.4 -1.5 -1 -1.5 -0.5 0 -1 -0.7 -1 -1.5 0 -0.8 -0.4 -1.5 -1 -1.5 -0.5 0 -1 -0.7 -1 -1.5 0 -0.8 -0.4 -1.5 -1 -1.5 -0.5 0 -1 -0.7 -1 -1.5 0 -0.8 -0.4 -1.5 -1 -1.5 -0.5 0 -1 -0.7 -1 -1.5 0 -0.8 -0.4 -1.5 -1 -1.5 -0.5 0 -1 -0.7 -1 -1.5 0 -0.8 -0.4 -1.5 -1 -1.5 -0.5 0 -1 -0.7 -1 -1.5 0 -0.8 -0.4 -1.5 -1 -1.5 -0.5 0 -1 -0.7 -1 -1.5 0 -0.8 -0.4 -1.5 -0.9 -1.5 -1.3 0 -2 -2.5 -1.4 -4.9 0.8 -3.1 3 -2.6 3.8 0.9 0.4 1.7 1.1 3 1.6 3 0.5 0 0.9 0.7 0.9 1.5 0 0.8 0.5 1.5 1 1.5 0.6 0 1 0.7 1 1.5 0 0.8 0.5 1.5 1 1.5 0.6 0 1 0.7 1 1.5 0 0.8 0.5 1.5 1 1.5 0.6 0 1 0.7 1 1.5 0 0.8 0.5 1.5 1 1.5 0.6 0 1 0.7 1 1.5 0 0.8 0.5 1.5 1 1.5 0.6 0 1 0.7 1 1.5 0 0.8 0.5 1.5 1 1.5 0.6 0 1 0.7 1 1.5 0 0.8 0.5 1.5 1 1.5 0.6 0 1 0.7 1 1.5 0 0.8 0.5 1.5 1 1.5 0.6 0 1 0.7 1 1.5 0 0.8 0.5 1.5 1 1.5 0.6 0 1 0.7 1 1.5 0 0.8 0.5 1.5 1 1.5 0.6 0 1 0.7 1 1.5 0 0.8 0.5 1.5 1 1.5 0.6 0 1 0.7 1 1.5 0 0.8 0.5 1.5 1.1 1.5 2.2 0 0.2 11.2 -7 39 -4 15.1 -7.4 28.2 -7.7 29.1 -0.3 1.1 -3.2 2 -10.2 3.2 -13.3 2.3 -13.2 2.4 -13.2 -1.7z"/>
  <path d="M228 328.5 c0 -3.3 0.2 -3.5 3.5 -3.5 3.3 0 3.5 0.2 3.5 3.5 0 3.3 -0.2 3.5 -3.5 3.5 -3.3 0 -3.5 -0.2 -3.5 -3.5z"/>
  <path d="M441.7 314 c0.9 -3.4 1.7 -5.9 1.9 -5.7 0.7 0.6 -1.8 11.7 -2.6 11.7 -0.4 0 -0.1 -2.7 0.7 -6z"/>
  <path d="M200.7 315.6 c-0.3 -0.8 -0.9 -4.6 -1.3 -8.5 l-0.7 -7.1 3.5 0 c3.9 0 3.5 -1 5.5 13.3 0.5 3.7 0.5 3.7 -3 3.7 -2.1 0 -3.7 -0.6 -4 -1.4z"/>
  <path d="M245 299.5 c0 -3.3 0.2 -3.5 3.5 -3.5 3.3 0 3.5 0.2 3.5 3.5 0 3.3 -0.2 3.5 -3.5 3.5 -3.3 0 -3.5 -0.2 -3.5 -3.5z"/>
  <path d="M198 291 l0 -5 3.5 0 3.5 0 0 5 0 5 -3.5 0 -3.5 0 0 -5z"/>
  <path d="M345 281.5 c0 -3.3 0.2 -3.5 3.5 -3.5 3.3 0 3.5 0.2 3.5 3.5 0 3.3 -0.2 3.5 -3.5 3.5 -3.3 0 -3.5 -0.2 -3.5 -3.5z"/>
  <path d="M358 276.5 c0 -3.3 0.2 -3.5 3.5 -3.5 3.3 0 3.5 0.2 3.5 3.5 0 3.3 -0.2 3.5 -3.5 3.5 -3.3 0 -3.5 -0.2 -3.5 -3.5z"/>
  <path d="M367 235.5 c0 -3.3 0.2 -3.5 3.5 -3.5 3.3 0 3.5 0.2 3.5 3.5 0 3.3 -0.2 3.5 -3.5 3.5 -3.3 0 -3.5 -0.2 -3.5 -3.5z"/>
  <path d="M431.5 209 c-0.9 -4 0.3 -9 2.1 -9 1 0 1.4 1.5 1.4 6 0 4.5 -0.4 6 -1.4 6 -0.8 0 -1.7 -1.3 -2.1 -3z"/>
  <path d="M368 194.5 c0 -4.5 0 -4.5 3.5 -4.5 3.5 0 3.5 0 3.5 4.5 0 4.5 0 4.5 -3.5 4.5 -3.5 0 -3.5 0 -3.5 -4.5z"/>
  <path d="M433 189 c0 -1 -0.8 -2.2 -3.7 -5.5 -0.7 -0.7 -1.3 -1.6 -1.3 -2 0 -0.4 -0.6 -1.3 -1.2 -2 -2.7 -3 -3.8 -4.4 -3.8 -5 0 -0.6 -1.1 -2 -3.7 -5 -0.7 -0.7 -1.3 -1.6 -1.3 -2 0 -0.3 -1.1 -1.8 -2.5 -3.3 -1.4 -1.5 -2.5 -3 -2.5 -3.5 0 -0.4 -1.1 -2 -2.5 -3.5 -1.4 -1.5 -2.5 -3.2 -2.5 -3.9 0 -0.7 -0.4 -1.3 -1 -1.3 -0.5 0 -1 -0.5 -1 -1.1 0 -0.6 -0.6 -1.7 -1.2 -2.4 -3 -3.3 -3.8 -4.5 -3.8 -5.5 0 -0.5 -0.4 -1 -0.8 -1 -0.5 0 -1.7 -1.6 -2.8 -3.5 -1 -1.9 -2.2 -3.5 -2.6 -3.5 -0.5 0 -0.8 -0.7 -0.8 -1.5 0 -3 -2 -1.4 -2.1 1.8 -0.1 1.7 -0.3 2.4 -0.6 1.5 -0.2 -1 -0.9 -1.8 -1.4 -1.8 -0.5 0 -0.9 -0.7 -0.9 -1.5 0 -0.9 -2 -1.8 -6 -2.7 -5.9 -1.2 -6 -1.2 -6 -4.6 l0 -3.5 5.7 0.7 c8.1 1 10.3 1.6 10.3 3.2 0 0.8 0.7 1.4 1.5 1.4 0.8 0 1.5 0.7 1.5 1.5 0 0.8 0.5 1.5 1 1.5 0.6 0 1 0.9 1 2 0 1.1 0.7 2 1.5 2 0.8 0 1.5 0.7 1.5 1.5 0 0.8 0.5 1.5 1 1.5 0.6 0 1 0.7 1 1.5 0 0.8 0.5 1.5 1 1.5 0.6 0 1 0.9 1 2 0 1.1 0.7 2 1.5 2 0.8 0 1.5 0.7 1.5 1.5 0 0.8 0.5 1.5 1 1.5 0.6 0 1 0.6 1 1.4 0 0.8 0.7 1.6 1.5 2 0.8 0.3 1.5 1.2 1.5 2.1 0 0.8 0.5 1.5 1 1.5 0.6 0 1 0.6 1 1.4 0 0.8 0.7 1.6 1.5 2 0.8 0.3 1.5 1.2 1.5 2.1 0 0.8 0.5 1.5 1 1.5 0.6 0 1 0.7 1 1.5 0 0.8 0.5 1.5 1 1.5 0.6 0 1 0.9 1 2 0 1.1 0.7 2 1.5 2 0.8 0 1.5 0.7 1.5 1.5 0 0.8 0.5 1.5 1 1.5 0.6 0 1 0.9 1 2 0 1.1 0.7 2 1.5 2 0.8 0 1.5 0.7 1.5 1.5 0 0.8 0.5 1.5 1 1.5 0.6 0 1 0.9 1 2 0 1.1 0.7 2 1.5 2 1 0 1.5 1.1 1.5 3.5 0 1.9 -0.4 3.5 -1 3.5 -0.5 0 -1 -0.5 -1 -1z"/>
  <path d="M105.8 186.3 c-1 -0.2 -1.8 -0.9 -1.8 -1.5 0 -0.6 -2.4 -0.8 -7 -0.3 l-7 0.7 0 -3.6 c0 -3.3 0.3 -3.7 3 -4.2 1.7 -0.4 3 -1 3 -1.5 0 -0.5 1.6 -0.9 3.5 -0.9 1.9 0 3.5 0.5 3.5 1 0 0.6 0.7 1 1.5 1 0.8 0 1.5 0.4 1.5 0.9 0 0.5 1.8 1.1 4 1.5 3.8 0.6 4 0.8 4 4.1 0 3.3 -0.2 3.5 -3.2 3.4 -1.8 -0.1 -4.1 -0.3 -5 -0.6z"/>
  <path d="M367 157.5 c0 -3.3 0.2 -3.5 3.5 -3.5 3.3 0 3.5 0.2 3.5 3.5 0 3.3 -0.2 3.5 -3.5 3.5 -3.3 0 -3.5 -0.2 -3.5 -3.5z"/>
  <path d="M302 128.6 l0 -3.3 10 -1.2 c15.1 -1.7 15 -1.7 15 2.2 l0 3.3 -10.8 1.2 c-14.9 1.7 -14.2 1.8 -14.2 -2.2z"/>
  <path d="M330 125.5 l0 -3.5 5.5 0 5.5 0 0 3.5 0 3.5 -5.5 0 -5.5 0 0 -3.5z"/>
  <path d="M366 125.5 c0 -3.5 0 -3.5 4.5 -3.5 4.5 0 4.5 0 4.5 3.5 0 3.5 0 3.5 -4.5 3.5 -4.5 0 -4.5 0 -4.5 -3.5z"/>
  <path d="M226 102.5 c0 -2 -0.5 -2.5 -2.5 -2.5 -1.6 0 -2.5 -0.6 -2.5 -1.5 0 -0.9 -0.9 -3.3 -2 -5.5 -1.1 -2.2 -2 -5.3 -2 -7 0 -2.7 0.3 -3 3.3 -3 2.8 0 3.6 0.5 5 3.5 0.9 1.9 2 5.3 2.3 7.5 0.6 3.4 1 4 3 4 2.1 0 2.4 0.5 2.4 3.5 0 3.3 -0.2 3.5 -3.5 3.5 -3.1 0 -3.5 -0.3 -3.5 -2.5z"/>
  <path d="M234 100.5 c0 -3.2 0.2 -3.5 3 -3.5 2 0 3 -0.5 3 -1.5 0 -0.8 0.7 -1.5 1.5 -1.5 0.8 0 1.7 -1.4 2.1 -3.5 0.4 -2.5 1.1 -3.5 2.5 -3.5 1.2 0 1.9 -0.7 1.9 -2 0 -1.6 0.7 -2 3.5 -2 3.3 0 3.5 0.2 3.5 3.5 0 2.8 -0.4 3.5 -1.9 3.5 -1.5 0 -2.1 1 -2.6 4 -0.4 2.5 -1.2 4 -2.1 4 -0.8 0 -1.4 0.7 -1.4 1.5 0 1 -1 1.5 -3 1.5 -2 0 -3 0.5 -3 1.5 0 1 -1.1 1.5 -3.5 1.5 -3.3 0 -3.5 -0.2 -3.5 -3.5z"/>
  <path d="M261.3 64.3 c-1.9 -0.4 -2.3 -1.1 -2.3 -3.9 0 -3.7 1.2 -4.1 7.9 -2.8 2.7 0.6 3.1 1 3.1 4 0 3.2 -0.2 3.4 -3.2 3.3 -1.8 -0.1 -4.3 -0.4 -5.5 -0.6z"/>
  <path d="M250 60.5 c0 -3.3 0.2 -3.5 3.5 -3.5 3.3 0 3.5 0.2 3.5 3.5 0 3.3 -0.2 3.5 -3.5 3.5 -3.3 0 -3.5 -0.2 -3.5 -3.5z"/>
  <path d="M261.2 53.5 c-0.7 -1.4 -1.2 -3.5 -1.2 -4.5 0 -1.5 -0.7 -2 -2.5 -2 -2.2 0 -2.5 -0.4 -2.5 -3.5 0 -3.3 0.2 -3.5 3.5 -3.5 3.1 0 3.5 0.3 3.5 2.5 0 2 0.5 2.5 2.3 2.5 2.7 0 4.7 3.4 4.7 8 0 2.7 -0.3 3 -3.3 3 -2.6 0 -3.6 -0.6 -4.5 -2.5z"/>
  <path d="M243 51.1 c0 -4.9 0.9 -6.1 4.6 -6.1 3.1 0 3.4 0.3 3.4 2.9 0 4.9 -0.9 6.1 -4.6 6.1 -3.1 0 -3.4 -0.3 -3.4 -2.9z"/>
 </g>
 <g fill="#e7ffe8">
  <path d="M212 424.4 c-17.7 -1.5 -81 -1.9 -81 -0.4 0 2.4 -3 0.7 -4.6 -2.5 -2.9 -6.3 -15.6 -15.3 -26.8 -19.1 -4.2 -1.4 -4.6 -1.9 -4.6 -4.8 0 -2.7 0.5 -3.3 3.2 -4.1 2.9 -0.9 3.3 -1.5 4.6 -7.3 1.3 -6 1.6 -6.5 7.4 -10.8 3.4 -2.5 10.6 -6.8 16.1 -9.6 10.3 -5.3 14.2 -8.5 19.7 -16.6 3.2 -4.8 3.5 -5 9.3 -5.6 3.3 -0.3 8 -0.6 10.5 -0.6 l4.5 0 -0.9 -13.2 c-1.4 -22.7 -1.2 -27.1 2.4 -40.3 3 -10.9 3.6 -12.3 7.3 -15.7 5.7 -5.2 15.2 -9.8 20.4 -9.8 l4.2 0 0.7 19.3 c0.4 10.5 0.9 20.9 1.2 22.9 0.7 4.3 2.5 5.6 22 15.9 11 5.9 11.4 6.2 11.4 9.4 0 3.1 0.3 3.4 5.3 5.1 8.3 2.7 9.7 4 9.7 8.9 0 2.8 -0.6 4.7 -1.8 5.8 -3.6 3.3 -17 8.5 -28.3 11.1 -2.3 0.5 -2.6 1.1 -2.5 4.2 0.1 3.6 0 3.7 -5.1 5 -6.6 1.7 -21.6 7.5 -21 8 0.3 0.3 3.5 -0.2 7.2 -1.1 3.7 -0.8 6.9 -1.4 7.1 -1.3 0.1 0.2 -3.1 1.7 -7.2 3.3 l-7.4 3 0 7.1 c0 4 -0.7 10.8 -1.5 15.1 -0.8 4.3 -1.5 8.1 -1.5 8.6 0 0.4 36 0.7 80 0.7 70.4 0 80 0.2 80 1.5 0 1.3 5.3 1.5 42 1.5 l42 0 0 2.4 c0 6.1 8.7 5.6 -105.4 5.5 -75 -0.1 -108.2 -0.5 -118.6 -1.5z m-10.3 -134.1 c-0.3 -1 -0.5 -0.2 -0.5 1.7 0 1.9 0.2 2.7 0.5 1.8 0.2 -1 0.2 -2.6 0 -3.5z"/>
  <path d="M53 424 c0 -0.6 -3.6 -1 -8.9 -1 -9.9 0 -10.1 -0.1 -10.1 -8.3 0 -2.1 -0.4 -4.6 -1 -5.6 -0.8 -1.6 -0.2 -2.1 4.6 -4 3.1 -1.1 6.9 -2.1 8.5 -2.1 2.7 0 3.3 0.6 5.6 5.8 2.9 6.1 4.4 16.2 2.4 16.2 -0.6 0 -1.1 -0.4 -1.1 -1z"/>
  <path d="M429 387.6 c-5.8 -2.9 -14.2 -6.7 -18.7 -8.6 -6.9 -2.9 -8.3 -3.9 -8.3 -5.8 0 -1.5 -0.9 -2.6 -2.7 -3.2 -5 -1.9 -7.6 -3.5 -12.6 -8 -7.6 -6.7 -10.7 -12.3 -10.7 -18.7 l0 -5.3 9 0 c8.7 0 9 -0.1 9 -2.3 0 -2.2 0.7 -2.4 20.4 -5.7 17.8 -2.9 20.9 -3.1 23.6 -2 1.8 0.7 3.4 0.9 3.9 0.4 0.4 -0.5 2.5 -7.5 4.6 -15.6 2.5 -10 4.2 -14.8 5.1 -14.8 0.8 0 1.4 1.1 1.4 2.5 0 2.7 -12.8 91.6 -13.2 92 -0.2 0.1 -5 -2.1 -10.8 -4.9z m-44.7 -46.9 l5.2 -0.3 -5.7 -0.2 c-5.4 -0.2 -5.8 -0.1 -5.7 2.1 0.1 1.6 0.3 1.7 0.6 0.5 0.3 -1.3 1.8 -1.8 5.6 -2.1z"/>
  <path d="M32 317 l0 -29 3.6 0 c2.7 0 7.3 2.2 19 9.1 15.2 9 15.4 9.2 15.4 12.6 0 8.2 -27 36.3 -34.9 36.3 l-3.1 0 0 -29z"/>
  <path d="M444.2 244.8 l-13.4 -20.1 1 -18.4 1 -18.4 -18.6 -26.3 c-10.3 -14.4 -19.5 -27.3 -20.4 -28.7 l-1.7 -2.4 -0.1 3.5 -0.1 3.5 -1.7 -2.8 c-1.2 -2 -3.3 -3.3 -7.2 -4.5 -7.7 -2.4 -52.4 -2.3 -68.4 0.1 -15.4 2.4 -15.6 2.4 -15.6 -1.4 0 -2.2 1.1 -4.3 3.5 -7.1 2 -2.1 4.3 -5.5 5.2 -7.4 1.6 -3.3 1.6 -3.7 -0.1 -6.9 -5.6 -10.3 -29.4 -35.6 -35.4 -37.6 -4.6 -1.5 -8.2 -5.2 -8.2 -8.5 0 -6 -4.8 -12.6 -14.2 -19.7 -3.2 -2.4 -3.8 -3.4 -3.8 -6.5 l0 -3.8 69.3 -2.2 c44.2 -1.5 87.9 -2.3 120.9 -2.2 l51.8 0 -0.6 2.8 c-1.4 7.8 -20.5 166 -21 173.7 -0.6 10.1 -7.6 61.5 -8.4 61.5 -0.3 0 -6.5 -9.1 -13.8 -20.2z"/>
  <path d="M32 146.5 l0 -107.5 2.3 -0.4 c1.9 -0.4 163.7 -5.7 170.9 -5.6 2.1 0 2.8 0.6 3.3 2.9 0.3 1.6 1.9 5 3.6 7.5 3.7 5.9 3.6 7.9 -0.3 15.6 -2.5 4.8 -3.3 7.8 -3.6 13.1 l-0.4 6.9 -3.7 0 c-2 0 -4.1 0.4 -4.6 0.9 -0.6 0.5 -3.6 1.6 -6.7 2.6 -6 1.8 -7.2 1.8 -20.3 -0.9 -13.6 -2.8 -19.9 0.6 -35.7 19.5 -4.9 5.7 -10.6 11.9 -12.7 13.6 -5.2 4.3 -13 16.1 -16.9 25.6 -6.6 15.7 -9.5 32.2 -6.1 34.3 0.5 0.3 0.9 2 0.9 3.7 0 2.8 -0.6 3.5 -4.5 5.6 -3.7 2 -4.5 2.9 -4.5 5.2 0 2.7 -0.3 2.9 -3.9 2.9 -2.2 0 -4.3 -0.4 -4.6 -1 -0.3 -0.5 -1.7 -1 -3 -1 -2.4 0 -18.5 7.8 -22.2 10.7 -3.4 2.8 -16.9 36.9 -19.8 50.1 -0.6 2.8 -1 3.2 -4.1 3.2 l-3.4 0 0 -107.5z"/>
  <path d="M238 99.7 c0 -2.5 0.7 -3.9 3 -5.5 1.8 -1.4 3.1 -3.5 3.6 -5.7 0.3 -2 1.2 -3.5 2 -3.5 0.9 0 1.4 -1.1 1.4 -3 0 -2.8 0.2 -3 3.8 -3 3.2 0.1 4.3 0.7 8.5 5.6 6.7 7.8 6.6 10.9 -0.6 15.2 -4.8 2.9 -6 3.2 -13.5 3.2 l-8.2 0 0 -3.3z"/>
 </g>
 <g fill="#d9f9fc">
  <path d="M103 385.5 c0 -3 0.3 -3.5 2.4 -3.5 2.3 0 2.4 0.2 1.3 3.5 -0.6 1.9 -1.6 3.5 -2.4 3.5 -0.8 0 -1.3 -1.3 -1.3 -3.5z"/>
  <path d="M112 376 c0 -2.8 0.3 -3 3.5 -3 4.4 0 4.4 0.9 0 3.8 l-3.5 2.2 0 -3z"/>
  <path d="M120 370.7 c0 -1.8 1.2 -2.9 5.5 -5 5.5 -2.7 11.5 -3.6 11.5 -1.7 0 0.8 -14.9 9 -16.5 9 -0.3 0 -0.5 -1 -0.5 -2.3z"/>
  <path d="M138 361.1 c0 -2.4 0.4 -3.1 2 -3.1 1.5 0 2 -0.7 2 -2.5 0 -1.6 0.6 -2.5 1.5 -2.5 0.8 0 1.5 -0.9 1.5 -2 0 -1.6 0.7 -2 3.1 -2 l3 0 -2.2 3.3 c-3.5 5 -7 9.1 -9 10.5 -1.7 1.2 -1.9 1 -1.9 -1.7z"/>
  <path d="M35.8 342.7 c0.6 -0.7 3.2 -2.8 5.7 -4.6 l4.5 -3.2 0 3 c0 2.4 -0.4 3.1 -2 3.1 -1.1 0 -2 0.7 -2 1.5 0 1.1 -1.1 1.5 -3.6 1.5 -2.9 0 -3.4 -0.3 -2.6 -1.3z"/>
  <path d="M55.7 324.6 c1 -1.3 4 -5.2 6.7 -8.6 4.4 -5.6 4.8 -6.4 3.3 -7.5 -2.5 -1.8 -2.1 -2.5 1.8 -2.5 3.3 0 3.5 0.2 3.5 3.5 0 2.4 -0.5 3.5 -1.5 3.5 -0.8 0 -1.5 0.9 -1.5 2 0 1.1 -0.7 2 -1.5 2 -0.8 0 -1.5 0.9 -1.5 2 0 1.5 -0.7 2 -2.5 2 -2.1 0 -2.5 0.5 -2.5 3 0 2.7 -0.3 3 -3.1 3 l-3.1 0 1.9 -2.4z"/>
  <path d="M169 301.5 c0 -3 0.3 -3.5 2.4 -3.5 2.3 0 2.4 0.2 1.3 3.5 -0.6 1.9 -1.6 3.5 -2.4 3.5 -0.8 0 -1.3 -1.3 -1.3 -3.5z"/>
  <path d="M172 291.6 c0 -5.2 1.2 -8.6 3.1 -8.6 2.2 0 2.3 0.6 0.8 6.6 -1.2 4.7 -3.9 6.1 -3.9 2z"/>
  <path d="M176.2 278.3 c0.3 -3.6 0.5 -3.8 4.2 -4.1 l4 -0.3 -3.5 3.9 c-1.9 2.2 -3.8 4.1 -4.2 4.1 -0.5 0.1 -0.7 -1.6 -0.5 -3.6z"/>
  <path d="M194 266.4 c0 -2.1 0.5 -2.4 3.5 -2.4 2.2 0 3.5 0.5 3.5 1.3 0 0.8 -1.6 1.8 -3.5 2.4 -3.3 1.1 -3.5 1 -3.5 -1.3z"/>
  <path d="M103.5 184.9 c-2.7 -1.1 -5.6 -2.7 -6.4 -3.4 -1.3 -1.2 -1.1 -1.5 0.9 -2.3 1.9 -0.7 2 -1 0.7 -1.5 -1 -0.4 -1.7 -1.8 -1.7 -3.5 0 -1.5 -0.5 -3.3 -1 -3.8 -1.6 -1.6 0.8 -11.4 2.7 -11.4 1.3 0 1.5 0.9 1 4.8 -0.4 4.3 -0.2 4.9 2.3 7 3.1 2.4 10.1 5.2 13.1 5.2 2.2 0 2.6 4 0.9 8.4 -1.2 3.3 -5.2 3.4 -12.5 0.5z"/>
  <path d="M99 152.6 c0 -4.5 11.1 -29.6 13.1 -29.6 1 0 1.2 5 0.3 7.4 -0.3 0.9 -1.2 1.6 -2 1.6 -0.9 0 -1.4 1.1 -1.4 2.9 0 1.6 -0.7 3.6 -1.5 4.5 -0.8 0.8 -1.5 2 -1.5 2.7 0 0.7 -0.8 3.6 -1.7 6.6 -1.2 3.8 -2.2 5.3 -3.5 5.3 -1 0 -1.8 -0.6 -1.8 -1.4z"/>
  <path d="M116 117 c1.2 -1.7 3.7 -4.3 5.6 -5.8 1.9 -1.5 7.4 -7.4 12.2 -13.1 8 -9.6 18.1 -19.1 20.3 -19.1 0.5 0 0.9 1.1 0.9 2.5 0 2 -0.5 2.5 -2.5 2.5 -1.7 0 -2.5 0.5 -2.5 1.8 0 2.8 -7.1 9.2 -10.3 9.2 -2.4 0 -2.7 0.4 -2.7 3.5 0 3.1 -0.3 3.5 -2.5 3.5 -2.1 0 -2.5 0.5 -2.5 3 0 2.7 -0.3 3 -3 3 -2.7 0 -3 0.3 -3 3 0 2.5 -0.4 3 -2.4 3 -1.9 0 -2.5 0.6 -2.8 2.8 -0.2 2.3 -0.8 2.8 -3.7 3 l-3.3 0.3 2.2 -3.1z"/>
  <path d="M309 108.5 c0 -3.9 1.4 -4.6 3 -1.6 1.6 3.1 1.2 5.1 -1 5.1 -1.6 0 -2 -0.7 -2 -3.5z"/>
  <path d="M236 100.5 c0 -3.4 0.1 -3.5 3.6 -3.5 3.1 0 3.5 0.2 2.4 1.5 -1.1 1.3 -0.8 1.5 1.9 1.5 2.4 0 3.1 0.4 3.1 2 0 1.8 -0.7 2 -5.5 2 l-5.5 0 0 -3.5z"/>
  <path d="M249 101.6 c0 -0.7 0.8 -1.6 1.8 -1.9 0.9 -0.2 2.5 -0.8 3.5 -1.2 1.4 -0.6 1.7 -0.2 1.7 1.9 0 2.3 -0.4 2.6 -3.5 2.6 -2.3 0 -3.5 -0.5 -3.5 -1.4z"/>
  <path d="M303 100 c0 -1.1 -0.7 -2 -1.5 -2 -1 0 -1.5 -1 -1.5 -2.9 0 -2.5 -0.4 -3 -2.7 -3.3 -2.5 -0.3 -2.8 -0.8 -3.1 -4.3 l-0.2 -4 4.5 5 c2.4 2.8 5.8 6.9 7.5 9.3 l3.1 4.2 -3 0 c-2.4 0 -3.1 -0.4 -3.1 -2z"/>
  <path d="M217 92.8 c-5 -7.5 -10.5 -11.1 -18 -11.6 -3.6 -0.3 -6 0 -6 0.6 0 1.9 -10.3 2.4 -16.5 0.7 -3.3 -0.8 -8.8 -1.5 -12.2 -1.5 -4.8 0 -6.3 -0.3 -6.3 -1.5 0 -0.8 1.4 -1.7 3.6 -2.1 3.5 -0.6 16.8 1 21.2 2.7 2.3 0.9 11.5 -1.3 13.7 -3.2 0.5 -0.5 2.6 -0.9 4.7 -0.9 2.8 0 3.8 -0.4 3.8 -1.6 0 -3.6 12.4 1.6 16.4 6.9 3.3 4.3 5.6 9.9 5.6 13.7 0 2.7 -0.3 3 -3.3 3 -2.9 0 -3.7 -0.7 -6.7 -5.2z"/>
  <path d="M257 97.2 c0 -0.5 1.1 -1.4 2.4 -2.2 1.4 -0.7 2.2 -1.8 1.9 -2.6 -0.3 -0.8 0.1 -1.4 1.1 -1.4 1.2 0 1.6 1 1.6 3.5 0 3.3 -0.2 3.5 -3.5 3.5 -1.9 0 -3.5 -0.4 -3.5 -0.8z"/>
  <path d="M249 81.5 c0 -3.3 0.2 -3.5 3.5 -3.5 3.3 0 3.5 0.2 3.5 3.5 0 3.6 -1.3 4.7 -2.4 2 -0.3 -0.8 -1 -1.5 -1.7 -1.5 -0.6 0 -0.9 0.7 -0.5 1.5 0.3 0.9 0 1.5 -0.9 1.5 -1 0 -1.5 -1.1 -1.5 -3.5z"/>
  <path d="M282.2 77.8 c-0.7 -0.7 -1.2 -2.5 -1.2 -4 0 -2.8 0.1 -2.8 2.4 -1.3 1.4 0.9 3.2 2.7 4.1 4.1 1.5 2.3 1.5 2.4 -1.3 2.4 -1.5 0 -3.3 -0.5 -4 -1.2z"/>
  <path d="M248.2 69 c-0.6 -1.1 -1.2 -3.8 -1.2 -6 0 -3.4 0.4 -4.2 2.6 -5 2.8 -1.1 11.7 -1.3 15.2 -0.3 1.7 0.4 2.2 1.1 1.9 2.4 -0.3 1.2 0 1.9 0.8 1.9 0.8 0 1.8 0.7 2.3 1.7 0.5 0.9 2.9 2.3 5.2 3.2 5.6 2.1 6.4 4.1 1.6 4.1 -2.5 0 -3.6 -0.4 -3.6 -1.5 0 -1.1 -1.1 -1.5 -3.9 -1.5 -2.2 0 -5.1 -0.4 -6.6 -1 -2.2 -0.8 -3 -0.6 -5.1 1.5 -3 3.1 -7.4 3.3 -9.2 0.5z"/>
 </g>
 <g fill="#dff0fe">
  <path d="M31 343.5 c0 -2.4 0.5 -3.5 1.4 -3.5 0.8 0 1.7 -0.6 1.9 -1.2 0.3 -0.7 0.6 0 0.6 1.5 l0.1 2.9 5 -3.7 5 -3.7 0 3.1 c0 2.4 -0.4 3.1 -2 3.1 -1.1 0 -2 0.7 -2 1.5 0 0.8 -0.7 1.5 -1.5 1.5 -0.8 0 -1.5 0.5 -1.5 1 0 0.6 -1.6 1 -3.5 1 -3.3 0 -3.5 -0.2 -3.5 -3.5z"/>
  <path d="M56.1 324.3 c3.4 -4.6 12.1 -15.3 12.5 -15.3 0.2 0 0.4 1.6 0.4 3.5 0 2.4 -0.5 3.5 -1.5 3.5 -0.8 0 -1.5 0.9 -1.5 2 0 1.3 -0.7 2 -1.9 2 -1.4 0 -2.1 0.8 -2.3 2.8 -0.2 2.3 -0.8 2.8 -3.7 3 -3.1 0.3 -3.2 0.2 -2 -1.5z"/>
  <path d="M113 181.5 c0.8 -2.1 0.7 -2.5 -1 -2.5 -1.1 0 -2 -0.4 -2 -1 0 -0.5 1.6 -1 3.5 -1 3.3 0 3.5 0.2 3.5 3.5 0 3.1 -0.3 3.5 -2.5 3.5 -2.2 0 -2.4 -0.3 -1.5 -2.5z"/>
  <path d="M96.2 170.4 c-0.6 -1.1 -0.3 -4.5 0.9 -9.8 2.6 -11.7 3 -12.6 4.6 -12.6 1.8 0 1.5 3.1 -1.3 15.8 -1.9 8.4 -2.6 9.5 -4.2 6.6z"/>
  <path d="M103.6 139.3 c0.9 -2.1 1.8 -4.5 2.1 -5.3 2.2 -5.7 9.5 -16 16 -22.7 4.3 -4.3 9.9 -10.3 12.6 -13.3 l4.7 -5.5 -0.2 4 c-0.3 3.3 -0.7 4.1 -2.5 4.3 -1.5 0.2 -2.3 1.1 -2.5 3 -0.2 1.9 -1 2.8 -2.5 3 -1.7 0.3 -2.3 1 -2.3 2.8 0 1.7 -0.5 2.4 -2 2.4 -1.1 0 -2 0.6 -2 1.3 0 1.9 -3.3 4.7 -5.3 4.7 -1.2 0 -1.7 0.8 -1.7 2.5 0 1.4 -0.7 2.8 -1.5 3.1 -0.8 0.4 -1.5 1.2 -1.5 2 0 0.8 -0.9 1.4 -2 1.4 -1.5 0 -2 0.7 -2 2.9 0 3.9 -0.9 6.1 -2.6 6.1 -0.9 0 -1.4 1.2 -1.4 3.5 0 3.1 -0.3 3.5 -2.5 3.5 l-2.5 0 1.6 -3.7z"/>
  <path d="M304 122.7 c0 -1.9 0.3 -3.7 0.8 -3.9 0.4 -0.1 1.5 -2 2.4 -4 1.4 -3 1.5 -4.2 0.5 -6.7 -0.6 -1.7 -1.5 -3.1 -1.9 -3.1 -0.4 0 -0.8 -0.9 -0.8 -2 0 -1.1 -0.7 -2 -1.5 -2 -0.8 0 -1.5 -0.8 -1.5 -1.9 0 -1 -0.9 -2.1 -2 -2.4 -1.4 -0.4 -2 -1.4 -2 -3.5 0 -2.6 -0.4 -3.1 -2.7 -3.4 -2.5 -0.3 -2.8 -0.8 -3.1 -4.3 l-0.2 -4 4.1 4.5 c7.2 7.9 15.7 19.8 16.4 23 0.8 3.5 -2.9 12.3 -6.5 15.5 -2 1.8 -2 1.7 -2 -1.8z"/>
  <path d="M241 102.6 c0 -1.6 3 -2.6 8.3 -2.6 3 0 3.7 0.4 3.7 2 0 1.8 -0.7 2 -6 2 -4.4 0 -6 -0.4 -6 -1.4z"/>
  <path d="M254 99.2 c0 -0.8 5.2 -4.2 6.4 -4.2 0.3 0 0.6 1.1 0.6 2.5 0 2.2 -0.4 2.5 -3.5 2.5 -1.9 0 -3.5 -0.4 -3.5 -0.8z"/>
  <path d="M220 96.5 c0 -1.6 -0.6 -2.5 -1.5 -2.5 -0.8 0 -1.5 -0.4 -1.5 -0.9 0 -1.9 -8.6 -9.3 -12.2 -10.4 -2.6 -0.8 -3.8 -1.8 -3.8 -3.1 0 -1.6 0.5 -1.8 3.6 -1.3 6.5 1.1 11.9 5.6 18.1 15.3 1.1 1.8 1.1 1.8 0.8 -0.3 -1.1 -6.8 -11 -16.3 -17 -16.3 -0.8 0 -1.5 -0.4 -1.5 -1 0 -0.5 0.6 -1 1.4 -1 2.3 0 7.6 2.2 7.6 3.1 0 0.5 0.6 0.9 1.3 0.9 1.6 0 6.7 5.2 6.7 6.8 0 0.7 0.5 1.2 1 1.2 0.6 0 1 1.1 1 2.5 0 1.6 0.6 2.5 1.5 2.5 1 0 1.5 1.1 1.5 3.5 0 3.3 -0.2 3.5 -3.5 3.5 -3.1 0 -3.5 -0.3 -3.5 -2.5z"/>
  <path d="M150 82.1 c0 -1.1 6.2 -4.1 8.4 -4.1 2.5 0 1.9 3.7 -0.6 4.4 -3.4 0.9 -7.8 0.7 -7.8 -0.3z"/>
  <path d="M173.5 82 c-1.6 -0.4 -5.1 -0.8 -7.7 -0.9 -3.4 -0.1 -4.8 -0.5 -4.8 -1.5 0 -1.8 3.9 -2.7 8.2 -2 11.5 2 13.8 2.6 13.8 4 0 1.5 -4.3 1.7 -9.5 0.4z"/>
  <path d="M275 69.6 c0 -1.9 0.4 -2.3 1.9 -1.9 1.1 0.3 2.7 1.4 3.7 2.4 1.7 1.8 1.6 1.9 -1.9 1.9 -3.2 0 -3.7 -0.3 -3.7 -2.4z"/>
  <path d="M267 68 c0 -0.6 -2.8 -1 -6.5 -1 -6.5 0 -8.1 -1 -4.6 -3 2.7 -1.4 5.2 -1.3 12.1 0.7 6.8 1.8 8.2 4.3 2.5 4.3 -1.9 0 -3.5 -0.4 -3.5 -1z"/>
  <path d="M236.5 47.3 c-3.3 -3.5 -8.1 -7.7 -10.7 -9.1 -4.4 -2.5 -4.8 -3 -4.8 -6.4 0 -2.7 0.6 -4 1.9 -4.8 6.4 -3.4 16.3 1.4 24.2 11.6 5.9 7.7 5.2 15.5 -1.4 15.3 -2.6 -0.1 -4.3 -1.4 -9.2 -6.6z"/>
 </g>
 <g fill="#fefec0">
  <path d="M51.3 418.5 c-1.1 -3.3 -1 -3.5 1.3 -3.5 2.1 0 2.4 0.5 2.4 3.5 0 2.2 -0.5 3.5 -1.3 3.5 -0.8 0 -1.8 -1.6 -2.4 -3.5z"/>
  <path d="M33 408 c0 -1.6 0.7 -2 3.5 -2 4 0 4.9 2.4 1.3 3.4 -3.8 1 -4.8 0.7 -4.8 -1.4z"/>
  <path d="M151.1 346.3 l-0.1 -3.3 6 0 c4.4 0 6 0.4 6 1.4 0 1.5 -3 2.6 -7.7 2.6 -1.7 0 -3.4 0.6 -3.6 1.3 -0.3 0.6 -0.6 -0.3 -0.6 -2z"/>
  <path d="M167 344 c0 -1.6 0.7 -2 3 -2 2.3 0 3 0.4 3 2 0 1.6 -0.7 2 -3 2 -2.3 0 -3 -0.4 -3 -2z"/>
  <path d="M169 325.5 c0 -4 0.4 -5.5 1.4 -5.5 1.6 0 2.6 3 2.6 7.8 0 2.5 -0.4 3.2 -2 3.2 -1.8 0 -2 -0.7 -2 -5.5z"/>
  <path d="M168 314.5 c0 -4.9 2.3 -6.4 3.4 -2.2 1.2 4.4 0.7 6.7 -1.4 6.7 -1.7 0 -2 -0.7 -2 -4.5z"/>
  <path d="M52 300.4 c-17.4 -10.3 -17 -10.2 -17 -7.5 0 1.4 -0.5 1.9 -1.5 1.5 -0.9 -0.4 -1.5 -1.9 -1.5 -4 0 -3.2 0.2 -3.4 3.4 -3.4 1.9 0 4.1 0.6 4.8 1.4 0.8 0.7 2.4 1.7 3.6 2 1.2 0.4 2.2 1.1 2.2 1.6 0 0.4 1.1 1.1 2.5 1.4 1.4 0.4 2.5 1.3 2.5 2.1 0 0.9 1 1.5 2.4 1.5 1.4 0 3.1 0.6 3.8 1.4 0.8 0.7 2.4 1.7 3.6 2 1.2 0.4 2.2 1.1 2.2 1.6 0 0.4 1.1 1.1 2.5 1.4 1.8 0.5 2.5 1.3 2.5 3.1 0 1.4 -0.3 2.5 -0.7 2.5 -0.5 0 -7.3 -3.9 -15.3 -8.6z"/>
  <path d="M347.6 238.7 c-6.1 -17.8 -15.4 -41.5 -19.7 -49.8 -5.5 -11.1 -6 -11.6 -14.2 -12.9 -9.1 -1.6 -37.5 -0.8 -50.2 1.4 -4.9 0.9 -10.9 1.6 -13.2 1.6 -4.2 0 -4.3 -0.1 -4.3 -3.3 0 -3.3 0.1 -3.4 11.3 -8 32.1 -13.4 50.1 -17.4 82.3 -18.4 l19.2 -0.6 0.8 9.4 c0.9 11.2 0.9 85.1 -0.1 90.9 -0.6 3.7 -0.9 4 -3.8 4 l-3.2 0 -4.9 -14.3z"/>
  <path d="M86 192 c0 -0.5 -0.7 -1 -1.5 -1 -0.9 0 -1.5 -0.9 -1.5 -2.5 0 -2.9 0.8 -3.1 3.6 -1 2.5 1.9 3.4 1.9 3.4 0 0 -0.8 0.7 -1.5 1.5 -1.5 1 0 1.5 1.1 1.5 3.5 0 3.3 -0.2 3.5 -3.5 3.5 -1.9 0 -3.5 -0.4 -3.5 -1z"/>
 </g>
 <g fill="#cfe7d2">
  <path d="M455.8 443.3 c-1 -0.2 -1.8 -1.1 -1.8 -1.9 0 -1 1.4 -1.4 5.5 -1.4 4.8 0 5.5 0.2 5.5 2 0 1.7 -0.6 2 -3.7 1.9 -2.1 -0.1 -4.6 -0.3 -5.5 -0.6z"/>
  <path d="M442.8 442.3 c-1 -0.2 -1.8 -1.1 -1.8 -1.9 0 -1 1.4 -1.4 5.5 -1.4 4.8 0 5.5 0.2 5.5 2 0 1.7 -0.6 2 -3.7 1.9 -2.1 -0.1 -4.6 -0.3 -5.5 -0.6z"/>
  <path d="M429.8 441.3 c-1 -0.2 -1.8 -1.1 -1.8 -1.9 0 -1.1 1.5 -1.4 6 -1.4 5.3 0 6 0.2 6 2 0 1.7 -0.6 2 -4.2 1.9 -2.4 -0.1 -5.1 -0.3 -6 -0.6z"/>
  <path d="M417.8 440.3 c-1 -0.2 -1.8 -1.1 -1.8 -1.9 0 -1 1.4 -1.4 5.5 -1.4 4.8 0 5.5 0.2 5.5 2 0 1.7 -0.6 2 -3.7 1.9 -2.1 -0.1 -4.6 -0.3 -5.5 -0.6z"/>
  <path d="M404.8 439.3 c-1 -0.2 -1.8 -1.1 -1.8 -1.9 0 -1 1.4 -1.4 5.5 -1.4 4.8 0 5.5 0.2 5.5 2 0 1.7 -0.6 2 -3.7 1.9 -2.1 -0.1 -4.6 -0.3 -5.5 -0.6z"/>
  <path d="M391.8 438.3 c-1 -0.2 -1.8 -1.1 -1.8 -1.9 0 -1 1.4 -1.4 5.5 -1.4 4.8 0 5.5 0.2 5.5 2 0 1.7 -0.6 2 -3.7 1.9 -2.1 -0.1 -4.6 -0.3 -5.5 -0.6z"/>
  <path d="M378.8 437.3 c-1 -0.2 -1.8 -1.1 -1.8 -1.9 0 -1 1.4 -1.4 5.5 -1.4 4.8 0 5.5 0.2 5.5 2 0 1.7 -0.6 2 -3.7 1.9 -2.1 -0.1 -4.6 -0.3 -5.5 -0.6z"/>
  <path d="M365.8 436.3 c-1 -0.2 -1.8 -1.1 -1.8 -1.9 0 -1 1.4 -1.4 5.5 -1.4 4.8 0 5.5 0.2 5.5 2 0 1.7 -0.6 2 -3.7 1.9 -2.1 -0.1 -4.6 -0.3 -5.5 -0.6z"/>
  <path d="M352.8 435.3 c-1 -0.2 -1.8 -1.1 -1.8 -1.9 0 -1.1 1.5 -1.4 6 -1.4 5.3 0 6 0.2 6 2 0 1.7 -0.6 2 -4.2 1.9 -2.4 -0.1 -5.1 -0.3 -6 -0.6z"/>
  <path d="M340.8 434.3 c-1 -0.2 -1.8 -1.1 -1.8 -1.9 0 -1 1.4 -1.4 5.5 -1.4 4.8 0 5.5 0.2 5.5 2 0 1.7 -0.6 2 -3.7 1.9 -2.1 -0.1 -4.6 -0.3 -5.5 -0.6z"/>
  <path d="M327.8 433.3 c-1 -0.2 -1.8 -1.1 -1.8 -1.9 0 -1 1.4 -1.4 5.5 -1.4 4.8 0 5.5 0.2 5.5 2 0 1.7 -0.6 2 -3.7 1.9 -2.1 -0.1 -4.6 -0.3 -5.5 -0.6z"/>
  <path d="M314.8 432.3 c-1 -0.2 -1.8 -1.1 -1.8 -1.9 0 -1 1.4 -1.4 5.5 -1.4 4.8 0 5.5 0.2 5.5 2 0 1.7 -0.6 2 -3.7 1.9 -2.1 -0.1 -4.6 -0.3 -5.5 -0.6z"/>
  <path d="M301.8 431.3 c-1 -0.2 -1.8 -1.1 -1.8 -1.9 0 -1 1.4 -1.4 5.5 -1.4 4.8 0 5.5 0.2 5.5 2 0 1.7 -0.6 2 -3.7 1.9 -2.1 -0.1 -4.6 -0.3 -5.5 -0.6z"/>
  <path d="M288.8 430.3 c-1 -0.2 -1.8 -1.1 -1.8 -1.9 0 -1 1.4 -1.4 5.5 -1.4 4.8 0 5.5 0.2 5.5 2 0 1.7 -0.6 2 -3.7 1.9 -2.1 -0.1 -4.6 -0.3 -5.5 -0.6z"/>
  <path d="M275.8 429.3 c-1 -0.2 -1.8 -1.1 -1.8 -1.9 0 -1.1 1.5 -1.4 6 -1.4 5.3 0 6 0.2 6 2 0 1.7 -0.6 2 -4.2 1.9 -2.4 -0.1 -5.1 -0.3 -6 -0.6z"/>
  <path d="M263.8 428.3 c-1 -0.2 -1.8 -1.1 -1.8 -1.9 0 -1 1.4 -1.4 5.5 -1.4 4.8 0 5.5 0.2 5.5 2 0 1.7 -0.6 2 -3.7 1.9 -2.1 -0.1 -4.6 -0.3 -5.5 -0.6z"/>
  <path d="M250.8 427.3 c-1 -0.2 -1.8 -1.1 -1.8 -1.9 0 -1 1.4 -1.4 5.5 -1.4 4.8 0 5.5 0.2 5.5 2 0 1.7 -0.6 2 -3.7 1.9 -2.1 -0.1 -4.6 -0.3 -5.5 -0.6z"/>
  <path d="M237.8 426.3 c-1 -0.2 -1.8 -1.1 -1.8 -1.9 0 -1 1.4 -1.4 5.5 -1.4 4.8 0 5.5 0.2 5.5 2 0 1.7 -0.6 2 -3.7 1.9 -2.1 -0.1 -4.6 -0.3 -5.5 -0.6z"/>
  <path d="M224.8 425.3 c-3.7 -1 -1.6 -2.3 3.7 -2.3 4.2 0 5.5 0.3 5.5 1.5 0 1.5 -5 1.9 -9.2 0.8z"/>
  <path d="M429 424.5 c0 -0.8 0.7 -1.5 1.5 -1.5 0.8 0 1.7 -1.1 2.1 -2.5 1 -4.1 3.4 -3.1 3.4 1.5 0 3.9 -0.1 4 -3.5 4 -2.4 0 -3.5 -0.5 -3.5 -1.5z"/>
  <path d="M211.5 424 c-1.4 -0.6 -0.4 -0.9 3.8 -0.9 3.2 -0.1 5.7 0.3 5.7 0.9 0 1.2 -6.7 1.2 -9.5 0z"/>
  <path d="M202.3 423.3 c1.5 -0.2 3.7 -0.2 5 0 1.2 0.2 0 0.4 -2.8 0.4 -2.7 0 -3.8 -0.2 -2.2 -0.4z"/>
  <path d="M126 420.5 c0 -0.8 -0.4 -1.5 -1 -1.5 -0.5 0 -1 -0.9 -1 -2 0 -1.4 -0.7 -2 -2.1 -2 -1.2 0 -2.3 -0.8 -2.6 -2 -0.3 -1.1 -1.4 -2 -2.4 -2 -1.1 0 -1.9 -0.7 -1.9 -1.5 0 -0.9 -0.9 -1.5 -2.5 -1.5 -2 0 -2.5 -0.5 -2.5 -2.5 0 -1.4 0.3 -2.5 0.8 -2.5 0.4 0 3.2 1.6 6.2 3.6 10.1 6.5 16.4 15.4 11 15.4 -1.1 0 -2 -0.7 -2 -1.5z"/>
  <path d="M51.6 418.1 c-0.3 -0.4 -1 -2 -1.5 -3.5 -1 -2.4 -0.8 -2.6 1.4 -2.6 2.2 0 2.5 0.4 2.5 3.5 0 3.3 -1.2 4.6 -2.4 2.6z"/>
  <path d="M448.2 418.3 c0.9 -0.2 2 -1.7 2.3 -3.4 0.9 -4.2 3.5 -3.8 3.5 0.6 0 3.4 -0.1 3.5 -3.7 3.4 -2.1 -0.1 -3 -0.3 -2.1 -0.6z"/>
  <path d="M188 414.7 c0 -0.6 0.5 -2.8 1 -4.7 0.6 -1.9 1.3 -5.1 1.6 -7 1 -7.3 1.6 -9 3 -9 1.8 0 1.8 2.5 -0.2 13.3 -1.4 7.3 -1.9 8.7 -3.5 8.7 -1 0 -1.9 -0.6 -1.9 -1.3z"/>
  <path d="M36 407 c0 -1.6 0.7 -2 3.5 -2 3.9 0 4.6 1.4 1.6 3 -3.1 1.6 -5.1 1.2 -5.1 -1z"/>
  <path d="M21 404.6 c0 -2.5 2.1 -3.6 7.3 -3.6 2.3 0 2.7 0.4 2.7 2.8 0 1.8 -0.3 2.3 -0.9 1.4 -0.7 -1.1 -1.5 -1.1 -4.6 0.2 -4.7 2 -4.5 2 -4.5 -0.8z"/>
  <path d="M102 401.5 c0 -2.4 0.1 -2.5 3.2 -1.2 4.6 1.9 4.8 3.7 0.4 3.7 -3.2 0 -3.6 -0.3 -3.6 -2.5z"/>
  <path d="M449.7 400.5 c-0.9 -1.3 -4.2 -3.9 -7.2 -5.7 -3 -1.8 -5.5 -3.7 -5.5 -4.3 0 -2.5 13.1 -91.5 14.1 -95.7 0.7 -2.9 1.7 -4.8 2.5 -4.8 0.8 0 1.4 0.7 1.4 1.6 0 1.2 -11.5 81.4 -13.6 94.5 -0.5 3.3 -0.3 3.7 2 4.3 1.4 0.3 2.6 1.1 2.6 1.6 0 0.6 0.7 1 1.5 1 0.8 0 1.5 0.7 1.5 1.5 0 0.8 0.9 1.5 2 1.5 1.6 0 2 0.7 2 3.5 0 4.1 -0.8 4.4 -3.3 1z"/>
  <path d="M94 397.5 c0 -3.3 0.2 -3.5 3.5 -3.5 2.4 0 3.5 0.5 3.5 1.5 0 0.8 -0.8 1.5 -1.7 1.5 -1.7 0.1 -1.7 0.1 0 1.1 2.8 1.6 2 2.9 -1.8 2.9 -3.3 0 -3.5 -0.2 -3.5 -3.5z"/>
  <path d="M102 389.5 c0 -2.8 0.4 -3.5 2 -3.5 2.1 0 2.4 1 1.4 4.8 -1 3.6 -3.4 2.7 -3.4 -1.3z"/>
  <path d="M108 379.1 c0 -2.9 0.2 -3.1 3.5 -3.1 3.1 0 3.5 -0.3 3.5 -2.5 0 -2.2 0.4 -2.5 3.5 -2.5 4.5 0 4.4 1.1 -0.2 3.8 -2.1 1.2 -5.3 3.4 -7 4.8 l-3.3 2.7 0 -3.2z"/>
  <path d="M20 369 c0 -6.3 0.2 -7 2 -7 1.8 0 2 0.7 2 7 0 6.3 -0.2 7 -2 7 -1.8 0 -2 -0.7 -2 -7z"/>
  <path d="M218.6 368.8 c-1.1 -4.3 -0.7 -8.6 1 -9.2 2.9 -1.1 4.4 -0.6 4.4 1.4 0 1.1 -0.4 2 -0.9 2 -0.6 0 -1.1 1.7 -1.3 3.7 -0.3 4.2 -2.3 5.5 -3.2 2.1z"/>
  <path d="M398.8 370.3 c-1 -0.2 -1.8 -0.9 -1.8 -1.4 0 -0.5 -0.9 -0.9 -2 -0.9 -1.1 0 -2 -0.4 -2 -1 0 -0.5 -0.7 -1 -1.5 -1 -0.9 0 -1.5 -0.9 -1.5 -2.5 0 -2.1 -0.5 -2.5 -3 -2.5 -2.7 0 -3 -0.3 -3 -3 0 -2.5 -0.4 -3 -2.5 -3 -2.2 0 -2.5 -0.4 -2.5 -3.7 l0 -3.8 2.3 2.9 c2.3 3 9.4 10.3 11.8 12.1 1.9 1.5 9.2 4.9 10.4 5 0.5 0 1.1 0.8 1.3 1.8 0.4 1.7 -1.9 2.1 -6 1z"/>
  <path d="M132 364.5 c0 -2.2 0.4 -2.5 3.5 -2.5 3.1 0 3.5 -0.3 3.5 -2.5 0 -1.8 0.5 -2.5 2 -2.5 1.5 0 2 -0.7 2 -2.5 0 -2 0.5 -2.5 2.5 -2.5 2.2 0 2.5 -0.4 2.5 -3.5 0 -3.4 0.2 -3.5 3.6 -3.5 l3.6 0 -3.6 3.7 c-2 2.1 -3.6 4 -3.6 4.4 0 0.3 -0.9 1.7 -2.1 3 -1.1 1.3 -2.4 2.9 -2.7 3.5 -0.9 1.4 -7.3 6 -9.4 6.7 -1.4 0.5 -1.8 0.1 -1.8 -1.8z"/>
  <path d="M225 359.6 c0 -1.3 2.8 -2.6 5.8 -2.6 0.6 0 1.2 0.9 1.2 2 0 1.6 -0.7 2 -3.5 2 -2.3 0 -3.5 -0.5 -3.5 -1.4z"/>
  <path d="M234 357.2 c0 -0.5 3.6 -2.6 8 -4.8 l8 -4.1 0 2.7 c0 2.3 -0.8 3.1 -4.9 4.9 -5 2.1 -11.1 2.8 -11.1 1.3z"/>
  <path d="M462.9 296.3 c-0.2 -54.5 -0.2 -55.5 -1.7 -45 -1.3 9.1 -1.8 10.7 -3.4 10.7 -1.2 0 -1.8 -0.7 -1.8 -2.2 0.1 -1.3 2.3 -16.9 4.9 -34.8 l4.9 -32.5 0.1 12.5 c0 6.9 -0.6 16.8 -1.4 22 -1.8 11.6 -1.8 11 -0.1 11 0.7 0 1.6 1 2 2.3 0.3 1.2 0.6 26.8 0.6 57 0 54 0 54.7 -2 54.7 -2 0 -2 -0.7 -2.1 -55.7z"/>
  <path d="M31 316.5 l0 -29.5 3.5 0 c2.9 0 3.5 0.4 3.5 2.1 0 1.4 -0.5 1.9 -1.5 1.6 -1.2 -0.5 -1.5 3.1 -1.7 26.3 -0.2 17 0 26.6 0.7 26 1.5 -1.6 2.5 -1.2 2.5 1 0 1.6 -0.7 2 -3.5 2 l-3.5 0 0 -29.5z"/>
  <path d="M249.3 343.6 c-1.3 -1.3 -4.2 -2.8 -6.5 -3.5 -6.5 -1.9 -9.3 -5.1 -4.7 -5.1 3.1 0 9.9 2.2 9.9 3.2 0 0.4 0.9 0.8 2 0.8 1.6 0 2 0.7 2 3.5 0 1.9 -0.1 3.5 -0.2 3.4 -0.2 -0.1 -1.3 -1.1 -2.5 -2.3z"/>
  <path d="M19.6 337.8 c-0.3 -1.3 -0.6 -6.9 -0.6 -12.5 0 -9.6 0.1 -10.3 2 -10.3 1.9 0 2 0.7 2 12.5 0 10 -0.3 12.5 -1.4 12.5 -0.7 0 -1.6 -1 -2 -2.2z"/>
  <path d="M398 334.2 c0 -1.5 2.1 -2.1 14.3 -4 7.8 -1.2 15 -2.2 16 -2.2 1.9 0 2.4 3 0.5 3.1 -0.7 0 -2 0.2 -2.8 0.4 -3.1 0.6 -19.7 3.4 -23.7 3.9 -3.6 0.5 -4.3 0.3 -4.3 -1.2z"/>
  <path d="M218.5 321.9 c-12.4 -6.9 -14.9 -8.8 -15.1 -10.9 -0.1 -0.8 -0.3 -2.2 -0.4 -3 -0.5 -3.1 0.1 -5 1.5 -5 0.9 0 1.5 0.9 1.5 2.3 0 4.2 1.2 6.7 3.1 6.7 1.1 0 1.9 0.7 1.9 1.5 0 0.8 0.9 1.5 1.9 1.5 3.3 0 5.1 1.1 5.1 3.1 0 1.4 0.7 1.9 3 1.9 4.7 0 10 3 10 5.7 0 1.3 -0.3 2.3 -0.7 2.3 -0.5 0 -5.7 -2.8 -11.8 -6.1z"/>
  <path d="M170 299.6 c0 -5.4 1.2 -8.6 3.2 -8.6 1.8 0 1.9 0.4 1.3 3.7 -1.2 6.6 -4.5 10.2 -4.5 4.9z"/>
  <path d="M201.8 297.3 c-0.6 -2.8 0.2 -5.3 1.8 -5.3 0.9 0 1.4 1.1 1.4 3.5 0 3.7 -2.4 5 -3.2 1.8z"/>
  <path d="M18.6 290.8 c-0.3 -1.3 -0.6 -6.9 -0.6 -12.5 0 -9.6 0.1 -10.3 2 -10.3 1.9 0 2 0.7 2 12.5 0 10 -0.3 12.5 -1.4 12.5 -0.7 0 -1.6 -1 -2 -2.2z"/>
  <path d="M454 284 c0 -0.6 1 -4.9 2.1 -9.5 1.4 -5.5 2.6 -8.5 3.5 -8.5 1.9 0 1.8 3 -0.3 11.8 -1.3 5.7 -2 7.2 -3.5 7.2 -1 0 -1.8 -0.5 -1.8 -1z"/>
  <path d="M175 279.5 c0 -3.2 0.2 -3.5 3 -3.5 2.5 0 3 -0.4 3 -2.5 0 -1.6 0.6 -2.5 1.5 -2.5 0.8 0 1.5 -0.4 1.5 -1 0 -0.5 1.6 -1 3.5 -1 1.9 0 3.5 0.3 3.5 0.8 0 0.4 -2.7 2.4 -6 4.6 -3.7 2.4 -6.2 4.7 -6.6 6.2 -1 3.8 -3.4 3 -3.4 -1.1z"/>
  <path d="M201 268.5 c0 -0.8 -0.9 -1.5 -2 -1.5 -1.3 0 -2 -0.7 -2 -2 0 -1.6 0.7 -2 3.5 -2 3.3 0 3.5 0.2 3.5 3.5 0 2.4 -0.5 3.5 -1.5 3.5 -0.8 0 -1.5 -0.7 -1.5 -1.5z"/>
  <path d="M31 156 c0 -102.3 0 -103 2 -103 2 0 2 0.7 2.1 99.3 0.1 90.7 0.3 98.8 1.7 94 1.7 -6.2 4.2 -7.2 4.2 -1.8 0 1.9 -0.4 3.5 -1 3.5 -0.5 0 -1 1.1 -1 2.4 0 1.3 -0.3 3.8 -0.6 5.5 -0.6 2.7 -1 3.1 -4 3.1 l-3.4 0 0 -103z"/>
  <path d="M17.6 243.8 c-0.3 -1.3 -0.6 -7.1 -0.6 -13 0 -10.1 0.1 -10.8 2 -10.8 1.9 0 2 0.7 2 13 0 10.4 -0.3 13 -1.4 13 -0.7 0 -1.6 -1 -2 -2.2z"/>
  <path d="M40 236.5 c0 -2.5 2.8 -8.5 3.9 -8.5 1.2 0 1.4 4.2 0.5 7.8 -0.7 2.5 -4.4 3.1 -4.4 0.7z"/>
  <path d="M44.5 223 c0.7 -2.1 3.3 -8.4 5.6 -14 3.9 -9.1 4.7 -10.3 8.9 -13 5.7 -3.6 6 -3.7 6 -0.5 0 2.1 -0.5 2.5 -3 2.5 -2.2 0 -3 0.5 -3 1.8 -0.1 2.1 -2.3 5.2 -3.9 5.2 -0.6 0 -1.1 1.5 -1.1 3.4 0 1.9 -0.7 4.1 -1.5 5 -0.8 0.8 -1.5 2.4 -1.5 3.5 0 1.2 -0.4 2.1 -0.9 2.1 -0.5 0 -1.1 1.8 -1.5 4 -0.5 3.4 -1 4 -3.1 4 -2.4 0 -2.4 0 -1 -4z"/>
  <path d="M16.6 196.8 c-0.3 -1.3 -0.6 -7.1 -0.6 -13 0 -10.1 0.1 -10.8 2 -10.8 1.9 0 2 0.7 2 13 0 10.4 -0.3 13 -1.4 13 -0.7 0 -1.6 -1 -2 -2.2z"/>
  <path d="M70 190.9 c0 -1.2 5.1 -3.5 10.3 -4.4 3.2 -0.6 3.7 -0.5 3.7 1.2 0 1.4 -1.2 2.2 -4.5 3.1 -5.6 1.5 -9.5 1.5 -9.5 0.1z"/>
  <path d="M90 185.2 c0 -1 1.7 -2.6 4.3 -4 5.2 -2.7 6.7 -2.8 6.7 -0.2 0 1.6 -0.7 2 -3.5 2 -2.8 0 -3.5 0.4 -3.5 2 0 1.3 -0.7 2 -2 2 -1.2 0 -2 -0.7 -2 -1.8z"/>
  <path d="M102 183 c0 -2.3 2.6 -2.6 5.3 -0.6 2.5 2 2.1 2.6 -1.8 2.6 -2.8 0 -3.5 -0.4 -3.5 -2z"/>
  <path d="M15.6 149.8 c-0.3 -1.3 -0.6 -7.1 -0.6 -13 0 -10.1 0.1 -10.8 2 -10.8 1.9 0 2 0.7 2 13 0 10.4 -0.3 13 -1.4 13 -0.7 0 -1.6 -1 -2 -2.2z"/>
  <path d="M301 128.5 c0 -2.9 0.4 -3.5 2.2 -3.5 2.1 0 2.1 0.1 0.3 2 -1.9 2.1 -1.7 2.2 7.3 0.9 2.4 -0.4 4.2 0.3 4.2 1.5 0 0.9 -1.8 1.5 -5.2 2 -8.8 1 -8.8 1 -8.8 -2.9z"/>
  <path d="M316 128.6 c0 -1.6 2.5 -2.4 5.3 -1.8 3.2 0.8 1.9 3.2 -1.8 3.2 -2.4 0 -3.5 -0.5 -3.5 -1.4z"/>
  <path d="M379 128.1 c0 -1.3 0.6 -1.8 2.4 -1.6 5.5 0.6 6.4 3.5 1.1 3.5 -2.7 0 -3.5 -0.4 -3.5 -1.9z"/>
  <path d="M328 127.6 c0 -1.6 3.2 -2.6 6 -1.9 3.7 1 2.3 3.3 -2 3.3 -2.7 0 -4 -0.4 -4 -1.4z"/>
  <path d="M370 127.6 c0 -1.6 2.5 -2.4 5.3 -1.8 3.2 0.8 1.9 3.2 -1.8 3.2 -2.4 0 -3.5 -0.5 -3.5 -1.4z"/>
  <path d="M350 126.6 c0 -1.6 2.5 -2.4 5.3 -1.8 3.2 0.8 1.9 3.2 -1.8 3.2 -2.4 0 -3.5 -0.5 -3.5 -1.4z"/>
  <path d="M14.6 101.8 c-0.3 -1.3 -0.6 -6.9 -0.6 -12.5 0 -9.6 0.1 -10.3 2 -10.3 1.9 0 2 0.7 2 12.5 0 10 -0.3 12.5 -1.4 12.5 -0.7 0 -1.6 -1 -2 -2.2z"/>
  <path d="M237.2 99.5 c-0.1 -3.4 0 -3.5 3.6 -3.5 l3.7 0.1 -2.8 2.4 -2.8 2.5 2.5 0 c1.4 0 2.6 0.5 2.6 1 0 0.6 -1.5 1 -3.3 1 -3.2 0 -3.4 -0.2 -3.5 -3.5z"/>
  <path d="M220 94 c0 -1.6 0.2 -3 0.5 -3 0.2 0 1.1 1.4 2 3 1.5 2.9 1.5 3 -0.5 3 -1.6 0 -2 -0.7 -2 -3z"/>
  <path d="M224.5 96 c-0.4 -0.6 -0.8 -2.2 -1.1 -3.5 -0.3 -2 0 -2.5 1.6 -2.5 1.6 0 2 0.7 2 3.5 0 3.4 -1.2 4.6 -2.5 2.5z"/>
  <path d="M260.3 94.9 c1.7 -1 1.7 -1.2 0.2 -3.5 -1.5 -2.4 -1.5 -2.4 1.5 -2.4 2.8 0 3 0.3 3 3.5 0 3.3 -0.2 3.5 -3.2 3.5 -2.8 -0.1 -3 -0.2 -1.5 -1.1z"/>
  <path d="M244 91.5 c0 -2.8 0.4 -3.5 2 -3.5 1.7 0 2 -0.7 2 -5 l0 -5 3.5 0 c2.4 0 3.5 0.5 3.5 1.5 0 0.8 0.7 1.5 1.5 1.5 1.1 0 1.5 1.1 1.5 3.7 0 3.5 0 3.6 -2 1.8 -1.1 -1 -2.2 -2.6 -2.5 -3.6 -1 -2.9 -2.4 -1.3 -2 2.1 0.3 2.4 0 3 -1.6 3 -1 0 -1.9 0.5 -1.9 1 0 1.8 -0.2 2.5 -1.1 4.3 -1.6 2.8 -2.9 2 -2.9 -1.8z"/>
  <path d="M216 87.4 c0 -1.4 0.3 -1.4 1.5 -0.4 0.8 0.7 1.5 1.4 1.5 1.6 0 0.2 -0.7 0.4 -1.5 0.4 -0.8 0 -1.5 -0.7 -1.5 -1.6z"/>
  <path d="M219.8 85.8 l-2.7 -3.3 2.5 -0.3 c3.3 -0.4 3.6 -0.1 3.2 3.8 l-0.3 3.2 -2.7 -3.4z"/>
  <path d="M260 64 l-2.5 -0.8 2.5 0 c1.4 0 3.6 0.4 5 0.8 l2.5 0.8 -2.5 0 c-1.4 0 -3.6 -0.4 -5 -0.8z"/>
  <path d="M264.7 61.4 c-0.5 -0.6 -3.1 -1.2 -5.4 -1.3 -2.5 -0.2 -1.3 -3.1 1.2 -3.1 2 0 2.5 -0.5 2.5 -2.5 0 -3 1.5 -3.3 3 -0.6 1.8 3.5 0.8 9.6 -1.3 7.5z"/>
  <path d="M13.6 54.8 c-0.3 -1.3 -0.6 -6.9 -0.6 -12.5 0 -9.6 0.1 -10.3 2 -10.3 1.9 0 2 0.7 2 12.5 0 10 -0.3 12.5 -1.4 12.5 -0.7 0 -1.6 -1 -2 -2.2z"/>
  <path d="M210.4 52.9 c1.3 -1.9 1.2 -2.5 -1.4 -6.6 -1.6 -2.5 -3.2 -5.8 -3.5 -7.4 -0.6 -2.6 -1.1 -2.9 -4.6 -2.9 -3.2 0 -3.9 -0.3 -3.9 -2 0 -1.7 0.7 -2 5 -2 4.9 0 5 0.1 5 3 0 1.8 0.5 3 1.3 3 1.7 0 3.7 4.2 3.7 7.5 0 1.6 0.6 2.5 1.5 2.5 1 0 1.5 1.1 1.5 3.5 0 3.2 -0.2 3.5 -3.1 3.5 -2.9 0 -2.9 -0.1 -1.5 -2.1z"/>
  <path d="M257 47 c0 -1.3 -0.7 -2 -2 -2 -1.1 0 -2 -0.7 -2 -1.5 0 -0.9 -0.9 -1.5 -2.5 -1.5 -1.8 0 -2.5 -0.5 -2.5 -2 0 -1.1 -0.7 -2 -1.5 -2 -1 0 -1.5 -1.1 -1.5 -3.5 0 -3.3 0.2 -3.5 3.5 -3.5 2.4 0 3.5 0.5 3.5 1.5 0 0.8 -0.7 1.5 -1.5 1.5 -2.5 0 -1.7 1.8 2.2 4.7 4.4 3.3 10.3 8.9 10.3 9.7 0 0.3 -1.3 0.6 -3 0.6 -2.3 0 -3 -0.4 -3 -2z"/>
  <path d="M32 41.5 c0 -3.4 0.1 -3.5 4 -3.5 4.6 0 5.6 2.4 1.5 3.4 -1.4 0.4 -2.5 1.3 -2.5 2.1 0 0.8 -0.7 1.5 -1.5 1.5 -1 0 -1.5 -1.1 -1.5 -3.5z"/>
  <path d="M47 39 c0 -1.9 0.7 -2 11.5 -2 9.1 0 11.5 0.3 11.5 1.4 0 2 -3.2 2.6 -13.7 2.6 -8.6 0 -9.3 -0.1 -9.3 -2z"/>
  <path d="M77 38 c0 -1.9 0.7 -2 11.5 -2 9.1 0 11.5 0.3 11.5 1.4 0 2 -3.2 2.6 -13.7 2.6 -8.6 0 -9.3 -0.1 -9.3 -2z"/>
  <path d="M107 37 c0 -1.9 0.7 -2 11.5 -2 9.1 0 11.5 0.3 11.5 1.4 0 2 -3.2 2.6 -13.7 2.6 -8.6 0 -9.3 -0.1 -9.3 -2z"/>
  <path d="M137 36 c0 -1.9 0.7 -2 11.5 -2 9.1 0 11.5 0.3 11.5 1.4 0 2 -3.2 2.6 -13.7 2.6 -8.6 0 -9.3 -0.1 -9.3 -2z"/>
  <path d="M167 35 c0 -1.9 0.7 -2 11.5 -2 9.1 0 11.5 0.3 11.5 1.4 0 2 -3.2 2.6 -13.7 2.6 -8.6 0 -9.3 -0.1 -9.3 -2z"/>
  <path d="M257 32 c0 -1.9 0.7 -2 12 -2 9.6 0 12 0.3 12 1.4 0 2 -3.2 2.6 -14.2 2.6 -9.1 0 -9.8 -0.1 -9.8 -2z"/>
  <path d="M287 31 c0 -1.9 0.7 -2 12 -2 9.6 0 12 0.3 12 1.4 0 2 -3.2 2.6 -14.2 2.6 -9.1 0 -9.8 -0.1 -9.8 -2z"/>
  <path d="M317 30.1 c0 -1.7 -0.6 -2.1 -3 -2.1 -2.3 0 -3 -0.4 -3 -2 0 -1.8 0.7 -2 6.8 -2 8 0 11.2 0.8 11.2 2.6 0 1 1.6 1.4 6 1.4 4.8 0 6 -0.3 6 -1.6 0 -1.4 1.1 -1.5 8.8 -1 4.8 0.3 21.8 0.8 37.8 1.1 46.5 0.9 46.6 1.9 0.4 3.4 -28.7 0.9 -40.6 0.9 -40.8 0.2 -0.5 -1.5 -5.9 -1.4 -6.4 0.2 -0.3 0.8 -3.9 1.3 -12.1 1.5 -11.3 0.4 -11.7 0.3 -11.7 -1.7z"/>
  <path d="M282 25 c0 -1.8 0.7 -2 6.8 -2 8 0 11.2 0.8 11.2 2.6 0 1.1 -2 1.4 -9 1.4 -8.3 0 -9 -0.1 -9 -2z"/>
  <path d="M252 24 c0 -1.8 0.7 -2 6.8 -2 8 0 11.2 0.8 11.2 2.6 0 1.1 -2 1.4 -9 1.4 -8.3 0 -9 -0.1 -9 -2z"/>
  <path d="M223 23 c0 -1.8 0.7 -2 6.3 -2 7.6 0 10.7 0.8 10.7 2.6 0 1.1 -1.9 1.4 -8.5 1.4 -7.8 0 -8.5 -0.2 -8.5 -2z"/>
  <path d="M193 22 c0 -1.8 0.7 -2 6.8 -2 8 0 11.2 0.8 11.2 2.6 0 1.1 -2 1.4 -9 1.4 -8.3 0 -9 -0.1 -9 -2z"/>
  <path d="M164 21 c0 -1.8 0.7 -2 6.3 -2 7.6 0 10.7 0.8 10.7 2.6 0 1.1 -1.9 1.4 -8.5 1.4 -7.8 0 -8.5 -0.2 -8.5 -2z"/>
  <path d="M134 20 c0 -1.8 0.7 -2 6.8 -2 8 0 11.2 0.8 11.2 2.6 0 1.1 -2 1.4 -9 1.4 -8.3 0 -9 -0.1 -9 -2z"/>
  <path d="M104 19 c0 -1.8 0.7 -2 6.8 -2 8 0 11.2 0.8 11.2 2.6 0 1.1 -2 1.4 -9 1.4 -8.3 0 -9 -0.1 -9 -2z"/>
  <path d="M75 18 c0 -1.8 0.7 -2 6.8 -2 8 0 11.2 0.8 11.2 2.6 0 1.1 -2 1.4 -9 1.4 -8.3 0 -9 -0.1 -9 -2z"/>
  <path d="M45 17 c0 -1.8 0.7 -2 6.8 -2 8 0 11.2 0.8 11.2 2.6 0 1.1 -2 1.4 -9 1.4 -8.3 0 -9 -0.1 -9 -2z"/>
  <path d="M16 16 c0 -1.8 0.7 -2 6.8 -2 8 0 11.2 0.8 11.2 2.6 0 1.1 -2 1.4 -9 1.4 -8.3 0 -9 -0.1 -9 -2z"/>
 </g>
 <g fill="#c0c8fe">
  <path d="M82.6 364.4 c-6.5 -8.6 -10.8 -11.9 -13.5 -10.5 -3.4 1.9 -9.7 1.3 -14.7 -1.4 -7.9 -4.2 -12.6 -3 -16.3 4.3 -0.9 1.6 -2.1 2.2 -4.6 2.2 -5.1 0 -6.5 -2.1 -6.5 -9.5 0 -6.1 0.1 -6.4 3.5 -8.4 l3.5 -2 0 2.5 0 2.5 4.6 -3.3 c5.5 -3.9 21.6 -20.5 26.1 -27 2.6 -3.7 3 -4.7 1.8 -5.2 -2.2 -0.8 -1.9 -1.7 3.5 -9.9 11.7 -17.8 19.6 -36.2 29.1 -67.7 l4.7 -15.5 -2.4 -0.3 c-2 -0.3 -2.4 -0.9 -2.4 -3.8 0 -3.2 0.2 -3.4 3.5 -3.4 2.8 0 3.5 0.4 3.5 2 0 1.5 0.7 2 2.6 2 2.5 0 2.6 0.2 2.2 4.3 l-0.5 4.3 9.6 1.2 c12.8 1.7 19.1 4.6 23 10.7 3.5 5.5 5.1 12.1 5.1 21 l0 6.5 -2.9 0 c-1.6 0 -4 -0.4 -5.3 -0.9 l-2.3 -0.9 0 12.2 c0 6.6 -0.4 13.8 -0.8 15.9 -0.7 3.4 -1.1 3.7 -4.2 3.7 -3 0 -3.5 -0.3 -3.5 -2.4 0 -7.6 -5.1 -15.2 -13.9 -20.8 -5.1 -3.2 -6.1 -3.4 -6.1 -1.3 0 0.8 -0.4 1.5 -1 1.5 -0.5 0 -1.2 1.7 -1.5 3.8 -1.8 10.1 -17.7 37.1 -31.8 53.7 -4.1 4.9 -7.3 9.3 -7.1 9.7 0.3 0.4 1.3 0.8 2.3 0.8 4.6 0 8.3 2.4 12 7.9 5.7 8.4 12.1 21.6 12.1 25.1 0 2.7 -0.3 3 -3.2 3 -2.9 -0.1 -4 -1 -8.2 -6.6z"/>
  <path d="M306 289.5 c0 -3.3 0.2 -3.5 3.5 -3.5 3.3 0 3.5 0.2 3.5 3.5 0 3.3 -0.2 3.5 -3.5 3.5 -3.3 0 -3.5 -0.2 -3.5 -3.5z"/>
  <path d="M316 287.7 c0 -3.3 0.1 -3.4 6.4 -4.5 10 -1.9 10.6 -1.7 10.6 2.1 0 3.3 -0.1 3.4 -6.4 4.5 -10 1.9 -10.6 1.7 -10.6 -2.1z"/>
  <path d="M308 262.5 c0 -3.3 0.2 -3.5 3.5 -3.5 3.3 0 3.5 0.2 3.5 3.5 0 3.3 -0.2 3.5 -3.5 3.5 -3.3 0 -3.5 -0.2 -3.5 -3.5z"/>
  <path d="M306 252.5 c0 -3.3 0.2 -3.5 3.5 -3.5 3.3 0 3.5 0.2 3.5 3.5 0 3.3 -0.2 3.5 -3.5 3.5 -3.3 0 -3.5 -0.2 -3.5 -3.5z"/>
  <path d="M298 229.5 c0 -3.3 0.2 -3.5 3.5 -3.5 3.3 0 3.5 0.2 3.5 3.5 0 3.3 -0.2 3.5 -3.5 3.5 -3.3 0 -3.5 -0.2 -3.5 -3.5z"/>
  <path d="M103 198.5 c0 -1.9 0.5 -3.5 1 -3.5 0.6 0 1 -1.1 1 -2.5 0 -1.6 0.6 -2.5 1.5 -2.5 1.1 0 1.5 -1.1 1.5 -3.6 0 -3 0.3 -3.4 1.9 -2.9 1.4 0.4 2.3 0 3.1 -1.5 1.5 -2.8 3 -2.5 3 0.8 0 4.2 -1.1 7.2 -2.6 7.2 -0.9 0 -1.4 1.2 -1.4 3.5 0 1.9 -0.4 3.5 -1 3.5 -0.5 0 -1 1.1 -1 2.5 0 2.2 -0.4 2.5 -3.5 2.5 -3.3 0 -3.5 -0.2 -3.5 -3.5z"/>
  <path d="M228 179.5 c0 -3.3 0.2 -3.5 3.5 -3.5 3.3 0 3.5 0.2 3.5 3.5 0 3.3 -0.2 3.5 -3.5 3.5 -3.3 0 -3.5 -0.2 -3.5 -3.5z"/>
  <path d="M97.6 172.1 c-2.3 -2.5 -1.8 -7.5 1.9 -20.4 4.6 -15.7 8.5 -22.3 8.5 -14.2 0 1.9 -0.3 3.5 -0.8 3.5 -0.4 0 -1.3 2.3 -2 5.2 -0.6 2.8 -1.6 5.4 -2 5.7 -0.9 0.6 -2.1 6.8 -3.1 16.5 -0.6 5.8 -0.6 5.8 -2.5 3.7z"/>
  <path d="M239 165.5 c0 -3.3 0.2 -3.5 3.5 -3.5 3.3 0 3.5 0.2 3.5 3.5 0 3.3 -0.2 3.5 -3.5 3.5 -3.3 0 -3.5 -0.2 -3.5 -3.5z"/>
  <path d="M255 155.5 c0 -3.3 0.2 -3.5 3.5 -3.5 3.3 0 3.5 0.2 3.5 3.5 0 3.3 -0.2 3.5 -3.5 3.5 -3.3 0 -3.5 -0.2 -3.5 -3.5z"/>
  <path d="M266 149.5 c0 -3.3 0.2 -3.5 3.5 -3.5 2.7 0 3.5 -0.4 3.5 -1.8 0 -2 5.6 -5.2 9 -5.2 1.1 0 2 -0.7 2 -1.5 0 -1 1.1 -1.5 3.5 -1.5 3.3 0 3.5 0.2 3.5 3.5 0 3.1 -0.3 3.5 -2.5 3.5 -1.4 0 -2.5 0.6 -2.5 1.3 0 1.8 -6.3 4.7 -10 4.7 -2.3 0 -3 0.4 -3 2 0 1.6 -0.7 2 -3.5 2 -3.3 0 -3.5 -0.2 -3.5 -3.5z"/>
  <path d="M295.2 131.3 c0.3 -3.6 0.5 -3.8 4.1 -4.1 3.5 -0.3 3.7 -0.5 3.7 -3.8 0 -3.1 0.2 -3.4 3.1 -3.4 3.4 0 3.4 0.2 -1.5 5.8 -1.1 1.2 -2 3.7 -2 5.5 -0.1 3 -0.4 3.2 -3.9 3.5 l-3.8 0.3 0.3 -3.8z"/>
  <path d="M109 128.2 c0 -0.5 1.5 -2.9 3.3 -5.3 l3.2 -4.4 0.3 3.5 c0.2 1.9 -0.1 3.6 -0.7 3.8 -0.6 0.2 -1.1 1 -1.1 1.8 0 0.8 -1 1.4 -2.5 1.4 -1.4 0 -2.5 -0.4 -2.5 -0.8z"/>
  <path d="M309 110.5 c0 -4.8 1.2 -5.8 3 -2.5 1.3 2.4 0.3 7 -1.6 7 -1 0 -1.4 -1.3 -1.4 -4.5z"/>
  <path d="M123.6 110.1 c1.8 -1.7 6 -6.4 9.4 -10.5 3.5 -4.2 6.4 -7.6 6.6 -7.6 0.2 0 0.4 1.6 0.4 3.5 0 3.1 -0.3 3.5 -2.5 3.5 -2.1 0 -2.5 0.5 -2.5 3 0 2.5 -0.4 3 -2.5 3 -2 0 -2.5 0.5 -2.5 2.6 0 3.5 -2.2 5.4 -6.2 5.4 l-3.3 0 3.1 -2.9z"/>
  <path d="M247 102.6 c0 -0.8 1.1 -1.7 2.5 -2 3 -0.8 12.5 -6.5 12.5 -7.5 0 -0.4 -0.5 -1.2 -1.2 -1.9 -0.9 -0.9 -0.5 -1.2 2 -1.2 3 0 3.2 0.2 3.2 3.5 0 2.4 -0.5 3.5 -1.5 3.5 -0.8 0 -1.5 0.5 -1.5 1 0 0.6 -0.7 1 -1.5 1 -0.8 0 -1.5 0.5 -1.5 1 0 0.6 -1.1 1 -2.5 1 -1.6 0 -2.5 0.6 -2.5 1.5 0 1.1 -1.1 1.5 -4 1.5 -2.8 0 -4 -0.4 -4 -1.4z"/>
  <path d="M221 99.9 c0 -0.6 -0.7 -1.7 -1.5 -2.5 -1.6 -1.6 -2.1 -8.4 -0.7 -8.4 0.5 0 1.8 1.8 3.1 4 1.2 2.2 2.4 4 2.6 4 0.5 0 -1.1 -5.6 -2 -7 -0.3 -0.5 0.1 -1 0.9 -1 0.9 0 1.8 1.1 2.2 2.5 0.3 1.4 1 2.5 1.5 2.5 0.5 0 0.9 1.6 0.9 3.5 0 3.3 -0.2 3.5 -3.5 3.5 -1.9 0 -3.5 -0.5 -3.5 -1.1z"/>
  <path d="M301 97.5 c0 -1.8 -0.5 -2.5 -2 -2.5 -1.6 0 -2 -0.7 -2 -3.5 0 -3.2 -0.3 -3.5 -2.9 -3.5 -3.7 0 -5.3 -2 -4.9 -6.2 l0.3 -3.3 7.3 8.6 c4 4.8 8 9.6 8.8 10.8 1.4 2 1.4 2.1 -1.5 2.1 -2.6 0 -3.1 -0.4 -3.1 -2.5z"/>
  <path d="M148.1 83.3 c1.6 -1.9 8.6 -5.2 11.2 -5.3 1 0 1.7 0.8 1.7 2 0 1.6 -0.7 2 -3.5 2 -2.4 0 -3.5 0.5 -3.5 1.5 0 1.1 -1.1 1.5 -3.6 1.5 -3.3 0 -3.5 -0.2 -2.3 -1.7z"/>
  <path d="M208 84.1 c0 -0.5 -1.8 -1.2 -4 -1.6 -3.1 -0.5 -4 -1.1 -4 -2.7 0 -1.8 0.4 -1.9 3.7 -1.3 4.4 0.8 8.4 2.8 10.2 4.9 1.2 1.4 0.9 1.6 -2.3 1.6 -2 0 -3.6 -0.4 -3.6 -0.9z"/>
  <path d="M174.8 82.7 c-3.6 -0.8 -4.8 -1.5 -4.8 -2.9 0 -2.2 0.3 -2.2 9.1 -0.2 4.5 1 6.9 2 6.9 3 0 1.6 -4 1.7 -11.2 0.1z"/>
  <path d="M211 78.5 c-1.4 -0.8 -3.3 -1.4 -4.2 -1.5 -1 0 -1.8 -0.5 -1.8 -1 0 -1.2 5.3 -0.1 5.8 1.2 0.2 0.4 1.2 0.8 2.3 0.8 1 0 1.9 0.5 1.9 1 0 1.3 -1 1.2 -4 -0.5z"/>
  <path d="M276 72 c0 -0.5 -0.9 -1 -2 -1 -1.5 0 -2 -0.7 -2 -2.5 0 -1.4 0.2 -2.5 0.5 -2.5 1.3 0 8.3 4 9.4 5.4 1.2 1.4 0.9 1.6 -2.3 1.6 -2 0 -3.6 -0.4 -3.6 -1z"/>
 </g>
 <g fill="#bfd7c3">
  <path d="M334 433.6 l-128.5 -10.1 113.8 -0.3 113.7 -0.2 0 -2.5 c0 -2.5 0.1 -2.5 8.4 -2.5 9.8 0 9.6 0.2 9.6 -10 0 -6.2 -0.3 -7.2 -2.7 -9.4 -1.5 -1.4 -4.6 -3.6 -7 -4.8 -3.2 -1.7 -4.1 -2.7 -3.8 -4.3 0.2 -1.1 3.4 -22.7 7 -48 4.5 -31.3 7.7 -50.6 10.2 -60.3 2.9 -11.6 3.4 -14.7 2.5 -16.7 -0.9 -2 -0.2 -9.2 3.5 -35 2.6 -17.9 4.7 -32.4 4.8 -32.2 0.1 0.1 0.5 55.7 0.9 123.5 l0.7 123.2 -2.3 -0.1 c-1.3 -0.1 -60.1 -4.7 -130.8 -10.3z"/>
  <path d="M123 415 c0 -3.5 2 -3.2 4.5 0.6 1.5 2.4 1.5 2.4 -1.5 2.4 -2.7 0 -3 -0.3 -3 -3z"/>
  <path d="M187.4 416.4 c0.3 -0.9 0.6 -2 0.6 -2.5 0 -0.5 0.7 -0.9 1.5 -0.9 0.9 0 1.5 0.9 1.5 2.5 0 1.9 -0.5 2.5 -2.1 2.5 -1.5 0 -1.9 -0.4 -1.5 -1.6z"/>
  <path d="M30.4 405.6 c-1 -1.6 -1.5 -1.7 -4.4 -0.7 -1.8 0.6 -3.7 1.1 -4.1 1.1 -0.5 0 -0.9 -4.3 -0.9 -9.5 0 -8.4 0.2 -9.5 1.8 -9.5 2.4 0 9.5 13.7 9 17.6 -0.3 2.6 -0.4 2.7 -1.4 1z"/>
  <path d="M108 406 c0 -0.5 -0.9 -1 -2 -1 -1.5 0 -2 -0.7 -2 -2.6 0 -1.4 0.3 -2.4 0.8 -2.2 11.4 5.6 12.6 6.8 6.7 6.8 -1.9 0 -3.5 -0.4 -3.5 -1z"/>
  <path d="M191 400.8 c0 -3 1.3 -5.8 2.6 -5.8 0.9 0 1.4 1.2 1.4 3.5 0 2.8 -0.4 3.5 -2 3.5 -1.1 0 -2 -0.6 -2 -1.2z"/>
  <path d="M20.2 356.7 c-0.2 -9.4 -1.8 -90.3 -3.7 -179.6 -1.9 -89.4 -3.4 -162.6 -3.2 -162.7 0.5 -0.3 395.8 13.3 396.2 13.7 0.2 0.3 -31.6 1.5 -70.8 2.7 -39.2 1.3 -75.6 2.6 -80.9 2.9 l-9.7 0.6 1.7 2.3 c0.9 1.3 2.3 2.4 3 2.4 0.6 0 1.2 0.5 1.2 1 0 0.6 -1.6 1 -3.5 1 -2.8 0 -3.5 -0.4 -3.5 -2 0 -1.1 -0.6 -2 -1.3 -2 -0.7 0 -2.8 -1.6 -4.7 -3.5 -2.7 -2.8 -4 -3.4 -6.9 -3.3 -2 0.1 -4.3 -0.1 -5.1 -0.5 -0.9 -0.4 -2.4 -0.1 -3.5 0.7 -2 1.5 -2 1.5 0 3.1 1.9 1.5 1.7 1.6 -4 1 -3.3 -0.3 -7.7 -0.8 -9.7 -1.1 -3.7 -0.6 -3.8 -0.5 -3.8 2.5 0 3.5 -2.4 4.4 -3.3 1.2 -0.4 -1.7 -1.3 -1.8 -9.3 -1.4 -4.9 0.2 -42.8 1.5 -84.3 2.9 -41.5 1.3 -75.7 2.7 -76 3 -0.3 0.3 -0.7 48.8 -0.8 107.7 l-0.3 107.2 3.4 -11.5 c4.5 -15.2 6.8 -21.2 8.4 -21.8 2 -0.6 1.4 4.8 -1.4 12.9 -4.2 12.2 -9.4 33.7 -10.1 41.5 -0.5 6.3 -0.3 7.4 1.1 8 0.9 0.3 1.6 1.7 1.6 3 0 1.7 -0.4 2.2 -1.5 1.8 -1.3 -0.5 -1.5 2.8 -1.5 26.5 0 26 -0.1 27.1 -2 28.1 -2.5 1.4 -2.7 7.1 -0.3 9.5 1.6 1.6 1.7 1.6 3 -0.1 1.2 -1.6 1.3 -1.5 1.3 1.5 0 2.4 -1.1 4.6 -3.8 8 -2.2 2.5 -4.7 5.8 -5.7 7.4 -1 1.5 -2.6 2.7 -3.9 2.7 -2.1 0 -2.1 -0.4 -2.4 -17.3z"/>
  <path d="M219 361.5 c0 -0.8 1.6 -1.9 3.8 -2.4 5.2 -1.5 6.2 -1.4 6.2 0.8 0 1.3 -1 2 -3.1 2.5 -4.9 1 -6.9 0.7 -6.9 -0.9z"/>
  <path d="M410 332.2 c0 -1.5 0.9 -2.1 4.6 -2.6 6.9 -0.9 8.4 -0.8 8.4 0.8 0 1.4 -1.1 1.8 -9.2 3.2 -3.3 0.5 -3.8 0.4 -3.8 -1.4z"/>
  <path d="M229.3 327.4 c-4.3 -2.1 -4.2 -3.4 0.2 -3.4 3.1 0 3.5 0.3 3.5 2.5 0 1.4 -0.1 2.5 -0.2 2.5 -0.2 0 -1.8 -0.8 -3.5 -1.6z"/>
  <path d="M215.8 320.2 c-3.7 -2.2 -3.5 -3.2 0.7 -3.2 3.1 0 3.5 0.3 3.5 2.5 0 2.9 -0.6 3 -4.2 0.7z"/>
  <path d="M221 298.5 c0 -3.3 0.2 -3.5 3.5 -3.5 3.3 0 3.5 0.2 3.5 3.5 0 3.3 -0.2 3.5 -3.5 3.5 -3.3 0 -3.5 -0.2 -3.5 -3.5z"/>
  <path d="M250.6 299.8 c-0.3 -1.3 -0.6 -3.3 -0.6 -4.5 0 -1.3 -0.4 -2.3 -0.9 -2.3 -0.6 0 -2.2 -5.4 -3.7 -12 l-2.8 -12 -3.5 -1 c-2 -0.5 -5.1 -1 -6.8 -1 -3.1 0 -3.3 -0.2 -3.3 -3.6 l0 -3.7 6.5 0.7 c9.6 1 12.5 1.7 12.5 3.1 0 0.8 0.3 1.5 0.8 1.7 0.6 0.3 4.6 15.7 5.9 23.3 0.3 1.7 1 3.3 1.5 3.6 0.6 0.4 1.3 2.7 1.5 5.3 l0.6 4.6 -3.6 0 c-2.8 0 -3.6 -0.5 -4.1 -2.2z"/>
  <path d="M325.6 287.3 c-0.3 -0.4 -1.4 -0.8 -2.4 -0.9 -0.9 -0.2 -1.8 -0.8 -2 -1.3 -0.2 -0.6 -0.9 -1.1 -1.6 -1.1 -2.2 0 -4.6 -3.5 -4.6 -6.8 0 -3 0.2 -3.2 3.4 -3.2 2.4 0 4 0.7 5.3 2.4 1 1.3 3.5 2.9 5.6 3.7 3.2 1.1 3.7 1.7 3.7 4.6 0 3.1 -0.2 3.3 -3.3 3.3 -1.9 0 -3.7 -0.3 -4.1 -0.7z"/>
  <path d="M308.6 264.8 c-0.8 -4 -2 -10 -2.7 -13.3 -0.6 -3.3 -2.2 -8.7 -3.5 -12.1 -1.3 -3.3 -2.4 -6.8 -2.4 -7.7 0 -1.2 -0.8 -1.7 -2.5 -1.7 -1.4 0 -2.8 -0.7 -3.1 -1.5 -0.4 -0.8 -1.2 -1.5 -2 -1.5 -0.8 0 -1.4 -0.7 -1.4 -1.5 0 -0.8 -0.9 -1.5 -2 -1.5 -1.1 0 -2 -0.7 -2 -1.5 0 -0.8 -0.9 -1.5 -1.9 -1.5 -3.8 0 -5.1 -1.1 -5.1 -4.6 0 -3.1 0.3 -3.4 2.9 -3.4 3.9 0 6.1 0.9 6.1 2.6 0 0.8 1 1.4 2.5 1.4 1.6 0 2.5 0.6 2.5 1.5 0 0.8 0.9 1.5 2 1.5 1.1 0 2 0.4 2 0.9 0 0.5 0.9 1.1 2 1.4 1.4 0.3 2 1.4 2 3.1 0 2.1 0.5 2.6 2.4 2.6 2 0 2.8 0.9 4.4 5.3 1.9 5.1 7 27.5 7.9 35 0.5 3.7 0.5 3.7 -3 3.7 l-3.6 0 -1.5 -7.2z"/>
  <path d="M366 250.5 c0 -3.3 0.2 -3.5 3.5 -3.5 3.3 0 3.5 0.2 3.5 3.5 0 3.3 -0.2 3.5 -3.5 3.5 -3.3 0 -3.5 -0.2 -3.5 -3.5z"/>
  <path d="M46.9 217.3 c6.1 -15.5 9.1 -19.9 9.1 -13.4 0 3.9 -0.9 6.1 -2.6 6.1 -0.9 0 -1.4 1.2 -1.4 3.5 0 1.9 -0.4 3.5 -1 3.5 -0.5 0 -1 1.1 -1 2.5 0 2 -0.5 2.5 -2.5 2.5 l-2.5 0 1.9 -4.7z"/>
  <path d="M271.3 215.3 c-0.7 -0.2 -1.3 -1.1 -1.3 -1.9 0 -0.9 -1.1 -1.4 -3.5 -1.4 -1.9 0 -3.5 -0.4 -3.5 -1 0 -0.5 -1.1 -1 -2.5 -1 -1.4 0 -2.5 -0.4 -2.5 -1 0 -0.5 -0.7 -1 -1.6 -1 -0.9 0 -3.4 -0.5 -5.5 -1.2 -3.5 -1 -3.9 -1.4 -3.9 -4.5 0 -2.9 0.3 -3.3 2.6 -3.3 3.5 0 10.4 2.1 10.4 3.2 0 0.4 1.1 0.8 2.5 0.8 1.4 0 2.5 0.5 2.5 1 0 0.6 1.1 1 2.5 1 1.6 0 2.5 0.6 2.5 1.5 0 1 1 1.5 2.9 1.5 4.9 0 6.1 0.9 6.1 4.6 0 3.2 -0.2 3.4 -3.2 3.3 -1.8 0 -3.9 -0.3 -4.5 -0.6z"/>
  <path d="M230.8 200.3 c-1.3 -0.3 -1.8 -1.5 -1.8 -3.9 0 -3 0.3 -3.4 2.8 -3.4 5.7 0 7.2 1 7.2 4.6 0 3.2 -0.2 3.4 -3.2 3.3 -1.8 -0.1 -4.1 -0.3 -5 -0.6z"/>
  <path d="M56 198.5 c1.2 -1.4 9.3 -6.5 10.4 -6.5 0.3 0 0.6 1.1 0.6 2.5 0 2 -0.5 2.5 -2.5 2.5 -1.6 0 -2.5 0.6 -2.5 1.5 0 1.1 -1.1 1.5 -3.6 1.5 -3.1 0 -3.5 -0.2 -2.4 -1.5z"/>
  <path d="M68.2 191.8 c0.3 -0.7 1.9 -1.8 3.6 -2.5 3.1 -1.3 3.2 -1.2 3.2 1.2 0 2.2 -0.4 2.5 -3.6 2.5 -2.3 0 -3.4 -0.4 -3.2 -1.2z"/>
  <path d="M229 187.5 c0 -3.3 0.2 -3.5 3.5 -3.5 3.3 0 3.5 0.2 3.5 3.5 0 3.3 -0.2 3.5 -3.5 3.5 -3.3 0 -3.5 -0.2 -3.5 -3.5z"/>
  <path d="M78 188.6 c0 -1.3 2.8 -2.6 5.8 -2.6 0.6 0 1.2 0.9 1.2 2 0 1.6 -0.7 2 -3.5 2 -2.3 0 -3.5 -0.5 -3.5 -1.4z"/>
  <path d="M229 177.6 c0 -1.9 0.7 -4.1 1.5 -5 0.8 -0.8 1.5 -1.9 1.5 -2.5 0 -0.6 1.6 -1.1 3.5 -1.1 3.3 0 3.5 0.2 3.5 3.5 0 1.9 -0.4 3.5 -0.9 3.5 -0.5 0 -1.2 1.1 -1.5 2.5 -0.5 2.1 -1.2 2.5 -4.1 2.5 -3.3 0 -3.5 -0.2 -3.5 -3.4z"/>
  <path d="M266 157.5 c0 -3.3 0.2 -3.5 3.5 -3.5 3.3 0 3.5 0.2 3.5 3.5 0 3.3 -0.2 3.5 -3.5 3.5 -3.3 0 -3.5 -0.2 -3.5 -3.5z"/>
  <path d="M313 146.5 c0 -3.3 0.2 -3.5 3.5 -3.5 3.3 0 3.5 0.2 3.5 3.5 0 3.3 -0.2 3.5 -3.5 3.5 -3.3 0 -3.5 -0.2 -3.5 -3.5z"/>
  <path d="M235 100.5 c0 -3.3 0.2 -3.5 3.5 -3.5 3.9 0 4.3 0.6 1.8 2.6 -1.7 1.3 -1.7 1.3 0 1.4 0.9 0 1.7 0.7 1.7 1.5 0 1 -1.1 1.5 -3.5 1.5 -3.3 0 -3.5 -0.2 -3.5 -3.5z"/>
  <path d="M205.3 80.7 c-1.8 -0.6 -3.3 -1.4 -3.3 -1.8 0 -0.9 7.2 1 8.5 2.2 1.2 1.1 -0.9 1 -5.2 -0.4z"/>
  <path d="M211 78.5 c-1.4 -0.8 -3.3 -1.4 -4.2 -1.5 -1.1 0 -1.8 -0.8 -1.8 -2 0 -2.3 1 -2.4 6.3 -0.9 3 0.8 3.7 1.5 3.7 3.4 0 2.9 -0.5 3 -4 1z"/>
  <path d="M205 66.5 c0 -2.4 3.8 -11.6 5.5 -13.6 1.6 -1.6 1.6 -2 0.1 -4.1 -2.2 -3.1 -2 -3.8 1 -3.8 2.7 0 2.7 0 2 5.7 -0.9 8 -4.6 17.3 -6.8 17.3 -1 0 -1.8 -0.7 -1.8 -1.5z"/>
 </g>
 <g fill="#9db8ff">
  <path d="M88.3 372.3 c-0.4 -1 -1.2 -2.2 -2 -2.6 -0.7 -0.4 -1.3 -1.4 -1.3 -2.1 0 -0.8 -0.7 -1.6 -1.5 -2 -0.8 -0.3 -1.5 -1.5 -1.5 -2.6 0 -1.1 -0.6 -2 -1.3 -2 -1.7 0 -6.7 -5.2 -6.7 -6.9 0 -0.9 -0.7 -1.1 -2.2 -0.6 -3.7 1.3 -14.8 1.8 -14.8 0.7 0 -0.5 -2 -1.6 -4.5 -2.3 -3.2 -0.9 -4.5 -1.9 -4.5 -3.1 0 -2.6 3.5 -2.3 9.8 0.9 l5.4 2.7 4.1 -2.2 4.1 -2.2 3.9 2.7 c2.2 1.6 6.3 5.6 9 9.1 2.8 3.4 5.2 6.2 5.4 6.2 0.7 0 -7.2 -14.9 -10.8 -20.1 -4.2 -6.2 -6.6 -7.5 -15.7 -8.6 l-5.3 -0.6 4.4 -4.6 c18.9 -19.7 39.1 -51.6 41.2 -64.9 0.4 -2.3 1 -4 1.5 -3.7 0.4 0.3 1.1 -0.6 1.4 -2 0.8 -3.2 1.6 -3.2 8.8 0.7 10.4 5.5 16.7 13.9 16.9 22.7 l0 2.6 1.1 -2.5 c0.6 -1.4 1.1 -7 1.2 -12.5 0.1 -8.5 -0.2 -10.6 -2.1 -14.2 l-2.3 -4.3 2.3 0 c1.2 0 4.6 0.6 7.5 1.4 l5.2 1.3 0 -3.3 c0 -5.9 -2.1 -13.1 -5.1 -17.9 -4 -6.2 -10.2 -9 -23.9 -10.8 -9.9 -1.2 -10.5 -1.2 -11.2 0.5 -1.4 3.5 -2 1.8 -1.6 -4.2 0.4 -5.3 0.2 -6 -1.4 -6 -1.5 0 -1.8 -0.8 -1.8 -5.2 0 -3.9 1.2 -8.2 4.3 -15.8 3.7 -9.3 4.5 -10.5 6.5 -10.2 1.2 0.2 2.2 -0.1 2.2 -0.7 0 -0.5 0.3 -1.6 0.6 -2.5 0.4 -1.2 0 -1.6 -1.5 -1.6 -2.1 0 -2 -0.2 1 -6.2 5.6 -11.3 14.2 -23.1 23.6 -32.6 8.9 -9 9.2 -9.4 9.8 -15 l0.7 -5.7 -2.4 3.5 c-2.9 4.3 -8.9 7.7 -14.8 8.6 -5.2 0.7 -8 2.8 -8 5.9 0 6.7 -9.9 26 -19.8 38.5 -0.7 0.9 -6.2 -6 -6.2 -7.9 0 -3.4 4.7 -20.4 7.9 -28.8 4 -10.1 11.3 -21.5 17.3 -26.8 2.5 -2.2 8.1 -8.3 12.5 -13.5 10.1 -12.1 17.4 -18.7 22.1 -20 5.2 -1.4 14.6 -1.2 21.7 0.4 6.2 1.5 19.5 1.1 19.5 -0.5 0 -1.2 3.3 -1.1 8.8 0.3 5.2 1.3 13.1 8.4 16.9 15.3 2.1 3.7 2.2 3.8 1.7 1 -1.7 -7.8 -9.6 -17 -15.7 -18.2 -1.5 -0.3 -3 -0.9 -3.2 -1.3 -0.3 -0.4 1.3 -0.3 3.5 0.2 5.2 1.3 12 7.4 15.8 14.1 1.6 2.9 3.7 5.9 4.6 6.6 0.9 0.7 1.6 2.5 1.6 3.8 l0 2.5 4.4 -2.6 c2.5 -1.4 5.1 -2.6 5.8 -2.5 0.7 0 0 0.7 -1.7 1.4 -2.9 1.3 -2.6 1.4 4.6 1.5 5.6 0 8 -0.4 8.9 -1.5 0.7 -0.8 1.7 -1.5 2.2 -1.5 0.5 0 2.4 -1 4.3 -2.3 3.2 -2.2 3.3 -2.5 1.8 -4 -1.5 -1.5 -1.2 -1.6 3.5 -2.3 2.9 -0.3 5.2 -0.8 5.2 -0.9 0 -0.2 -1.1 -2.7 -2.5 -5.7 -1.6 -3.4 -2.5 -7.1 -2.5 -10.4 0 -8.1 2.2 -8.9 11.9 -4.1 6.2 3 29.3 28.5 33.8 37.2 2.9 5.6 1.4 10.8 -5.5 19.4 l-3.6 4.4 3.4 -0.5 3.4 -0.5 -5.5 4.8 c-4 3.6 -6.2 4.8 -8.6 4.9 -3.1 0 -3.3 -0.2 -3.3 -3.3 0 -2.4 0.8 -4.1 3.1 -6.3 3.9 -3.6 8.9 -11.2 8.9 -13.5 0 -1.5 -1 -1.3 -7.4 1.6 l-7.4 3.4 -27.6 0.7 c-19.2 0.5 -27.4 1 -26.6 1.8 0.5 0.5 1 2.9 1 5.1 0 4.6 -1.1 6 -9.5 11.5 -2.7 1.8 -5.2 3.5 -5.4 3.6 -0.2 0.2 0.8 1.7 2.3 3.4 2.2 2.6 2.6 4.1 2.6 9 l0 5.9 6.8 -3.4 c3.7 -1.9 8.1 -3.7 9.7 -4.1 2.8 -0.5 3 -0.8 2.7 -4.8 -0.3 -2.8 0.1 -4.6 1.1 -5.4 2 -1.7 10.7 -2.9 26.5 -3.6 l13.2 -0.6 0 3.2 c0 3.2 -0.5 3.6 -11.3 9.6 -6.2 3.4 -11.6 6.2 -12 6.2 -0.5 0 -1.3 0.5 -2 1 -0.7 0.6 -4.6 3.2 -8.7 5.8 -8.2 5.3 -13.8 10.9 -15.9 16 -1.1 2.7 -1.9 3.2 -4.7 3.2 -1.9 0 -3.4 -0.4 -3.4 -1 0 -0.5 -1.3 -2.5 -3 -4.3 -2 -2.4 -3 -4.5 -3 -6.8 l0 -3.2 -2.5 2.3 -2.6 2.4 3.1 2.4 c2.7 2.1 3 2.9 3 7.6 0 6 -1.6 8 -11 13.7 l-5.5 3.4 4.9 0.3 c5.6 0.4 12.4 -1.8 15.1 -4.8 2.5 -2.8 8.6 -2.7 11.1 0.1 1.5 1.7 1.9 3.7 1.9 10 0 4.3 0.1 7.9 0.3 7.9 0.1 0 2 -0.9 4.2 -2 3.1 -1.6 5.8 -2 13.2 -2 5.1 0.1 11.3 0.5 13.8 1.1 2.5 0.5 5.8 1.2 7.4 1.5 5.2 1 17.7 6.2 20.9 8.7 9 6.9 10.6 10 13.7 26.2 3.1 16.3 5.7 23.2 10.7 28.2 2.3 2.3 5.3 4.5 6.7 4.9 2.2 0.5 2.6 1.2 2.6 4.3 l0 3.7 -11.2 2.2 c-17.3 3.4 -17.6 3.4 -24.5 -4.2 -5.4 -5.9 -7.5 -9.1 -14.7 -21.8 -1.7 -3 -5 -6.5 -9.1 -9.5 -5.7 -4.2 -6.5 -5.2 -6.5 -8.1 l0 -3.4 10.4 0.4 c12.3 0.4 12.7 -0.9 1.4 -4.3 -5.9 -1.8 -8.4 -2 -15.7 -1.5 -4.7 0.4 -11.4 1.4 -14.9 2.2 -7.4 1.6 -18.5 1.9 -21.3 0.4 -1.5 -0.9 -1.9 -2.2 -1.9 -6.6 0 -5 -0.2 -5.5 -1.7 -4.9 -8.2 3.5 -10.6 3.9 -24.2 4.3 -16.4 0.5 -26.2 -1.3 -40.9 -7.2 -8 -3.3 -8.4 -3.3 -7.7 -1.2 5.7 19.4 5.9 20.5 5.9 40.1 0 17.8 -0.2 19.5 -2.7 27.8 -4.9 15.9 -12.2 28.1 -23 38.5 -5.5 5.2 -7.1 6.2 -10.1 6.2 l-3.6 0 0 -4.7 c-0.1 -9.1 -5.1 -38.4 -8.8 -50.8 l-0.9 -3 -0.7 4 c-3.1 17.6 -10.2 33.8 -20.1 46.2 -6.3 7.9 -7.6 10.3 -5.5 10.3 0.6 0 1 0.7 1 1.5 0 0.8 0.5 1.5 1 1.5 0.6 0 1 0.7 1 1.5 0 0.8 0.5 1.5 1 1.5 0.6 0 1 1.1 1 2.5 0 1.4 0.6 2.5 1.3 2.5 1.8 0 9.7 16.4 9.7 20 0 2.8 -0.3 3 -3.5 3 -2.5 0 -3.8 -0.5 -4.2 -1.7z m49.5 -159.3 c0.9 0 2.3 -7 1.6 -7.8 -0.1 -0.2 -1.5 1.7 -3 4.3 l-2.7 4.7 -9.1 -0.7 c-5 -0.4 -8.9 -0.5 -8.6 -0.2 0.3 0.3 3.2 1.6 6.5 2.9 l6 2.5 4.2 -2.9 c2.3 -1.5 4.6 -2.8 5.1 -2.8z m82.5 -98.7 c0.7 -3.7 0.4 -3.8 -3.2 -1.7 -2.3 1.4 -2.8 2.1 -1.9 3.1 1.9 2.3 4.5 1.5 5.1 -1.4z"/>
  <path d="M31.9 357.7 c0.6 -0.8 0.7 -1.8 0.3 -2.2 -0.4 -0.5 -0.2 -0.5 0.5 -0.1 0.7 0.4 1.7 -0.3 2.4 -1.6 3.1 -6.1 8.9 -9.2 8.9 -4.8 0 1.3 -0.7 2 -2 2 -1.1 0 -2 0.7 -2 1.5 0 0.8 -0.5 2.6 -1.2 4 -0.9 2 -1.8 2.5 -4.6 2.5 -2.8 0 -3.2 -0.3 -2.3 -1.3z"/>
 </g>
 <g fill="#e2e48e">
  <path d="M221.6 301.4 c-0.3 -0.9 -0.6 -10.6 -0.6 -21.6 l0 -20.1 10.3 0.6 c5.6 0.4 11.8 1.1 13.8 1.7 l3.6 1 2.2 10.1 c1.3 5.6 3.1 12.6 4.2 15.7 1 3 1.9 7.2 1.9 9.2 0 3.7 -0.1 3.7 -4.6 4.4 -2.6 0.3 -10.4 0.6 -17.4 0.6 -10.7 0 -12.9 -0.3 -13.4 -1.6z"/>
  <path d="M326 287 c-1.2 -0.8 -0.9 -1 1.3 -1 3.7 0 3.4 -1.3 -0.5 -2.8 -4.1 -1.5 -10.6 -7.6 -12 -11.1 -1.1 -3.1 -3.8 -12.7 -4.3 -15.6 -0.3 -2.4 -1.3 -7 -2 -10.5 -0.3 -1.4 -0.8 -3.6 -1.1 -4.9 -1.1 -5.4 -3.7 -9.8 -8 -13.8 -2.6 -2.3 -5.5 -4.5 -6.5 -4.8 -1.1 -0.4 -1.9 -1 -1.9 -1.4 0 -0.4 -0.6 -0.8 -1.2 -0.8 -1.9 0 -21.3 -6.7 -29.3 -10 -3.8 -1.7 -10.8 -4.2 -15.5 -5.8 -8.7 -2.8 -13.5 -5.9 -12.3 -7.9 0.4 -0.6 -0.5 -0.3 -2 0.7 -1.4 0.9 -2.9 1.7 -3.3 1.7 -0.3 0 -0.3 -2.1 0 -4.7 0.4 -2.7 0.9 -7.2 1.2 -10.2 0.4 -3.4 0.9 -4.9 1.4 -4.1 0.6 1 1.4 0.3 2.6 -2.6 2.3 -4.9 10.6 -13.1 17 -16.6 9.7 -5.3 44.5 -14.5 67.9 -17.9 9.6 -1.5 48.1 -1.9 52.6 -0.7 2.7 0.8 2.7 0.9 3.4 13.3 1 17.2 -0.1 91.7 -1.5 104 -1.3 11.4 -4.2 18 -9.2 21 -4.3 2.5 -24.3 7.5 -30.3 7.5 -2.7 0 -5.7 -0.5 -6.5 -1z m31.2 -79.5 c0.1 -20.3 -0.2 -41.2 -0.6 -46.4 l-0.8 -9.4 -16.2 0.6 c-30.5 1.2 -55.2 7.3 -85.6 21.1 -6.4 2.9 -5.5 3.1 6 1.1 12 -2.2 47.5 -3.1 56.7 -1.5 8.2 1.3 8.7 1.8 14.2 12.9 4.2 8.3 13.6 31.9 19.7 49.8 4.2 12.2 5 13.8 5.7 11.5 0.4 -1.5 0.8 -19.3 0.9 -39.7z"/>
 </g>
 <g fill="#cfbebf">
  <path d="M87 423 c0 -2 0.5 -2 21.7 -1.8 19.8 0.3 21.8 0.5 22.1 2.1 0.3 1.6 -1.2 1.7 -21.7 1.7 -21.5 0 -22.1 -0.1 -22.1 -2z"/>
  <path d="M189.1 410.8 c1.1 -4 2.3 -12.4 2.6 -18.5 l0.6 -11.3 3.6 -0.9 c23.7 -6.2 78 -15.6 102.4 -17.7 7.1 -0.6 7.7 -0.5 7.7 1.3 0 1.7 -1.3 2 -12.9 3.1 -20.2 1.9 -58.3 8.6 -90.2 15.8 l-6.6 1.5 -0.6 9.2 c-0.4 5.1 -1.5 12.6 -2.5 16.7 -1.4 6.2 -2.1 7.6 -3.9 7.8 l-2.1 0.3 1.9 -7.3z"/>
  <path d="M347.3 408.2 c-1.5 -10.2 -6.5 -25.5 -10.3 -31.5 -1.6 -2.6 -3 -5.7 -3 -6.7 0 -1.5 -0.7 -2 -2.4 -2 -1.4 0 -2.8 -0.4 -3.1 -1 -0.3 -0.5 -1.5 -1 -2.6 -1 -1.2 0 -1.9 -0.7 -1.9 -2 0 -3.7 5.4 -2.6 10.6 2.2 7.6 7 14.9 25.8 17 43.7 0.6 5.6 0.5 6.1 -1.3 6.1 -1.6 0 -2.1 -1.2 -3 -7.8z"/>
  <path d="M394 372.3 c-4.7 -1.9 -15.9 -6 -25 -9.1 l-16.5 -5.6 -17 -0.4 c-16.8 -0.4 -45.9 1 -58.5 2.8 -29.2 4.3 -45.8 7.4 -56.3 10.6 -1.5 0.5 -1.8 0.1 -1.5 -1.7 0.3 -2 1.5 -2.6 9.3 -4.6 8.8 -2.2 28.7 -5.6 41.5 -7.1 l6.5 -0.7 0.5 -8 0.5 -7.9 6 -1.2 c15.9 -3.2 47 -4.4 62.5 -2.4 15.6 2.1 7.3 -2.3 -9.7 -5.1 l-7.3 -1.2 0 -3.2 c0 -3.2 0.1 -3.3 6.3 -4.4 9.6 -1.8 34.1 -2.5 43 -1.2 11.6 1.6 21.1 5.1 21.5 7.9 0.3 1.7 0.8 2.1 2.5 1.7 1.2 -0.3 6.5 -1.2 11.7 -2 12.8 -2.1 13 -2.2 9.5 -4.5 -5.9 -3.9 -6.5 -4.5 -6.5 -7.3 0 -2.7 -5.7 -9.7 -7.8 -9.7 -0.5 0 -2.1 -1.1 -3.6 -2.5 -1.5 -1.4 -3.1 -2.5 -3.7 -2.5 -0.5 0 -0.9 -0.4 -0.9 -1 0 -0.5 -0.6 -1 -1.4 -1 -0.7 0 -2.4 -1.1 -3.8 -2.4 -1.4 -1.2 -3.3 -2.6 -4.2 -2.9 -2.1 -0.8 -2.3 -7.7 -0.2 -7.7 0.7 0 1.6 0.8 1.8 1.8 0.3 1.1 6.4 6 13.7 11.1 10 7 13.1 9.8 13.1 11.4 0 4.9 1.3 6.3 10 11.2 4.9 2.7 8.8 5.1 8.6 5.3 -0.4 0.3 -29.5 5.5 -37.8 6.6 -4.3 0.6 -4.8 1 -4.8 3.2 l0 2.5 -9 -0.7 c-8.4 -0.6 -9 -0.6 -9 1.2 0.1 7.1 11.6 20.2 21.3 24.4 5.4 2.4 5.7 2.7 5.7 6.3 0 2.3 -0.5 3.7 -1.2 3.6 -0.7 -0.1 -5.1 -1.7 -9.8 -3.6z"/>
  <path d="M219 361.6 c0 -0.8 2.6 -2 6.8 -3.1 9.9 -2.6 20.6 -7.2 23.3 -10.1 3.2 -3.4 1.9 -5.2 -6.2 -8.5 -5.8 -2.3 -6.4 -2.9 -6.9 -5.9 -0.5 -3.2 -1.3 -3.8 -13.7 -10.5 -7.3 -3.9 -14.4 -7.9 -15.8 -9 -3.3 -2.6 -4.3 -8.4 -5.2 -31.2 -0.5 -13.7 -0.9 -17 -2 -16.6 -0.8 0.3 -1.3 -0.2 -1.3 -1.5 0 -2.7 4.4 -4 16.3 -4.9 l8.7 -0.6 0.1 14.4 c0.1 7.9 0.4 16.9 0.7 19.9 l0.7 5.5 9 0.3 c13.2 0.5 21.3 -0.5 21.1 -2.6 -0.1 -1.3 1.2 -1.8 5.9 -2.4 3.3 -0.5 14.1 -2.2 24 -3.9 14 -2.3 18.4 -2.8 20 -1.9 1.7 0.9 5.5 0.5 18.1 -2 34.3 -6.7 38.6 -8.3 42.6 -15.7 2.7 -4.9 3.8 -11.7 5.3 -34.2 0.8 -11.8 0.7 -71.2 -0.1 -82.1 -0.6 -7.5 -1 -9.1 -2.5 -9.5 -1.2 -0.4 -1.9 -1.6 -1.9 -3.1 l0 -2.4 -14.4 0 c-22.8 0 -46.5 3 -67.4 8.5 -15.7 4.2 -18.8 2.9 -7.4 -3 l6.7 -3.5 -5 0.6 -5 0.6 8.1 -4.9 c4.5 -2.7 10.2 -6.6 12.6 -8.6 2.5 -2 5.3 -3.7 6.4 -3.7 1.4 0 0.8 1.1 -2.6 4.7 l-4.5 4.7 4 -3.1 c3.7 -2.9 5.3 -3.3 18 -4.9 26.4 -3.4 69.6 -2.2 74.8 2 2.2 1.7 3.6 130.6 1.4 130.6 -1.5 0 -1.6 1.3 -3.3 23.2 l-0.7 8.7 -4.1 1.6 c-9.9 3.7 -54.8 12.9 -87.6 17.9 -25.6 3.9 -38.1 5.5 -55.9 6.8 -15.6 1.1 -16.2 1.3 -13.2 2.7 1.8 0.8 3.1 2.2 3.1 3.3 0 1.3 0.8 1.8 3.1 1.8 4.8 0 6.9 1.6 6.9 5.4 0 3.1 0.3 3.3 5.5 5 3 0.9 5.5 2.1 5.5 2.7 0 0.5 0.7 0.9 1.5 0.9 2.6 0 1.7 10.9 -1 12.4 -1.1 0.6 -2.2 1.4 -2.5 1.8 -1.7 2.2 -22.2 8.8 -27.3 8.8 -1.6 0 -2.7 -0.6 -2.7 -1.4z"/>
  <path d="M31.3 358.2 c1 -1 1.4 -2.2 1 -2.7 -0.5 -0.4 -0.2 -0.5 0.5 -0.1 0.8 0.5 1.9 0.1 2.7 -1 1.3 -1.7 1.4 -1.6 1.5 1.9 0 3.6 -0.1 3.7 -3.7 3.7 -3.4 0 -3.5 -0.1 -2 -1.8z"/>
  <path d="M149 346.5 c0 -3.3 0.2 -3.5 3.5 -3.5 4.2 0 4.7 2.1 1 3.8 -1.4 0.6 -2.5 1.6 -2.5 2.2 0 0.5 -0.4 1 -1 1 -0.5 0 -1 -1.6 -1 -3.5z"/>
  <path d="M154 339.1 c0 -4.9 0.9 -6.1 4.6 -6.1 3.1 0 3.4 0.3 3.4 2.9 0 4.9 -0.9 6.1 -4.6 6.1 -3.1 0 -3.4 -0.3 -3.4 -2.9z"/>
  <path d="M160 326.5 c0 -3.3 0.2 -3.5 3.5 -3.5 3.3 0 3.5 0.2 3.5 3.5 0 3.3 -0.2 3.5 -3.5 3.5 -3.3 0 -3.5 -0.2 -3.5 -3.5z"/>
  <path d="M164 316.5 c0 -3.3 0.2 -3.5 3.5 -3.5 3.3 0 3.5 0.2 3.5 3.5 0 3.3 -0.2 3.5 -3.5 3.5 -3.3 0 -3.5 -0.2 -3.5 -3.5z"/>
  <path d="M439.6 319.1 c-0.6 -0.9 6 -35 6.9 -35.9 0.2 -0.2 0.7 0.8 1.1 2.2 0.7 3 -5.4 34.6 -6.7 34.6 -0.4 0 -1 -0.4 -1.3 -0.9z"/>
  <path d="M435.3 315.8 c-0.9 -1 -0.4 -6.6 1.8 -22.3 1.6 -11.6 3.1 -21.4 3.3 -22 0.1 -0.5 1.1 0.5 2 2.3 1.7 3.3 1.6 3.9 -1.5 21.5 -3.7 21.2 -4 22.4 -5.6 20.5z"/>
  <path d="M429.3 311.2 c-1 -0.6 -0.6 -6.4 1.7 -25.7 1.6 -13.8 3 -25.9 3 -27 0.1 -2 0.1 -2 1.5 -0.1 0.8 1.1 1.8 3.4 2.1 5.3 0.6 3.3 -5.5 48.3 -6.6 48.3 -0.3 0 -1.1 -0.4 -1.7 -0.8z"/>
  <path d="M67 305.6 c0 -2 0.5 -3.6 1 -3.6 0.6 0 1 -0.7 1 -1.5 0 -0.8 0.7 -1.5 1.5 -1.5 0.9 0 1.5 -0.9 1.5 -2.5 0 -1.4 0.4 -2.5 0.9 -2.5 0.5 0 1.2 -1.1 1.5 -2.5 0.5 -1.9 1.3 -2.5 3.2 -2.5 3.2 0 3 0.7 -3.2 10.6 -6 9.6 -7.4 10.8 -7.4 6z"/>
  <path d="M422.5 306.1 c-1.7 -1.9 -1.6 -3.1 2 -28.3 2 -14.5 4 -27.6 4.4 -29.3 l0.8 -3 1.5 3 c1.4 2.8 1.3 5.1 -2.1 30.7 -2 15.2 -3.9 27.9 -4.2 28.2 -0.3 0.4 -1.4 -0.3 -2.4 -1.3z"/>
  <path d="M81 282 c0 -3.6 2.9 -10 4.6 -10 0.6 0 1.4 -2 1.7 -4.7 0.3 -2.6 1 -4.9 1.6 -5.1 0.6 -0.2 1.1 -1.1 1.1 -1.9 0 -0.9 0.5 -3.3 1.2 -5.4 0.9 -3.1 1.6 -3.9 3.4 -3.9 l2.4 0 -3.4 9.4 c-4.6 12.5 -10.2 24.6 -11.5 24.6 -0.6 0 -1.1 -1.3 -1.1 -3z"/>
  <path d="M95 246.4 c0 -3.5 2.1 -10.4 3.2 -10.4 0.4 0 0.8 -1.6 0.8 -3.5 0 -1.9 0.5 -3.5 1 -3.5 0.6 0 1 -1.3 1 -2.9 0 -1.5 0.5 -4.2 1.1 -6 1 -2.8 0.9 -3.4 -1 -5 -1.2 -1.1 -2.1 -3 -2.1 -4.6 0 -3.5 3.1 -13.5 4.2 -13.5 0.4 0 0.8 -1.1 0.8 -2.5 0 -1.4 0.5 -2.5 1 -2.5 0.6 0 1 -0.9 1 -2 0 -2.2 2 -7 2.9 -7 0.3 0 1.2 0.4 1.9 0.9 1 0.6 0.6 2.6 -2.1 9.2 -1.9 4.6 -4.2 10.8 -5.1 13.7 l-1.5 5.3 2.9 -0.6 c2.5 -0.6 3 -0.4 3 1.3 0 1.1 0.3 2.2 0.8 2.5 0.4 0.2 0.1 0.2 -0.5 0.1 -0.7 -0.2 -1.3 0.2 -1.3 0.9 0 0.7 -2.1 8.3 -4.6 17 -3.1 10.3 -5.1 15.7 -6 15.7 -0.8 0 -1.4 -1.1 -1.4 -2.6z"/>
  <path d="M226.4 103.5 c1.8 -1.3 1.8 -1.6 0.4 -3.2 -2.8 -3.3 -3 -5.3 -0.4 -5.3 1.3 0 2.9 0.7 3.6 1.5 0.7 0.8 1.9 1.5 2.6 1.5 0.9 0 1.4 1.2 1.4 3.5 l0 3.5 -4.7 0 c-4.4 -0.1 -4.6 -0.2 -2.9 -1.5z"/>
  <path d="M248.6 63.3 c-0.3 -0.4 -0.6 -1.7 -0.6 -3 0 -1.6 -0.6 -2.3 -1.9 -2.3 -2.3 0 -3.1 -1.9 -3.1 -6.8 0.1 -3.5 0.1 -3.6 1.6 -1.7 1.3 1.7 1.6 1.8 2.5 0.5 0.5 -0.8 0.7 -2.3 0.5 -3.2 -0.2 -1 -0.1 -1.8 0.4 -1.8 0.4 0 0.5 -2 0.2 -4.5 -0.4 -4.4 0.9 -6.3 2.2 -3 0.3 0.8 1.1 1.5 1.9 1.5 3.1 0 5.7 4.5 5.7 9.8 l0 5.2 -3.5 0 c-3.9 0 -4.8 1.7 -1.3 2.2 2.6 0.3 3.8 3.8 1.4 3.8 -0.9 0 -2.5 0.9 -3.5 1.9 -1.1 1.1 -2.2 1.7 -2.5 1.4z"/>
 </g>
 <g fill="#fdc883">
  <path d="M52.6 423.4 c-1.1 -2.9 -0.6 -4.4 1.4 -4.4 1.6 0 2 0.7 2 3 0 3.2 -2.3 4.2 -3.4 1.4z"/>
  <path d="M48.5 411 c-2.3 -4.6 -2.7 -4.9 -5 -4 -2.2 0.9 -2.5 0.7 -2.5 -1.5 0 -2.2 0.4 -2.5 3.5 -2.5 1.9 0 3.5 0.5 3.5 1 0 0.6 0.6 1 1.3 1 1.8 0 3.7 4.3 3.7 8 0 4.4 -1.6 3.7 -4.5 -2z"/>
  <path d="M150 346.8 c0 -2.5 1 -5.5 3 -8.6 4.1 -6.7 10.4 -20.5 12.6 -27.4 1.2 -4 2.3 -5.8 3.4 -5.8 1.4 0 1.8 2.2 2.8 14.8 0.7 8.1 1.2 17 1.2 19.8 0 6.1 -0.2 6.2 -12.5 6.5 -7 0.2 -8.2 0.5 -9.2 2.3 -1.1 1.9 -1.2 1.8 -1.3 -1.6z"/>
  <path d="M48.6 298.1 c-9.9 -5.9 -18.1 -11.2 -18.4 -11.9 -0.2 -0.8 1.3 -1.2 5.1 -1.2 l5.5 0 0.6 -6.7 c2.7 -30.9 6.5 -49 14.8 -70.5 2.9 -7.7 3 -7.8 6.5 -7.8 3.5 0 3.5 0 3.1 3.7 -0.3 2.1 -1.7 9.4 -3.1 16.3 -3.4 16.3 -5.5 33.5 -6.3 51 l-0.7 14 13.1 0 c7.3 0 13.2 0.3 13.2 0.7 0 2 -13.6 23.4 -14.8 23.2 -0.4 0 -8.8 -4.9 -18.6 -10.8z"/>
  <path d="M81 235.5 c0 -53.4 -0.2 -51.9 6 -47.5 l3 2.1 0 -2.6 c0 -2.6 0.1 -2.6 8.3 3.1 4.5 3.2 8.3 5.8 8.4 5.9 0.1 0 -1 3.3 -2.4 7.4 -2.2 6.1 -2.4 7.4 -1.2 8.2 0.8 0.5 1.5 0.4 1.7 -0.1 0.2 -0.6 1.7 -1 3.3 -1 2.5 0 2.9 0.4 2.9 2.6 0 2.1 -0.4 2.5 -1.9 2.1 -1.5 -0.3 -2.1 0.2 -2.6 2.2 -5.6 23.5 -21.2 66 -24.2 66.1 -1 0 -1.3 -10.4 -1.3 -48.5z"/>
 </g>
 <g fill="#e4b59b">
  <path d="M52.7 423 c-0.5 -2 0 -2 19.9 -2 16.7 0 20.4 0.3 20.4 1.4 0 2.2 -3.4 2.6 -22.1 2.6 -16.8 0 -17.7 -0.1 -18.2 -2z"/>
  <path d="M125 419 c0 -1.1 -0.7 -2 -1.5 -2 -0.9 0 -1.5 -0.9 -1.5 -2.5 0 -2.1 -0.5 -2.5 -3 -2.5 -1.6 0 -3 -0.4 -3 -1 0 -0.5 -0.7 -1 -1.5 -1 -0.9 0 -1.5 -0.9 -1.5 -2.5 0 -1.4 0.3 -2.5 0.8 -2.5 3 0 16.2 12.3 16.2 15.1 0 0.5 -1.1 0.9 -2.5 0.9 -1.8 0 -2.5 -0.5 -2.5 -2z"/>
  <path d="M30.7 406 l-2.8 -4 3 0 c2.4 0 3.1 0.4 3.1 2 0 1.2 0.7 2 1.6 2 0.9 0 1.4 0.7 1.2 1.7 -0.6 3.1 -3.2 2.4 -6.1 -1.7z"/>
  <path d="M38 406.5 c0 -2.2 0.4 -2.5 3.6 -2.5 4.4 0 4.2 1.8 -0.4 3.7 -3.1 1.3 -3.2 1.2 -3.2 -1.2z"/>
  <path d="M98.8 402.7 c-2.3 -0.9 -2.8 -1.7 -2.8 -4.4 0 -3.1 0.2 -3.3 3.6 -3.3 2.1 0 3.3 0.4 2.9 1 -0.3 0.6 -1.8 1 -3.3 1 -2.1 0.1 -1.6 0.5 2.7 2.3 6.5 2.6 7.8 4.7 2.9 4.6 -1.8 -0.1 -4.5 -0.6 -6 -1.2z"/>
  <path d="M19.9 384.3 c-0.9 -4.7 -0.9 -6.5 0.2 -9.7 2.5 -7.1 3.6 -5.4 3.6 5.4 0.1 7.6 -0.2 10 -1.2 10 -0.8 0 -1.8 -2.3 -2.6 -5.7z"/>
  <path d="M107.5 215 c-0.3 -0.5 -0.3 -1.5 0.1 -2.2 0.5 -0.8 0.2 -0.9 -0.9 -0.5 -1 0.3 -1.7 0.2 -1.7 -0.3 0 -0.6 1.4 -1 3 -1 2.5 0 3 0.4 3 2.5 0 2.5 -2.3 3.5 -3.5 1.5z"/>
  <path d="M97.1 194.9 c-6.6 -4.6 -7.2 -5.3 -6.9 -8.2 0.2 -2.6 1.1 -3.6 4.6 -5.5 4.1 -2.3 4.4 -2.3 7.7 -0.7 4.6 2.1 4.8 5.6 0.5 8.2 -3.2 1.8 -4 4.3 -1.5 4.3 0.8 0 1.5 0.5 1.5 1 0 0.6 0.7 1 1.5 1 0.9 0 1.5 0.9 1.5 2.5 0 1.4 -0.4 2.5 -0.8 2.5 -0.5 0 -4.1 -2.3 -8.1 -5.1z"/>
  <path d="M228.2 102.7 c2.7 -1.1 2.7 -1.1 0.5 -2.1 -2.2 -1.2 -3.6 -3.4 -5.9 -9.6 -0.7 -1.9 -2.8 -5.2 -4.6 -7.2 -1.9 -2.1 -2.9 -3.8 -2.2 -3.8 0.7 0 2.8 -1.1 4.7 -2.6 3 -2.3 3.3 -2.9 3.3 -8 l0 -5.4 3.9 0 c3.6 0 4 0.3 5.1 3.4 1.9 5.7 5.3 8.6 10.2 8.6 2.4 0 6 0.3 8.1 0.6 3.5 0.6 3.7 0.9 3.7 4.3 -0.1 3.2 -0.2 3.4 -1.4 1.9 -2 -2.7 -2.9 -2.1 -2.4 1.7 0.3 2.8 0.1 3.5 -1.3 3.5 -1.1 0 -2.2 1.4 -3.1 4.2 -1 3.3 -2.2 4.6 -5.7 6.5 -4.2 2.2 -4.2 2.3 -1.6 2.3 2.8 0 2.8 0.1 0.9 1.5 -1.2 0.9 -4.1 1.4 -8.4 1.4 -5.7 -0.1 -6.2 -0.2 -3.8 -1.2z"/>
  <path d="M246.6 60 c-1.9 -2.3 -2.6 -4.3 -2.6 -7.3 0.1 -4.1 0.1 -4.2 1.5 -1.7 1.4 2.5 1.4 2.5 1.5 0.3 0 -1.3 0.4 -2.3 1 -2.3 0.5 0 0.7 -0.7 0.4 -1.5 -0.4 -0.8 -0.2 -1.5 0.3 -1.5 0.6 0 0.8 -2.3 0.6 -5.2 -0.3 -4.6 -0.2 -5 0.9 -3.3 0.7 1.1 1.8 2 2.4 2 0.7 0 3.3 1.9 5.8 4.2 4.7 4.3 8.5 11 8.6 15 0 2.2 -0.3 2.2 -6.2 1.7 -3.5 -0.3 -7.1 -0.7 -8.1 -0.9 -0.9 -0.2 -1.5 0 -1.2 0.5 0.3 0.4 -0.1 1.3 -0.9 1.9 -1.1 0.9 -1.9 0.5 -4 -1.9z"/>
 </g>
 <g fill="#9ab5c0">
  <path d="M94 396.6 c0 -3.2 0.3 -3.5 3.2 -3.8 3.1 -0.3 3.3 -0.6 4.9 -6.5 1.7 -6.5 3.3 -9.3 5.4 -9.3 0.7 0 1.5 -0.7 1.9 -1.5 0.3 -0.8 1.2 -1.5 2.1 -1.5 0.8 0 1.5 -0.4 1.5 -1 0 -0.5 0.5 -1 1.1 -1 0.6 0 1.7 -0.7 2.5 -1.5 0.9 -0.8 3.1 -1.5 5 -1.5 2.6 0 3.4 -0.4 3.4 -1.7 0 -1.7 11 -8.3 13.8 -8.3 0.7 0 1.2 -0.9 1.2 -2.1 0 -1.2 0.8 -2.3 2 -2.6 1.1 -0.3 2 -1.4 2 -2.4 0 -1.1 0.4 -1.9 0.9 -1.9 0.5 0 1.1 -0.9 1.4 -2 0.3 -1.4 1.4 -2 3.1 -2 3.4 0 3.3 0.8 -1.1 6.6 -6.4 8.6 -8.6 10.4 -19.4 16 -14.1 7.4 -21.5 13.2 -22.8 18.1 -0.6 2.1 -1.1 4.8 -1.1 6 0 2.4 -2.6 4.3 -6.2 4.4 -2.1 0.1 -2.1 0.2 0.7 1.4 l3 1.4 -4.2 0.1 c-4.2 0 -4.3 -0.1 -4.3 -3.4z"/>
  <path d="M32.4 357.5 c1.1 -0.8 2.3 -2.1 2.8 -2.7 0.5 -0.8 0.8 -0.3 0.8 1.5 0 2.3 -0.4 2.7 -2.7 2.7 -2.7 -0.1 -2.7 -0.1 -0.9 -1.5z"/>
  <path d="M152 341.6 c0 -2.9 0.4 -3.6 2 -3.6 1.6 0 2 -0.7 2 -3 0 -3.7 2.9 -10 4.7 -10 0.8 0 1.3 -1.3 1.3 -3.5 0 -3.1 0.3 -3.5 2.5 -3.5 1.4 0 2.5 0.4 2.5 0.8 0 1.8 -12.7 25.6 -13.8 26 -0.8 0.2 -1.2 -0.9 -1.2 -3.2z"/>
  <path d="M165 314.6 c0 -1.3 2 -9.4 4.5 -18 2.5 -8.7 4.5 -16.4 4.5 -17.2 0 -0.8 0.9 -1.4 2 -1.4 1.5 0 2 -0.7 2 -2.6 0 -1.7 0.6 -2.8 2 -3.1 1.1 -0.3 2 -0.9 2 -1.4 0 -0.5 0.7 -0.9 1.5 -0.9 0.8 0 1.5 -0.4 1.5 -0.9 0 -0.4 2.6 -2 5.9 -3.5 6.6 -2.9 12.1 -3.5 12.1 -1.1 0 0.8 -0.6 1.5 -1.4 1.5 -2.2 0 -16.8 7.8 -20.2 10.7 -2.7 2.4 -3.7 4.8 -7.2 17.9 -4.5 16.7 -6.6 22.4 -8.1 22.4 -0.6 0 -1.1 -1.1 -1.1 -2.4z"/>
  <path d="M253.6 295.5 c-0.9 -2 -2.7 -8.7 -4.2 -14.8 -3.6 -15.6 -3.5 -15.4 -8.6 -16.2 -8.4 -1.2 -9.8 -1.7 -9.8 -3.1 0 -1.7 3.1 -1.8 11.7 -0.3 5.2 0.9 6.4 1.5 6.8 3.3 0.2 1.1 1.4 6.1 2.5 10.9 1.1 4.9 2 9.9 2 11.3 0 1.3 0.5 2.4 1 2.4 0.6 0 1 1.1 1 2.5 0 1.4 0.6 2.5 1.3 2.6 3.4 0.3 9.8 -0.6 27 -3.5 18.1 -3.1 18.8 -3.2 20.4 -1.4 0.9 1 1.2 1.8 0.6 1.8 -0.5 0 -5.9 0.9 -11.9 2 -6 1 -15.6 2.6 -21.4 3.5 -5.8 0.8 -11.9 1.7 -13.7 2 -3 0.5 -3.4 0.3 -4.7 -3z"/>
  <path d="M209 262 c0 -1.7 0.7 -2 4 -2 4.5 0 5.7 2.3 1.8 3.4 -4.2 1.1 -5.8 0.7 -5.8 -1.4z"/>
  <path d="M282 218.2 c-4.1 -1.5 -7.6 -3 -7.8 -3.4 -0.2 -0.5 -1.9 -0.8 -3.7 -0.8 -1.9 0 -4 -0.7 -4.9 -1.5 -0.8 -0.8 -2.1 -1.5 -2.9 -1.5 -2.1 0 -13.1 -4.3 -13.5 -5.2 -0.2 -0.4 -1.1 -0.8 -2.1 -0.8 -3.6 0 -11.5 -3.4 -13.7 -5.9 -1.8 -2.1 -2.4 -2.3 -3.7 -1.3 -1.2 1 -1.6 0.9 -2.1 -0.4 -1.7 -4.3 -0.3 -9.4 2.6 -9.4 2.1 0 2.2 1.9 0.3 6.2 -0.5 1.4 0.4 2 5.2 3.4 16.1 4.6 52.1 19.7 53.9 22.6 0.6 1 1.3 1.2 -7.6 -2z"/>
  <path d="M228 181.3 c0.1 -4.4 0.2 -4.6 1.3 -2.5 0.7 1.2 1.6 1.9 2 1.6 0.4 -0.4 0.7 0.7 0.7 2.4 0 2.5 -0.4 3.2 -2 3.2 -1.7 0 -2 -0.7 -2 -4.7z"/>
  <path d="M105.5 177.4 c-2.2 -0.8 -4.6 -2.1 -5.4 -2.9 -2.4 -2.4 1.5 -3.1 6.8 -1.1 2.5 0.9 5.4 1.6 6.4 1.6 1 0 1.7 0.8 1.7 2 0 2.4 -3.5 2.6 -9.5 0.4z"/>
  <path d="M268 151.2 c0 -0.7 1.7 -1.8 6.3 -4 0.4 -0.2 0.7 0.8 0.7 2.2 0 2.3 -0.4 2.6 -3.5 2.6 -1.9 0 -3.5 -0.4 -3.5 -0.8z"/>
  <path d="M287 136.5 c0 -1.6 0.6 -2.5 1.5 -2.5 0.8 0 1.5 -0.4 1.5 -1 0 -0.5 1.4 -1 3 -1 2.7 0 2.9 0.2 1.8 1.9 -1 1.7 -5.8 5.1 -7.2 5.1 -0.3 0 -0.6 -1.1 -0.6 -2.5z"/>
  <path d="M254.7 101.3 c-1 -0.3 -1.6 -1 -1.4 -1.6 0.6 -1.9 4.1 -1.4 4.5 0.6 0.4 1.7 0.1 1.8 -3.1 1z"/>
  <path d="M257.9 88.3 c-1.5 -1.5 -3.4 -4 -4.3 -5.5 -1.1 -1.6 -2.3 -2.5 -3.2 -2.1 -0.9 0.3 -1.4 -0.2 -1.4 -1.6 0 -1.7 0.6 -2.1 3.4 -2.1 2.7 0 3.6 0.5 4.2 2.2 0.3 1.2 1.5 2.9 2.6 3.8 1.4 1.1 1.9 2.5 1.6 4.9 l-0.3 3.3 -2.6 -2.9z"/>
  <path d="M186.2 81.8 c0.5 -1.4 6.4 -3.6 10.1 -3.7 2 -0.1 2.7 0.4 2.7 1.8 0 1.4 -1 2 -3.7 2.5 -6 0.9 -9.5 0.7 -9.1 -0.6z"/>
  <path d="M248.4 69.5 c-0.3 -1.4 -1 -2.5 -1.4 -2.5 -0.4 0 -1 -2 -1.3 -4.5 -0.4 -4.2 -1.3 -5.4 -9.5 -13.5 -9 -9.1 -17 -14 -25 -15.6 l-3.3 -0.7 1.6 3.9 c1 2.1 2.2 5.1 2.8 6.7 0.6 1.5 1.5 2.7 1.9 2.7 0.4 0 0.8 1.6 0.8 3.5 0 2.9 -0.4 3.5 -2.1 3.5 -1.1 0 -1.8 -0.4 -1.4 -0.9 0.3 -0.5 -1 -3.8 -2.9 -7.3 -1.9 -3.5 -3.8 -8 -4.1 -10 -0.6 -3.3 -0.4 -3.9 1.7 -4.8 3.4 -1.6 15.5 1.1 22.2 4.9 5 2.9 17.6 14.9 17.6 16.9 0 0.5 1.4 2.6 3 4.7 2.4 3 2.8 4.1 1.9 5.2 -0.9 1 -0.9 2 0.1 3.8 1.3 2.4 1.4 2.4 2.7 0.5 2 -2.9 7 -3.3 14.3 -1.1 l6.5 1.9 -3 1.2 c-2.3 0.9 -3.9 0.9 -6.8 0 -4.5 -1.3 -7.4 -0.6 -8.2 2.1 -0.5 1.4 -1.5 1.9 -4 1.9 -2.9 0 -3.6 -0.4 -4.1 -2.5z"/>
  <path d="M249.9 48.8 c-0.8 -0.7 -3.4 -3.9 -5.8 -7 -3.8 -5.1 -11.9 -11.8 -14.3 -11.8 -2.1 0 -0.4 -1.9 3 -3.3 3.1 -1.2 4.1 -1.3 6.2 -0.2 4.7 2.4 11.6 10.9 13.9 16.8 1.1 3.2 2.1 6 2.1 6.2 0 1 -3.7 0.4 -5.1 -0.7z"/>
 </g>
 <g fill="#bc9c80">
  <path d="M52 419.9 c-0.6 -2.3 -1.6 -5.2 -2 -6.5 -0.8 -2.1 -0.7 -2.4 1.4 -2.4 2 0 2.6 0.8 3.5 4.4 1.5 6 1.4 8.6 -0.4 8.6 -0.8 0 -1.9 -1.7 -2.5 -4.1z"/>
  <path d="M126.7 423.3 c-1 -1 -0.8 -7.3 0.2 -7.3 0.8 0 4.1 6 4.1 7.4 0 0.8 -3.5 0.8 -4.3 -0.1z"/>
  <path d="M117 412 c0 -0.5 -0.7 -1 -1.5 -1 -0.8 0 -1.5 -0.4 -1.5 -0.8 0 -0.4 -1.6 -1.4 -3.5 -2.1 -1.9 -0.7 -3.5 -1.7 -3.5 -2.2 0 -0.5 -0.9 -0.9 -2 -0.9 -1.1 0 -2 -0.4 -2 -0.9 0 -0.4 -1.6 -1.1 -3.5 -1.4 -4.5 -0.7 -6.5 -2.8 -6.5 -6.6 0 -2.8 0.3 -3.1 3.1 -3.1 3.7 0 7 2.6 4.5 3.6 -0.8 0.3 -2 0.3 -2.6 -0.1 -0.5 -0.3 -1 -0.2 -1 0.3 0 0.5 3.1 2.1 7 3.6 6.8 2.7 18.1 9.4 19.4 11.5 0.5 0.7 -0.5 1.1 -2.8 1.1 -2 0 -3.6 -0.4 -3.6 -1z"/>
  <path d="M35 407.5 c0 -2.2 0.4 -2.5 3.6 -2.5 4.4 0 4.2 1.8 -0.4 3.7 -3.1 1.3 -3.2 1.2 -3.2 -1.2z"/>
  <path d="M28.9 403 c-3.3 -4.3 -7.9 -13.4 -7.9 -15.5 0 -2 3.6 -1.9 4.4 0.1 0.3 0.9 0.6 2.7 0.6 4 0 1.4 0.6 2.4 1.4 2.4 0.8 0 1.8 1 2.2 2.3 0.4 1.2 1.1 2.5 1.6 2.8 0.5 0.3 0.8 2.1 0.6 4 l-0.3 3.4 -2.6 -3.5z"/>
  <path d="M20.7 373.3 c1.1 -3.1 6.3 -10.2 10.9 -14.9 l4.4 -4.6 0 3.5 c0 3.3 -2.4 6.7 -4.8 6.7 -0.7 0 -1.2 0.9 -1.2 2 0 1.1 -0.7 2.3 -1.5 2.6 -0.8 0.4 -1.5 1.2 -1.5 2 0 0.8 -0.4 1.4 -1 1.4 -0.5 0 -1 0.7 -1 1.5 0 0.9 -0.9 1.5 -2.5 1.5 -1.9 0 -2.3 -0.4 -1.8 -1.7z"/>
  <path d="M151 343.7 c0 -3.2 0.3 -3.7 2.4 -3.7 1.9 0 2.3 0.4 1.9 1.9 -0.3 1.1 -1.4 2.7 -2.4 3.7 -1.8 1.7 -1.9 1.6 -1.9 -1.9z"/>
  <path d="M161 324.5 c0 -1.9 0.5 -3.5 1 -3.5 0.6 0 1 -1.1 1 -2.5 0 -1.8 0.5 -2.5 2 -2.5 2.1 0 2.6 1.9 1.1 4.8 -0.5 0.9 -1.4 2.9 -2.2 4.5 -1.7 3.7 -2.9 3.4 -2.9 -0.8z"/>
  <path d="M222.2 299.1 c-1.5 -0.9 -3.3 -26.1 -2.4 -33.4 0.4 -3.5 0.6 -3.7 4.1 -3.6 2 0.1 2.8 0.3 1.8 0.6 -1.6 0.4 -1.8 1.9 -1.5 18.9 0.2 10.1 0.1 18.4 -0.2 18.4 -0.3 0 -1.1 -0.4 -1.8 -0.9z"/>
  <path d="M30.5 286.9 c-0.4 -0.6 -0.4 -2.6 -0.1 -4.5 0.8 -4 3.6 -4.7 3.6 -0.9 0 2.3 0.3 2.5 5 2.5 4.3 0 5 0.3 5 2 0 1.8 -0.7 2 -6.4 2 -3.6 0 -6.8 -0.5 -7.1 -1.1z"/>
  <path d="M53 286 c0 -1.9 0.7 -2 15 -2 14.8 0 15 0 14 2 -1 1.9 -2.1 2 -15 2 -13.3 0 -14 -0.1 -14 -2z"/>
  <path d="M41.4 272.9 c1.1 -16.1 4.8 -35.8 10 -53.4 0.4 -1.1 0 -0.6 -0.9 1 -4.7 9.5 -15.5 48.1 -15.5 55.4 0 1.5 -0.6 2.1 -2.1 2.1 -2 0 -2.1 -0.3 -1.4 -5.7 1.7 -13.9 11.2 -45.3 19.3 -63.9 3.5 -8 4.4 -9.3 9.3 -12.6 5.7 -3.9 15.1 -8.1 20.7 -9.1 2.7 -0.5 3.2 -0.3 3.2 1.2 0 1.3 -1.3 2.3 -4.8 3.4 -2.6 0.9 -6.5 2.4 -8.7 3.4 -3.8 1.7 -4 2 -4.1 6.3 0 2.5 -1.5 11.3 -3.2 19.5 -1.7 8.3 -3.7 20.5 -4.4 27.3 -1 10.6 -1.4 12.2 -3 12.2 -1.3 0 -1.8 -0.8 -1.8 -2.9 0 -5.3 3.1 -27.4 5.5 -39.6 1.3 -6.5 2.2 -12.1 2.1 -12.3 -0.8 -0.7 -7 18 -10.2 30.4 -3.3 13 -6.1 30.6 -6.6 41.4 -0.3 4.5 -0.6 5.5 -2.2 5.8 -1.8 0.4 -1.9 -0.1 -1.2 -9.9z"/>
  <path d="M53 270.6 c0 -6.4 0.7 -8.6 2.6 -8.6 1.1 0 1.4 1.7 1.4 7 0 6.3 -0.2 7 -2 7 -1.8 0 -2 -0.7 -2 -5.4z"/>
  <path d="M100.3 196.9 c-2.4 -1.7 -4.3 -3.5 -4.3 -4.2 0 -3.2 1.4 -5.5 4.1 -7.1 1.6 -0.9 2.9 -2.4 2.9 -3.2 0 -1.7 0.5 -1.7 5.1 0.4 l3.7 1.7 -3.1 7.8 c-1.6 4.2 -3.3 7.7 -3.6 7.7 -0.3 -0.1 -2.5 -1.4 -4.8 -3.1z"/>
  <path d="M239 168.4 c0 -1 13.1 -9.4 14.8 -9.4 1.1 0 2.2 -0.5 2.4 -1.1 0.2 -0.6 2.5 -1.3 5.1 -1.6 6.1 -0.7 6.6 1.8 0.7 3.6 -2.2 0.6 -8.3 2.9 -13.5 5 -5.2 2.1 -9.5 3.7 -9.5 3.5z"/>
  <path d="M269 155.1 c0 -1.4 1.1 -2.2 3.8 -2.9 3.3 -0.9 3.4 -1 1 -1.1 -1.6 -0.1 -2.8 -0.6 -2.8 -1.2 0 -3.4 34.3 -10.6 59.8 -12.5 8.9 -0.6 9.2 -0.6 9.2 1.5 0 1.1 -0.4 2.1 -1 2.1 -0.5 0 -1 0.7 -1 1.5 0 1.5 -2.3 2 -13.5 3 -9.7 0.9 -30.1 4.9 -42.9 8.5 -12.5 3.5 -12.6 3.5 -12.6 1.1z"/>
  <path d="M365.5 145.3 c-7.6 -0.9 -9.5 -1.5 -9.5 -2.8 0 -1.1 1.2 -1.5 4.5 -1.5 3.8 0 4.5 -0.3 4.5 -2 0 -1.3 0.7 -2 1.9 -2 1.5 0 2 0.9 2.3 4.5 0.2 2.5 0.1 4.4 -0.2 4.4 -0.3 -0.1 -1.8 -0.4 -3.5 -0.6z"/>
  <path d="M217 81 c0 -1.1 0.5 -2 1.1 -2 0.7 0 2.2 -1.2 3.5 -2.7 1.9 -2.2 2.4 -4 2.4 -8 0 -6 2.1 -8.3 7.7 -8.3 4.6 0 7.3 3 7.3 7.9 0 4.6 2 5.8 6.4 4.1 1.5 -0.5 4.3 -1 6.2 -1 l3.4 0 0 6.3 c-0.1 5 -0.3 5.9 -1.3 4.6 -1.3 -1.6 -2.4 -1.9 -10.7 -2.3 -7.4 -0.4 -9.5 -1.7 -12.2 -7.6 -1.3 -2.8 -2.6 -5 -3 -5 -0.4 0 -0.5 2 -0.1 4.5 0.5 4.2 0.4 4.7 -3.1 8 -4.2 3.9 -7.6 4.6 -7.6 1.5z"/>
 </g>
 <g fill="#d69b61">
  <path d="M52.1 419.4 c-1.3 -5.1 -4.5 -11.9 -6 -12.9 -0.5 -0.3 -3.3 0.4 -6.2 1.5 -6.3 2.3 -6.3 2.3 -12.3 -7.4 -5.3 -8.5 -7.6 -15 -7.6 -21.2 0 -6.8 1.2 -8.4 6.6 -8.4 7.3 0 15.7 5 30.9 18.5 5.8 5.1 7.8 6.4 11.7 6.9 7.9 1.2 16.8 9.6 21.2 20 3.3 7.9 4 7.6 -17.8 7.6 l-19.4 0 -1.1 -4.6z"/>
  <path d="M41 281 c0 -4.3 2.3 -5.7 3.3 -2 0.7 2.8 -0.3 6 -1.9 6 -1 0 -1.4 -1.3 -1.4 -4z"/>
  <path d="M53.8 266.3 c-0.6 -2.8 0.2 -5.3 1.8 -5.3 0.9 0 1.4 1.1 1.4 3.5 0 3.7 -2.4 5 -3.2 1.8z"/>
  <path d="M43 259.5 c0 -2.7 0.4 -3.5 1.8 -3.5 1.3 0 1.8 0.6 1.6 2.3 -0.1 1.2 -0.3 2.8 -0.3 3.5 -0.1 0.6 -0.8 1.2 -1.6 1.2 -1 0 -1.5 -1.1 -1.5 -3.5z"/>
  <path d="M54.8 253.3 c-0.6 -2.8 0.2 -5.3 1.8 -5.3 0.9 0 1.4 1.1 1.4 3.5 0 3.7 -2.4 5 -3.2 1.8z"/>
  <path d="M55.8 244.3 c-0.6 -2.8 0.2 -5.3 1.8 -5.3 0.9 0 1.4 1.1 1.4 3.5 0 3.7 -2.4 5 -3.2 1.8z"/>
  <path d="M47 239.6 c0 -5.2 1.2 -8.6 3.1 -8.6 2 0 2 0.1 0.5 6.8 -1 4.6 -3.6 6 -3.6 1.8z"/>
  <path d="M57.6 229.8 c0.3 -2.6 1.3 -8.1 2 -11.8 0.3 -1.4 0.7 -3.5 0.9 -4.7 0.4 -2.7 1.3 -4.3 2.6 -4.3 1.3 0 1.2 2.2 -0.8 13.3 -1.4 7.6 -2.1 9.7 -3.4 9.7 -1.1 0 -1.5 -0.7 -1.3 -2.2z"/>
  <path d="M56.7 213.5 c0.6 -4.2 1 -5.1 1.8 -4.3 0.3 0.2 -0.2 2.2 -1 4.4 l-1.5 3.9 0.7 -4z"/>
 </g>
 <g fill="#a09494">
  <path d="M188 417.1 c0 -0.5 1 -4.9 2.1 -9.8 1.3 -5.1 2.2 -12.4 2.3 -17.5 0 -4.9 0.3 -8.8 0.4 -8.8 0.2 0 10.1 -2.1 22 -4.6 60.7 -12.8 108.9 -17.7 117.6 -11.9 7.3 4.8 15 22.7 18.1 41.7 0.8 5.1 1.5 9.9 1.5 10.6 0 0.9 -17.1 1.2 -82 1.2 -49.3 0 -82 -0.4 -82 -0.9z"/>
  <path d="M92 396.5 c0 -1.4 -0.6 -2.5 -1.3 -2.5 -0.6 0 -2.7 -1.6 -4.4 -3.5 -1.8 -1.9 -3.7 -3.5 -4.2 -3.5 -0.5 0 -1.1 -0.4 -1.3 -0.8 -0.1 -0.4 -2.6 -1.8 -5.4 -3 -4 -1.7 -6.2 -2 -10.3 -1.5 l-5.1 0.6 0 -3.5 c0 -2.9 0.5 -3.7 2.3 -4.2 6 -1.6 18.8 0.7 22.1 3.9 0.8 0.8 1.9 1.5 2.5 1.5 0.6 0 1.1 0.5 1.1 1 0 0.6 0.6 1 1.3 1 1.9 0 6.7 5.6 6.7 7.9 0 1.2 0.6 2.1 1.5 2.1 0.9 0 1.5 0.9 1.5 2.5 0 1.9 -0.4 2.3 -1.7 1.8 -1.6 -0.6 -1.6 -0.5 -0.4 1 1.2 1.5 1 1.7 -1.8 1.7 -2.6 0 -3.1 -0.4 -3.1 -2.5z"/>
  <path d="M219 365.1 c0 -4.8 0 -4.9 3.7 -5.6 2 -0.4 7.4 -1.9 12 -3.5 16.2 -5.4 20.6 -10.8 12.1 -14.9 -2.4 -1.1 -5.5 -2.3 -7 -2.6 -2.4 -0.6 -2.8 -1.2 -2.8 -4 0 -3.3 -0.3 -3.5 -14.2 -11 -7.9 -4.3 -14.4 -7.8 -14.5 -7.9 -0.1 0 7.1 -0.1 16 -0.2 17.5 0 27 -0.9 58.7 -5.5 41.7 -6.1 95.2 -17.1 100.6 -20.6 1.6 -1.1 5.4 -55 7.7 -108.8 0.2 -3.8 0.4 7.9 0.5 26 0.1 18.2 0.5 44.8 0.9 59.2 l0.6 26.2 12.8 9 c12.5 8.9 13.2 9.7 14.1 15.6 0.2 1.3 3.4 3.8 9.3 7.2 5 2.9 8.6 5.3 8 5.3 -0.5 0 -9.8 1.6 -20.5 3.4 l-19.5 3.3 -0.5 -2.5 c-0.4 -2.2 -1.6 -3 -7.2 -4.9 -13.2 -4.6 -33.3 -5.4 -51.5 -2.2 l-6.8 1.2 11 2.2 c11.1 2.2 20.5 5.6 20.5 7.4 0 0.5 -2 1.9 -4.4 3 -3.7 1.9 -5 2 -8.7 1.1 -12.1 -2.8 -46.2 -2.1 -63.4 1.4 l-6 1.2 -0.5 7.9 c-0.5 7.6 -0.6 8 -3 8.3 -14 1.5 -34.7 5 -44.3 7.3 -6.5 1.6 -12.2 2.9 -12.8 2.9 -0.5 0 -0.9 -2.2 -0.9 -4.9z"/>
  <path d="M58 364.5 c0 -2.1 -0.5 -3.5 -1.2 -3.5 -2.7 -0.1 -6.8 -4.9 -6.8 -8 0 -2.7 0.3 -3 3.4 -3 4.6 0 8.6 3.3 8.6 7.1 0 1.9 0.5 2.9 1.5 2.9 1.1 0 1.5 1.1 1.5 4 0 3.9 -0.1 4 -3.5 4 -3.3 0 -3.5 -0.2 -3.5 -3.5z"/>
  <path d="M33 358.5 c0 -1 3.3 -6 4.9 -7.2 0.8 -0.7 3 -1.3 4.8 -1.3 3.1 0 3.3 0.2 3.3 3.3 0 2.9 -0.4 3.3 -4 4.5 -4.1 1.2 -9 1.6 -9 0.7z"/>
  <path d="M440 317.3 c0.2 -4.7 6.7 -33.6 7.2 -32.1 0.8 2 -5.3 33.8 -6.4 33.8 -0.4 0 -0.8 -0.8 -0.8 -1.7z"/>
  <path d="M435.6 315.2 c-0.8 -1.4 4.4 -42.2 5.4 -42.2 0.4 0 1.1 1 1.7 2.3 0.7 1.6 0.1 6.9 -2.2 19.7 -4.2 23.1 -3.9 21.7 -4.9 20.2z"/>
  <path d="M429.4 310.6 c-0.8 -2 4.6 -49.7 5.7 -50.9 0.4 -0.5 1.2 0.6 1.8 2.5 0.9 2.7 0.5 7.5 -2.4 26.2 -1.8 12.6 -3.6 23.1 -3.9 23.4 -0.3 0.2 -0.8 -0.3 -1.2 -1.2z"/>
  <path d="M422.8 305.6 c-1.5 -1.1 -1.3 -3.4 2.6 -30.6 3.8 -27.2 4.3 -29.2 5.5 -26.3 1.1 2.7 0.8 6.5 -1.8 28 -3.8 29.6 -4 30.6 -6.3 28.9z"/>
  <path d="M221.5 297.3 c-0.4 -1 -0.9 -9.1 -1.2 -18 -0.5 -12.8 -0.9 -16.3 -1.9 -16.3 -0.8 0 -1.4 -0.7 -1.4 -1.5 0 -1.1 1.2 -1.5 5 -1.5 3.8 0 5 0.4 5 1.5 0 0.8 -0.6 1.5 -1.4 1.5 -2.5 0 -2.8 3.6 -2.1 20.1 0.5 10.6 0.4 15.9 -0.3 15.9 -0.5 0 -1.3 -0.8 -1.7 -1.7z"/>
  <path d="M107.7 215.4 c-0.3 -0.3 -0.3 -1.2 -0.1 -1.9 0.3 -0.7 -0.3 -1.5 -1.3 -1.8 -1 -0.3 -0.4 -0.5 1.5 -0.6 2.8 -0.1 3.2 0.2 3.2 2.4 0 2.3 -1.8 3.4 -3.3 1.9z"/>
  <path d="M242.5 165.8 c1.6 -1.5 5.6 -4.2 8.7 -6.1 5.7 -3.4 6.3 -4.6 2.4 -4.8 -2 0 -2 -0.1 0.2 -1.2 2 -0.9 2.6 -0.8 3.3 0.5 0.7 1.3 1.9 1 8.3 -2.3 15.7 -8.3 55.3 -14.9 89.2 -14.9 12.8 0 13.2 0.1 13.8 2.3 1.4 5.4 2.3 5.2 -21.1 5.2 -23.5 0 -31.2 0.9 -54.8 6.5 -17.5 4.2 -46.3 13.5 -52 16.9 -0.6 0.3 0.3 -0.6 2 -2.1z"/>
  <path d="M213.7 79.9 c-1.5 -1.2 -3.9 -2.4 -5.5 -2.8 -3.7 -1 -4.3 -4.1 -0.8 -4.1 1.6 0 2.6 0.6 2.6 1.5 0 1 1.1 1.5 3.5 1.5 3.2 0 3.5 0.2 3.5 3 0 3.5 0.2 3.5 -3.3 0.9z"/>
  <path d="M221 79 c0 -2 0.5 -3 1.5 -3 1 0 1.5 -1.1 1.5 -3.5 0 -4.2 2.4 -4.9 3.4 -1 0.7 2.9 -1.5 7.4 -4.5 9.3 -1.7 1.1 -1.9 0.9 -1.9 -1.8z"/>
  <path d="M247 68.5 c0 -2.8 0.4 -3.5 1.9 -3.5 1.1 0 2.3 0.9 2.6 2.1 0.6 1.7 0.9 1.9 1.6 0.8 0.6 -1 0.9 -0.6 0.9 1.4 0 2.4 -0.3 2.7 -3.5 2.7 -3.3 0 -3.5 -0.2 -3.5 -3.5z"/>
  <path d="M205 68.3 c0 -3.4 1.2 -6.3 2.6 -6.3 1 0 1.4 1.3 1.4 4 0 3.3 -0.3 4 -2 4 -1.2 0 -2 -0.7 -2 -1.7z"/>
  <path d="M236 59.5 c0 -0.8 -0.9 -1.5 -2 -1.5 -1.1 0 -2 -0.4 -2 -0.9 0 -0.5 -1.1 -1.2 -2.5 -1.5 -2.1 -0.5 -2.5 -1.2 -2.5 -4.1 0 -3.3 0.2 -3.5 3.4 -3.5 1.9 0 4.1 0.7 5 1.5 0.8 0.8 1.9 1.5 2.5 1.5 0.6 0 1.1 0.7 1.1 1.5 0 0.8 0.9 1.5 2 1.5 1.6 0 2 0.7 2 3.5 0 3.3 -0.2 3.5 -3.5 3.5 -2.4 0 -3.5 -0.5 -3.5 -1.5z"/>
  <path d="M209 56.2 c0 -0.4 0.7 -1.8 1.7 -3.1 1.3 -1.9 1.4 -2.7 0.4 -4.3 -0.9 -1.5 -0.9 -2.3 -0.1 -3.3 1.4 -1.7 8.1 -2.9 12 -2 2.6 0.6 3 1.1 3 4.1 0 3.3 -0.2 3.4 -3.7 3.4 -3.8 0.1 -8.3 2.7 -8.3 4.9 0 0.6 -1.1 1.1 -2.5 1.1 -1.4 0 -2.5 -0.3 -2.5 -0.8z"/>
 </g>
 <g fill="#7c96aa">
  <path d="M92.7 397.4 c-10.8 -12.4 -17.4 -16.4 -27.4 -16.4 l-6.3 0 0 -7 c0 -8 -2.3 -13.8 -6.6 -16.7 -2.3 -1.4 -3.2 -1.5 -7.7 -0.4 -2.9 0.7 -6.9 1.5 -9 1.8 l-3.8 0.5 2.3 -3.7 c1.3 -2.1 3.4 -4.9 4.6 -6.2 2.2 -2.4 2.9 -2.5 8.8 -2 3.9 0.3 7.7 1.3 9.9 2.6 4.5 2.6 7.5 2.7 10.9 0 2.6 -2 2.6 -2 5.4 -0.1 3.6 2.7 10.9 10.5 15.1 16.5 1.9 2.6 3.6 4.7 3.8 4.7 0.7 0 -8.2 -16.9 -12.5 -23.5 -4.1 -6.5 -5.4 -8 -7.5 -8.7 -0.4 -0.2 1.8 -3 4.9 -6.3 14.9 -16 22.9 -34.5 25.6 -58.7 l1.2 -11.2 1.7 4.1 c5.1 12.1 11.7 44.8 13.2 65.3 l0.2 3.5 6.9 -6.5 c11.1 -10.5 18.4 -22.6 23.3 -38.7 2.4 -7.9 2.6 -10.4 2.7 -24.3 0 -12.8 -0.3 -17 -2.1 -24.2 -2.5 -9.6 -7.9 -24.4 -9.3 -25.3 -0.6 -0.3 -3.6 1.1 -6.7 3.3 l-5.8 3.8 -5.5 -2.7 c-3 -1.6 -7.6 -3.4 -10.2 -4.1 -3.4 -0.8 -4.8 -1.7 -4.8 -2.9 0 -1 -0.8 -1.9 -1.7 -2.2 -3.1 -0.7 15.7 -2 20.2 -1.4 l4.3 0.6 5.3 -8.5 c5.2 -8.4 17.9 -26.4 17.9 -25.3 0 0.2 -1.8 5 -4.1 10.4 -4.1 10.2 -7.9 22.5 -7.9 25.8 0 2.4 16.8 10.5 29.5 14.3 10.9 3.2 28.5 4.4 37.4 2.4 19.2 -4.2 32.8 -21.7 24.3 -31.4 -1.6 -1.8 -1.6 -1.9 1.3 -1.2 6.8 1.7 31.8 11.2 42.4 16.2 11.4 5.4 14.8 8.2 5.4 4.5 -7 -2.8 -19.1 -5.1 -26.3 -5.1 -8 0 -14.5 3.3 -22.7 11.5 -5 5 -6.3 7 -6.3 9.4 0 5.3 5.7 6.4 17.5 3.6 3.3 -0.8 11.2 -1.8 17.6 -2.1 10.1 -0.6 12.5 -0.4 18.5 1.4 7.2 2.2 11.5 5.6 12.9 10 0.5 1.9 0.3 2.2 -1.9 2.2 -1.4 0 -4.7 -0.5 -7.4 -1.1 -2.7 -0.5 -7.3 -0.9 -10.1 -0.7 l-5.1 0.3 6.5 4.8 c4.1 3.1 7.4 6.5 9.1 9.5 7.2 12.7 9.3 15.9 14.8 21.8 3.2 3.6 5.7 6.6 5.5 6.8 -0.6 0.5 -36.7 6.4 -43.6 7.2 l-6.3 0.7 -1.5 -3.7 c-1.3 -3 -4.6 -15.9 -7 -27.2 -0.4 -1.8 -1.6 -2.4 -6.8 -3.3 -21.6 -3.8 -45.8 1.4 -58.2 12.3 -3.2 2.8 -3.9 4.5 -7.5 17.8 -2.2 8.2 -5.2 18.1 -6.6 22 -3.9 10.9 -12.7 27.2 -19.8 36.8 -6.1 8.1 -6.9 8.8 -17.3 14.4 -20.9 11.3 -23.7 14 -25.8 24.4 -0.9 4.2 -4.2 6 -7.6 4.1 -2.2 -1.1 -2.3 -1.1 -0.9 0.5 0.8 1 2.3 2.2 3.5 2.6 1.7 0.7 1.4 0.9 -1.3 0.9 -2.3 0.1 -3.9 -0.6 -5.5 -2.5z"/>
  <path d="M80 283.5 c0 -2.8 0.4 -3.5 2 -3.5 2.3 0 2.6 2.6 0.6 5.3 -2 2.5 -2.6 2.1 -2.6 -1.8z"/>
  <path d="M198.7 203.4 c-1.3 -1.4 1.5 -4.4 8 -8.4 8.6 -5.4 12.3 -8.8 12.3 -11.4 0 -1.2 -1.7 -3.6 -4.2 -5.7 -4.8 -4.1 -5 -3.1 3 -12.9 5.8 -7.1 5.8 -11 0.1 -17.6 -4.7 -5.4 -4.9 -4.9 5.5 -12.1 3.8 -2.6 7.4 -5.6 8 -6.6 1.7 -2.7 -2 -5.2 -10.9 -7.3 -8.4 -2 -11.1 -4 -10.1 -7.8 0.5 -2 2.8 -3.6 10.9 -7.6 9 -4.5 10.8 -5.1 15.5 -4.8 l5.3 0.3 -8.8 5.1 c-5 2.8 -8.7 5.6 -8.5 6.3 0.1 0.7 -0.2 1.9 -0.8 2.6 -1.8 2.2 10 2.9 37 2.1 l24.4 -0.7 7.4 -3.5 c9.2 -4.2 12.9 -4.4 13.8 -0.9 1.6 6.3 -7.8 19.6 -18.6 26.5 -4.9 3.1 -5.5 3.3 -20 4.1 -15 0.8 -20.5 2.1 -20.5 4.8 0 0.8 1.9 2.1 4.3 2.9 2.3 0.7 4.7 2.2 5.2 3.2 0.9 1.7 0.7 1.8 -2.5 1.3 -9.5 -1.5 -30.5 8.9 -30.5 15.1 0 1.3 0.9 3.1 2.1 4.2 3.8 3.5 6.1 9.3 5.5 13.8 -0.4 2.3 -0.8 5.1 -0.9 6.3 -0.9 6.2 -7.8 9.2 -21.3 9.3 -5.5 0 -10.4 -0.3 -10.7 -0.6z"/>
  <path d="M108.7 177.9 c-5.6 -1.3 -9.9 -3.8 -9.1 -5.2 0.4 -0.7 2.2 -3.2 3.9 -5.7 8.5 -11.9 15.5 -26.7 15.5 -32.5 0 -3.1 2.8 -5.2 8 -5.9 9.8 -1.4 17 -8.2 17 -16.1 0 -3.5 0.8 -5.4 4.3 -10.1 2.4 -3.3 5.2 -6.6 6.2 -7.4 1.7 -1.4 1.7 -1.4 0.3 1.5 -2.6 4.9 -3.6 10.3 -4.7 24.1 l-1 13.2 -9.3 9.3 c-9.2 9.2 -18.4 21.8 -22.9 31.2 -1.3 2.6 -2.8 4.7 -3.3 4.6 -0.6 -0.1 -2.8 -0.5 -4.9 -1z"/>
  <path d="M257.3 101.8 c-4.3 -0.9 -5.5 -2.1 -3 -3.1 0.7 -0.2 3.5 -0.1 6.2 0.4 2.8 0.4 7.3 0.8 10.2 0.8 6.2 0.1 7.8 1.6 2.5 2.5 -5 0.8 -10.8 0.6 -15.9 -0.6z"/>
  <path d="M258.3 88.4 c-5 -6.1 -6.3 -8.5 -6.3 -11.9 0 -2 -0.4 -2.6 -1.4 -2.2 -0.9 0.4 -1.7 -0.2 -2.1 -1.3 -1.1 -3.4 -15.2 -15.6 -22.5 -19.4 -6.6 -3.5 -7.3 -3.7 -8.9 -2.2 -1 0.9 -2.8 1.6 -4.1 1.6 l-2.4 0 3 -3.2 c1.6 -1.8 2 -2.5 0.8 -1.5 -1.7 1.4 -2.3 1.5 -3.2 0.4 -2.4 -2.8 -6.2 -12.4 -6.2 -15.6 l0 -3.3 5.8 0.4 c8.4 0.6 17.5 5.2 25.9 13.2 8.7 8.2 15 17 13.6 18.8 -0.7 0.9 -0.5 2.2 0.7 4.2 1.7 2.6 1.8 2.7 2.4 0.8 1.1 -3.4 5.6 -4.3 13 -2.5 3.6 0.9 6.6 1.9 6.6 2.2 0 0.4 -1 1.1 -2.2 1.6 -1.3 0.6 -2.4 2 -2.6 3.3 -0.4 2.7 5 14.7 8 18 l2.1 2.2 -4.4 0 c-2.4 0 -6 0.3 -8 0.6 -3.3 0.6 -3.8 0.3 -7.6 -4.2z"/>
  <path d="M203.8 87.7 c-4.8 -2.5 -9.5 -4.2 -12.7 -4.5 -5.9 -0.5 -6.5 -1.6 -1.8 -3.1 8.3 -2.6 9.9 -2.5 14.4 1.4 4.1 3.5 8.9 9.3 8.2 9.9 -0.2 0.1 -3.8 -1.6 -8.1 -3.7z"/>
 </g>
 <g fill="#c18062">
  <path d="M87.6 419.9 c-4.3 -10.7 -13.3 -19.3 -21.4 -20.5 -3.9 -0.5 -5.9 -1.8 -11.7 -6.9 -15.6 -13.8 -24.4 -19 -30.7 -18.2 l-3.8 0.5 2.2 -3.9 c4.3 -7.8 11.3 -14.4 16.8 -16.2 7.8 -2.5 13.2 -2.2 16.9 0.9 4.5 3.7 5.3 5.8 6 14.8 l0.6 8 5.5 -0.3 c9.2 -0.4 20.3 6.4 27.2 16.8 1.6 2.4 4 4 7.9 5.5 7.5 2.8 18 9.1 21.8 13 1.6 1.7 3.7 4.8 4.6 6.9 l1.5 3.7 -20.9 0 -20.9 0 -1.6 -4.1z"/>
 </g>
 <g fill="#8b8279">
  <path d="M31.3 279.3 c1.2 -16.9 8.9 -44.7 18.9 -68.4 l5 -11.9 6.7 -4 c7.1 -4.2 16.6 -8 20.1 -8 2 0 2 0.5 2 47.5 0 33.8 -0.3 48.1 -1.2 50 l-1.1 2.5 -14.5 0 -14.5 0 0.7 -13.2 c1.1 -20.3 3.4 -39.8 6.6 -55.9 1.6 -8 3.2 -15.4 3.5 -16.5 0.3 -1 -0.7 0.5 -2.1 3.5 -8.2 16.6 -15.4 47.2 -17 71.5 l-0.7 10.6 -6.5 0 -6.5 0 0.6 -7.7z"/>
  <path d="M215.5 81 c-0.9 -1 -3.8 -2.7 -6.2 -3.6 l-4.6 -1.8 0.7 -6.5 c0.7 -7.7 4.1 -15.2 8.9 -19.9 l3.4 -3.3 5.1 1.9 c11 4.2 29.2 19.3 29.2 24.2 0 3.5 -11.6 5.5 -15.5 2.7 -1.4 -1.1 -1.7 -2.1 -1.2 -4.6 0.9 -4.3 -2.3 -7.7 -5.4 -6 -1.2 0.6 -2.4 2 -2.6 3 -0.9 3.3 -3.3 2.2 -3.3 -1.4 0 -4.3 1.5 -5.7 6.2 -5.7 2.9 0 3.6 -0.3 3.2 -1.5 -0.4 -0.8 -1.2 -1.5 -2 -1.5 -0.8 0 -1.4 -0.7 -1.4 -1.5 0 -0.8 -0.9 -1.5 -1.9 -1.5 -1 0 -3.8 -0.9 -6.2 -2 -5.9 -2.7 -6.9 -2.5 -6.9 0.9 0 1.6 -0.4 3.1 -0.8 3.3 -1.4 0.6 -5.2 10.6 -5.2 13.7 0 2.5 0.5 3.1 3.4 4.1 1.9 0.6 3.6 1.5 3.8 2 0.2 0.5 1.7 1.2 3.4 1.6 3 0.6 3.1 0.5 3.8 -3.5 1 -6.2 4.4 -5.4 3.7 0.9 -0.2 1.9 -6.6 8 -8.4 8 -0.8 0 -2.2 -0.9 -3.2 -2z m30.1 -10.6 c-0.3 -0.9 -0.6 -2.7 -0.6 -4 0 -2 -0.5 -2.4 -3 -2.4 -2.8 0 -3 0.2 -3 4 0 3.9 0.1 4 3.6 4 2.9 0 3.5 -0.3 3 -1.6z"/>
 </g>
 <g fill="#666567">
  <path d="M215.5 80.4 c-1.7 -1.3 -4.5 -2.9 -6.3 -3.5 -4 -1.3 -4.8 -4 -3.3 -10.9 1.3 -6.2 4.1 -11.8 8.2 -16.4 3 -3.4 3 -3.5 6.8 -2.1 6.5 2.2 11.4 5.1 18.7 10.8 7.2 5.7 13.1 12.8 12 14.6 -1.1 1.7 -8.4 3.2 -12.1 2.5 -3.3 -0.6 -3.5 -0.8 -3.5 -4.9 0 -2.8 -0.6 -4.7 -1.8 -5.8 -4.2 -3.8 -7.2 -1.3 -7.2 5.8 0 5.6 -1.7 8.8 -5.8 10.9 -2.5 1.3 -3 1.2 -5.7 -1z"/>
 </g>
</svg>